<svg xmlns="http://www.w3.org/2000/svg" viewBox="0 0 503.84 85.83" fill="none" stroke="currentColor" stroke-width="1.4" stroke-linecap="round" stroke-linejoin="round"><path d="M3.64,85.83 L3.64,44.77 C3.64,22.05 22.06,3.64 44.77,3.64 C67.58,3.64 86.07,22.13 86.07,44.94 L86.07,85.83 M86.56,85.83 L86.56,44.77 C86.56,22.05 104.98,3.64 127.69,3.64 C150.5,3.64 168.99,22.13 168.99,44.94 L168.99,85.83 M169.47,85.83 L169.47,44.77 C169.47,22.05 187.89,3.64 210.6,3.64 C233.41,3.64 251.9,22.13 251.9,44.94 L251.9,85.83 M252.38,85.83 L252.38,44.77 C252.38,22.05 270.8,3.64 293.51,3.64 C316.32,3.64 334.81,22.13 334.81,44.94 L334.81,85.83 M334.85,85.83 L334.85,44.77 C334.85,22.05 353.27,3.64 375.98,3.64 C398.79,3.64 417.28,22.13 417.28,44.94 L417.28,85.83 M417.77,85.83 L417.77,44.77 C417.77,22.05 436.19,3.64 458.9,3.64 C481.71,3.64 500.2,22.13 500.2,44.94 L500.2,85.83"></path></svg>