<svg width="464" height="582" viewBox="0 0 464 582" fill="none" xmlns="http://www.w3.org/2000/svg">
<path d="M310.818 148.897C311.15 148.809 311.485 148.719 311.817 148.631C312.315 148.5 313.012 148.091 312.928 147.464C312.519 144.387 307.437 143.798 305.08 143.374C300.315 142.516 295.53 141.754 290.821 140.633C289.538 140.327 287.846 140.191 286.84 139.25C285.924 138.39 285.966 137.016 285.236 136.011C284.307 134.732 282.995 134.172 282.233 132.682C281.642 131.53 281.24 130.294 280.529 129.203C277.084 123.926 270.776 125.168 265.861 122.48C260.144 119.355 254.82 115.255 250.227 110.661C248.105 108.538 246.283 106.124 245.115 103.344C244.117 100.968 242.895 96.0561 245.197 94.0005C247.646 91.8131 253.99 98.6847 255.946 100.118C261.221 103.975 266.809 106.219 273.029 108.042C276.189 108.966 279.348 109.954 282.615 110.43C283.969 110.626 285.49 110.539 286.741 111.15C288.003 111.765 289.012 112.965 290.079 113.855C292.503 115.878 294.773 117.764 296.658 120.32C298.807 123.235 300.86 126.228 302.642 129.383C304.342 132.388 305.592 135.375 306.516 138.694C307.416 141.93 309.194 144.618 311.106 147.338C312.955 149.969 314.498 152.819 316.404 155.402C318.146 157.765 320.664 159.385 322.423 161.731C325.914 166.386 323.35 172.842 321.954 177.849C320.157 184.296 317.76 190.702 316.647 197.313C315.475 204.275 314.685 211.366 314.268 218.411C313.928 224.177 313.532 230.069 316.555 235.236C317.85 237.45 319.524 239.431 321.314 241.261C322.341 242.312 323.467 243.29 324.268 244.532C325.258 246.064 325.4 247.778 325.359 249.564C325.281 253.041 325.579 255.36 327.166 258.483C328.646 261.391 330.292 264.213 332.04 266.968C339.599 278.879 349.287 289.233 357.036 301.01C360.982 307.009 364.368 313.347 368.188 319.424C371.88 325.293 376.04 330.866 379.942 336.595C384.009 342.565 387.94 348.634 391.466 354.944C394.557 360.474 397.232 366.093 401.048 371.188C408.388 380.992 417.812 388.992 425.272 398.695C433.636 409.575 440.875 421.709 446.729 434.108C449.685 440.37 452.392 446.833 454.075 453.563C455.698 460.049 456.308 466.861 456.396 473.534C456.486 480.301 456.002 487.231 453.195 493.474C450.335 499.832 447.616 506.251 444.592 512.53C443.051 515.728 441.691 519.009 440.208 522.233C439.003 524.85 437.791 527.672 435.772 529.785C431.21 534.559 423.155 534.567 417.169 533.162C410.65 531.634 404.365 528.113 398.66 524.7C392.921 521.265 387.206 517.402 382.575 512.54C373.8 503.33 368.018 491.493 361.607 480.627C357.957 474.441 353.946 468.412 350.514 462.104C347.188 455.989 344.821 449.475 342.634 442.886C337.886 428.587 333.523 414.177 330.51 399.402C329.026 392.124 327.44 384.883 326.342 377.532C325.868 374.363 325.363 371.192 324.566 368.083C323.729 364.811 322.375 361.726 321.343 358.516C319.303 352.182 317.951 345.608 315.309 339.476C314.003 336.446 312.486 333.509 311.293 330.432C310.079 327.297 309.514 323.992 308.363 320.844C303.828 308.457 300.537 294.97 290.345 285.802C286.056 281.945 281.21 278.676 276.352 275.587C271.534 272.523 266.601 269.482 262.704 265.246C258.282 260.438 255.634 254.168 254.833 247.715C254.42 244.381 254.472 240.992 254.974 237.672C255.47 234.403 256.615 231.347 257.351 228.141C258.101 224.88 258.485 221.564 259.563 218.383C260.687 215.074 261.871 211.784 263.077 208.506C265.622 201.593 268.167 194.687 270.557 187.716C272.941 180.764 275.688 174.003 278.413 167.181C279.73 163.88 280.85 160.537 281.995 157.175C282.896 154.531 284.219 152.078 285.395 149.552C286.246 147.722 287.102 145.85 287.706 143.922C288.284 142.081 288.326 140.994 286.339 140.13C284.269 139.229 281.854 139.561 279.695 139.903C276.43 140.421 273.184 140.942 269.868 140.978C264.882 141.032 259.886 140.988 255.032 142.316C250.07 143.672 246.511 146.274 243.53 150.414C239.362 156.202 235.288 162.069 231.674 168.222C230.122 170.866 227.915 173.279 226.705 176.099C225.629 178.605 225.384 181.465 225.307 184.162C225.214 187.4 225.481 190.631 225.537 193.867C225.594 197.333 225.394 200.798 225.267 204.26C225.139 207.805 225.059 211.364 225.357 214.904C225.55 217.206 225.98 219.46 227.607 221.212C230.561 224.393 236.335 225.386 240.104 223.145C243.843 220.922 244.866 214.87 245.348 210.932C246.153 204.365 245.405 197.709 245.3 191.126C245.193 184.47 249.776 180.286 255.112 177.019C257.496 175.56 260.349 173.81 263.043 173.044C266.1 172.175 270.646 172.414 273.767 173.073C276.998 173.755 279.594 176.297 282.191 178.196C284.756 180.076 287.997 181.631 290.165 183.969C291.886 185.826 292.471 188.283 292.93 190.702C293.541 193.919 294.081 197.162 294.411 200.422C294.763 203.879 294.893 207.398 294.243 210.827C293.601 214.222 292.377 217.481 291.096 220.679C288.597 226.926 285.957 232.82 281.548 237.987C277.355 242.901 272.514 247.438 267.085 250.957C264.66 252.529 261.462 255.119 258.406 254.714C255.772 254.365 256.598 250.124 256.581 248.204C256.517 240.814 256.387 233.601 258.091 226.364C258.894 222.954 259.867 219.583 260.59 216.153C261.272 212.906 261.565 209.614 261.859 206.313C262.2 202.491 263.146 198.989 263.865 195.246C264.247 193.254 264.546 190.893 262.645 189.565C260.19 187.849 254.282 188.824 254.017 192.356C253.877 194.205 254.651 196.331 255.095 198.106C255.718 200.597 256.389 203.077 256.873 205.599C257.695 209.891 258.527 215.657 255.221 219.159C252.074 222.492 245.262 224.441 242.062 220.287C241.337 219.346 239.31 220.582 240.117 221.63C242.912 225.256 247.786 225.073 251.699 223.554C255.862 221.938 258.951 218.876 259.666 214.377C260.423 209.612 259.2 204.705 258.049 200.103C257.494 197.885 256.839 195.67 256.473 193.411C256.244 191.985 256.336 191.416 257.806 190.984C259.389 190.518 261.418 190.602 261.787 192.53C262.11 194.219 261.376 196.224 260.964 197.85C260.509 199.65 260.087 201.423 259.875 203.27C259.477 206.733 259.328 210.226 258.77 213.67C257.638 220.675 255.024 227.373 254.407 234.474C254.097 238.046 254.223 241.68 254.236 245.262C254.248 248.07 253.774 251.451 254.508 254.202C255.718 258.736 261.985 256.153 264.574 254.644C275.229 248.427 285.091 239.389 290.35 228.057C293.161 222.001 296.145 215.28 296.855 208.594C297.532 202.236 296.364 195.569 295.071 189.351C294.631 187.232 294.056 185.142 292.74 183.383C291.163 181.272 288.725 180.046 286.603 178.578C283.762 176.616 281.103 174.213 278.122 172.473C275.726 171.076 273.044 170.876 270.335 170.771C267.281 170.652 264.01 170.476 261.154 171.735C258.664 172.832 256.16 174.171 253.835 175.594C249.633 178.168 244.893 181.859 243.453 186.803C242.637 189.605 243.027 192.639 243.178 195.502C243.365 199.038 243.392 202.63 243.348 206.17C243.306 209.444 242.956 212.669 242.073 215.825C241.323 218.505 240.412 221.571 237.352 222.213C234.519 222.807 231.045 221.778 229.219 219.483C227.238 216.992 227.518 213.024 227.483 210.021C227.403 203.079 227.988 196.173 227.715 189.227C227.586 185.956 227.449 182.621 228.053 179.388C228.701 175.925 230.735 173.705 232.556 170.826C236.433 164.692 240.186 158.562 244.411 152.645C246.293 150.011 248.002 147.531 250.891 145.924C253.263 144.604 255.942 143.903 258.609 143.483C264.272 142.589 270.015 143.208 275.692 142.448C278.416 142.083 281.777 140.921 284.5 141.712C286.085 142.172 285.789 142.755 285.359 144.058C284.961 145.261 284.464 146.429 283.951 147.586C282.965 149.816 281.814 151.967 280.843 154.202C279.567 157.14 278.741 160.252 277.627 163.253C275.09 170.079 272.029 176.695 269.666 183.587C267.163 190.887 264.656 198.183 261.93 205.402C259.454 211.958 256.915 218.475 255.619 225.377C254.405 231.843 252.093 237.769 252.24 244.463C252.378 250.647 254.084 256.875 257.372 262.136C260.433 267.032 264.895 270.71 269.637 273.906C274.499 277.184 279.499 280.191 284.192 283.72C289.75 287.896 294.174 292.75 297.377 298.953C298.981 302.061 300.472 305.286 301.579 308.608C302.686 311.932 303.589 315.3 304.893 318.557C306.206 321.839 307.036 325.127 308.082 328.489C309.051 331.607 310.431 334.566 311.796 337.525C314.733 343.889 316.444 350.533 318.448 357.221C319.413 360.442 320.723 363.535 321.719 366.74C322.815 370.265 323.411 373.912 323.958 377.553C326.159 392.196 329.329 406.854 333.359 421.104C335.439 428.457 337.754 435.739 340.156 442.993C342.385 449.727 344.746 456.4 348.113 462.666C351.574 469.104 355.679 475.238 359.393 481.537C362.739 487.207 365.982 492.943 369.41 498.564C372.645 503.867 376.121 509.09 380.394 513.625C384.835 518.34 390.252 522.128 395.741 525.523C405.985 531.858 418.676 538.668 431.023 534.731C436.512 532.981 439.399 528.931 441.76 523.922C444.829 517.411 448.033 510.868 450.752 504.207C453.26 498.061 456.755 492.204 457.874 485.596C458.946 479.259 458.906 472.737 458.401 466.349C457.292 452.296 452.387 439.52 445.915 427.093C439.764 415.283 432.564 403.412 423.895 393.268C415.72 383.703 405.979 375.345 399.364 364.526C395.733 358.589 392.81 352.248 389.129 346.322C385.449 340.394 381.507 334.637 377.516 328.915C373.28 322.84 369.245 316.723 365.494 310.333C361.854 304.132 358.08 298.066 353.805 292.278C345.305 280.768 335.682 270.081 329.202 257.209C328.357 255.53 327.652 253.937 327.596 252.019C327.547 250.313 327.822 248.609 327.616 246.903C327.279 244.131 325.618 242.284 323.723 240.379C319.505 236.138 316.49 231.519 316.364 225.375C316.211 217.837 317.136 210.21 318.146 202.754C318.626 199.208 319.142 195.691 320.062 192.228C320.998 188.699 322.184 185.246 323.189 181.736C324.623 176.733 326.715 171.235 326.466 165.962C326.187 160.061 320.452 157.331 317.513 152.832C315.662 149.999 313.817 147.181 311.928 144.371C310.911 142.86 309.936 141.301 309.296 139.588C308.674 137.926 308.393 136.159 307.787 134.493C305.562 128.381 301.436 122.11 297.218 117.179C295.176 114.793 292.521 112.915 290.154 110.869C288.458 109.404 286.93 108.901 284.722 108.659C281.076 108.258 277.598 107.194 274.092 106.168C270.807 105.205 267.585 104.294 264.507 102.758C261.485 101.25 258.638 99.3896 255.984 97.3035C254.353 96.0216 252.856 94.5755 251.141 93.4006C248.111 91.3259 244.136 90.5752 242.434 94.6271C240.264 99.7946 242.95 105.619 246.191 109.679C250.053 114.52 255.038 117.905 260.06 121.378C262.649 123.168 265.19 124.916 268.285 125.676C271.035 126.351 273.96 126.45 276.334 128.164C279.061 130.129 279.204 133.507 281.464 135.74C282.007 136.277 282.697 136.602 283.15 137.236C283.531 137.769 283.64 138.317 283.869 138.921C284.278 140 284.835 140.734 285.865 141.307C288.045 142.518 291.058 142.875 293.48 143.303C295.903 143.731 298.296 144.314 300.721 144.706C302.522 144.996 304.326 145.248 306.105 145.661C307.208 145.917 310.412 146.431 310.605 147.884C310.976 147.495 311.345 147.107 311.716 146.717C311.383 146.805 311.049 146.895 310.716 146.983C309.397 147.338 309.3 149.302 310.818 148.897Z" fill="white"></path>
<path d="M317.786 199.226C322.659 199.705 327.351 197.138 331.415 194.769C336.086 192.046 340.663 188.673 345.89 187.087C348.655 186.249 351.357 186.459 354.209 186.546C357.171 186.638 360.132 186.72 363.094 186.812C368.174 186.967 373.259 187.123 378.326 187.528C385.608 188.111 393.013 189.271 399.435 192.954C406.527 197.021 411.782 203.665 416.394 210.26C424.875 222.387 425.493 237.508 427.229 251.665C429.16 267.416 433.089 282.843 435.876 298.45C438.695 314.219 441.36 330.002 444.438 345.723C445.919 353.295 447.426 360.855 448.627 368.477C449.789 375.861 450.866 383.269 452.567 390.553C453.374 394.007 454.447 397.373 455.382 400.793C456.422 404.598 457.183 408.476 457.894 412.354C458.548 415.917 459.054 419.511 460.116 422.982C460.676 424.814 461.131 426.606 461.243 428.528C461.368 430.625 461.203 432.725 461.154 434.82C460.964 442.76 461.127 450.72 461.133 458.664C461.135 462.295 461.259 465.898 461.372 469.526C461.452 472.124 461.115 474.436 460.137 476.835C459.735 477.821 458.425 481.303 456.93 480.897C455.427 480.488 455.198 482.58 456.596 482.96C460.687 484.074 462.807 477.206 463.421 474.336C464.075 471.274 463.553 468.045 463.467 464.954C463.354 460.891 463.448 456.814 463.446 452.749C463.442 448.606 463.44 444.46 463.446 440.316C463.45 436.404 463.784 432.44 463.563 428.535C463.345 424.699 461.788 421.064 461.106 417.298C460.398 413.401 459.729 409.496 458.879 405.628C458.049 401.855 456.89 398.197 455.873 394.473C454.848 390.725 454.049 386.916 453.344 383.097C451.954 375.566 450.959 367.971 449.611 360.434C446.696 344.148 443.268 327.966 440.482 311.653C439.109 303.612 437.748 295.568 436.15 287.567C434.576 279.683 432.833 271.833 431.42 263.919C430.03 256.138 429.229 248.324 428.336 240.478C427.485 233.001 425.942 225.929 423.296 218.878C421.164 213.196 417.882 208.33 414.119 203.61C411.521 200.351 408.683 197.229 405.441 194.599C399.716 189.955 392.931 187.42 385.7 186.271C375.548 184.659 365.132 184.755 354.884 184.441C352.062 184.355 349.198 184.044 346.416 184.659C343.891 185.219 341.487 186.315 339.212 187.521C334.255 190.144 329.702 193.573 324.519 195.766C322.3 196.704 319.946 197.329 317.523 197.09C315.971 196.937 316.428 199.092 317.786 199.226Z" fill="white"></path>
<path d="M294.845 53.2221C293.987 53.3673 293.499 54.1085 293.117 54.8287C292.53 55.9367 292.125 57.1441 291.729 58.3304C290.706 61.3965 289.915 64.5372 289.115 67.6664C288.779 68.9808 288.45 70.2989 288.094 71.6075C287.974 72.0507 287.848 72.4939 287.712 72.9333C287.687 73.0154 287.66 73.0995 287.632 73.1817C287.687 73.0212 287.643 73.1454 287.613 73.2237C287.358 73.8809 287.104 74.538 286.856 75.1971C284.856 80.4812 282.999 85.8207 280.372 90.8373C277.718 95.9036 275.237 101.228 271.163 105.345C270.281 106.235 272.174 107.662 272.948 106.881C276.501 103.291 278.913 98.8513 281.217 94.4059C282.449 92.0294 283.691 89.6663 284.752 87.2076C285.873 84.6095 286.861 81.9579 287.848 79.3063C288.947 76.349 290.05 73.4835 290.836 70.4307C291.62 67.3818 292.375 64.3232 293.27 61.3029C293.704 59.8358 294.157 58.3629 294.759 56.9531C294.975 56.4487 295.214 55.9577 295.503 55.4916C295.551 55.4152 295.604 55.3407 295.66 55.2681C295.643 55.2891 295.616 55.3063 295.731 55.1936C295.777 55.1477 295.866 55.1019 295.903 55.0503C295.859 55.1134 295.889 55.0904 295.719 55.1191C297.182 54.8726 295.95 53.0368 294.845 53.2221Z" fill="white"></path>
<path d="M146.177 71.808C144.68 88.3614 145.716 105.01 144.395 121.571C143.734 129.858 141.986 137.993 141.457 146.29C140.946 154.275 141.07 162.297 140.26 170.263C139.457 178.143 137.654 186.096 133.648 193.01C130.09 199.153 124.792 204.031 119.082 208.149C113.445 212.213 107.224 215.361 101.605 219.426C98.2494 221.854 94.7335 224.445 90.6611 225.511C87.0055 226.468 83.1511 225.841 79.4611 225.417C73.5208 224.733 67.1426 224.428 62.0665 228.172C58.8316 230.558 56.0134 233.863 53.0576 236.606C50.0292 239.416 47.1613 242.723 43.8958 245.237C41.2038 247.31 38.1811 249.069 35.3916 251.028C32.4664 253.079 29.6426 255.28 26.9659 257.647C21.7617 262.253 17.0928 267.501 13.4085 273.406C9.60768 279.498 7.62305 286.824 6.22162 293.803C4.58312 301.954 4.07265 310.1 3.86616 318.391C3.43407 335.745 3.52011 353.106 3.38819 370.462C3.25435 387.953 2.90446 405.456 1.58142 422.904C1.24493 427.351 0.843407 431.795 0.367342 436.23C-0.0628373 440.248 0.187705 444.376 0.164762 448.415C0.115052 457.048 0.0251058 465.681 0.00407479 474.314C-0.0379872 491.818 0.223958 509.298 1.81084 526.738C2.53928 534.75 3.15876 542.77 4.26957 550.74C5.10699 556.748 6.25419 562.848 9.19661 568.226C12.3092 573.913 17.4331 578.293 23.6201 580.307C29.7573 582.303 36.3457 581.94 42.6741 581.317C50.9202 580.507 59.0438 579.728 67.3434 579.726C71.4693 579.724 75.601 579.726 79.7173 579.413C83.8337 579.099 87.8084 578.196 91.854 577.422C124.745 571.139 158.461 570.717 190.956 562.212C207.048 557.999 222.558 551.762 237.97 545.572C253.468 539.347 268.807 532.731 284.005 525.802C291.52 522.375 299 518.873 306.448 515.305C314.136 511.621 322.073 508.148 329.502 503.968C335.645 500.513 340.84 495.639 346.86 491.996C348.872 490.779 351.602 489.297 353.424 488.8C354.382 488.538 355.231 488.416 356.105 487.875C359.582 485.721 359.814 481.067 359.649 477.412C359.617 476.681 357.275 477.08 357.315 477.947C357.456 481.084 357.271 486.471 353.753 487.568C353.443 487.665 354.179 487.461 353.745 487.574C353.361 487.673 352.986 487.728 352.596 487.853C350.979 488.365 349.409 489.123 347.908 489.904C345.084 491.377 342.444 493.186 339.87 495.055C337.018 497.127 334.24 499.309 331.305 501.269C327.986 503.485 324.38 505.157 320.809 506.92C313.396 510.58 305.957 514.183 298.483 517.715C268.593 531.845 238.094 545.282 206.853 556.175C191.017 561.696 174.521 565.173 157.937 567.538C141.961 569.817 125.844 570.822 109.878 573.189C101.966 574.362 94.1082 575.795 86.2617 577.338C77.6104 579.04 68.7104 578.274 59.95 578.572C45.9759 579.046 28.8931 584.823 17.0679 574.538C7.01704 565.796 6.36318 550.566 5.2428 538.244C4.46656 529.722 3.50479 521.194 3.08035 512.647C2.66164 504.167 2.45897 495.679 2.37867 487.19C2.30028 478.744 2.34239 470.298 2.40166 461.852C2.46284 453.149 1.91604 444.189 2.74007 435.526C4.31548 418.986 5.20257 402.446 5.51995 385.835C5.84688 368.785 5.74946 351.729 5.91962 334.677C6.08596 317.992 5.79917 301.075 10.6994 284.946C12.8082 278.006 16.1254 271.918 20.7618 266.332C25.3274 260.832 30.7361 256.082 36.5483 251.935C39.3684 249.923 42.2592 248.053 45.1137 246.103C48.1919 244.001 50.7767 240.859 53.5069 238.318C56.5296 235.506 59.5065 232.65 62.5063 229.815C65.7546 226.745 69.8327 226.015 74.1689 226.256C80.4514 226.607 86.6116 228.244 92.7507 226.088C99.1078 223.854 104.381 219.015 110.092 215.575C121.187 208.892 132.318 201.369 137.818 189.176C144.259 174.901 142.718 158.988 143.938 143.787C144.592 135.628 146.29 127.612 146.856 119.432C147.395 111.63 147.454 103.809 147.534 95.9914C147.617 87.8494 147.76 79.7093 148.494 71.5959C148.58 70.677 146.244 71.0553 146.177 71.808Z" fill="white"></path>
<path d="M260.002 120.912C255.761 129.549 246.353 133.278 238.728 138.258C237.734 138.908 236.757 139.582 235.81 140.294C235.304 140.677 234.824 141.169 234.208 141.347C233.461 141.563 232.65 141.659 231.883 141.792C228.989 142.298 226.063 142.637 223.129 142.812C217.185 143.168 211.175 142.866 205.319 141.765C203.828 141.485 202.348 141.15 200.884 140.759C199.74 140.453 198.727 139.863 197.641 139.379C196.414 138.835 195.096 138.47 193.913 137.84C192.798 137.247 191.703 136.625 190.622 135.969C186.43 133.427 182.535 130.416 178.979 127.042C171.807 120.236 166.033 112.071 161.47 103.327C156.894 94.5621 153.489 85.2147 150.935 75.6762C150.62 74.4975 150.317 73.313 150.025 72.1267C149.929 71.7408 149.203 71.3644 148.891 71.1753C148.799 71.1199 147.991 70.6767 148.05 70.9231C150.478 80.817 153.757 90.5312 158.258 99.6838C162.709 108.735 168.379 117.221 175.463 124.431C179.065 128.099 183.028 131.413 187.271 134.319C189.458 135.817 191.72 137.204 194.048 138.472C194.626 138.787 195.203 139.133 195.806 139.395C196.5 139.697 197.243 139.899 197.945 140.186C199.104 140.659 200.192 141.288 201.344 141.765C202.715 142.335 204.331 142.579 205.78 142.881C207.223 143.181 208.676 143.435 210.135 143.641C213.187 144.071 216.265 144.295 219.347 144.335C222.419 144.375 225.492 144.23 228.547 143.907C230.05 143.748 231.549 143.546 233.038 143.3C233.774 143.177 234.506 143.045 235.239 142.902C235.556 142.839 235.875 142.78 236.191 142.709C236.571 142.623 236.76 142.438 237.066 142.197C244.496 136.342 254.463 133.218 260.155 125.319C260.852 124.351 261.46 123.325 261.986 122.255C262.162 121.894 260.099 120.713 260.002 120.912Z" fill="white"></path>
<path d="M81.7637 329.374C79.5459 335.214 79.3872 341.526 80.9416 347.555C82.5457 353.773 84.1727 359.982 85.6142 366.246C86.4058 369.681 86.8093 372.951 86.7462 376.485C86.6831 379.947 86.4077 383.399 86.4058 386.863C86.4039 393.77 86.467 400.68 86.5989 407.586C86.8608 421.322 87.4153 435.052 88.3655 448.755C88.8435 455.661 89.633 462.557 89.8376 469.479C90.0403 476.352 89.8339 483.228 89.6905 490.099C89.6503 491.988 89.6139 493.88 89.5929 495.769C89.5738 497.381 89.7918 499.156 89.4266 500.738C88.8397 503.286 86.3886 504.757 83.8649 504.582C80.6739 504.36 77.5575 504.624 74.3646 504.905C72.6382 505.057 70.6478 505.438 68.9252 505.168C67.6519 504.969 66.6329 504.475 65.3041 504.593C65.7018 504.708 66.1013 504.82 66.499 504.935C67.2944 503.986 68.2561 503.179 69.0572 502.255C69.1241 502.176 69.2789 502.148 69.3325 502.068C69.6212 501.638 67.954 501.693 67.7017 502.115C67.6424 502.215 67.694 502.444 67.6271 502.572C67.3843 503.027 67.1587 503.455 66.8107 503.844C66.6253 504.054 66.4244 504.253 66.1969 504.415C66.1166 504.473 65.8853 504.574 65.8222 504.65C65.5469 504.994 66.6291 504.727 66.1587 504.61C66.2735 504.717 66.3881 504.824 66.5009 504.931C68.0189 502.95 70.0322 501.124 72.5406 500.568C73.7375 500.302 75.0415 500.279 76.2613 500.121C77.8099 499.92 79.3604 499.741 80.9129 499.584C86.9239 498.975 92.9637 498.7 99.0053 498.7C110.867 498.701 122.709 499.796 134.45 501.426C145.998 503.028 157.577 502.581 169.161 501.521C175.135 500.975 181.099 500.293 187.072 499.712C192.83 499.152 198.507 497.584 204.219 496.673C207.11 496.212 210.028 495.859 212.955 495.735C215.569 495.624 217.855 495.551 220.344 494.663C221.497 494.252 222.631 493.752 223.824 493.465C225.245 493.123 226.899 493.442 228.352 493.475C231.068 493.538 233.783 493.446 236.493 493.226C247.201 492.355 257.577 489.344 267.718 485.938C272.928 484.188 278.103 482.337 283.321 480.614C283.919 480.417 284.516 480.221 285.114 480.028C285.443 479.921 286.16 479.821 286.428 479.565C286.72 479.283 286.739 478.778 286.982 478.432C287.29 477.995 287.651 477.777 288.169 477.657C289.936 477.24 291.611 477.307 293.098 476.111C297.066 472.921 301.501 470.613 305.895 468.082C308.116 466.804 310.296 465.438 312.296 463.83C312.659 463.537 313.139 463.224 313.437 462.867C313.823 462.404 314.07 461.885 314.514 461.445C315.466 460.5 316.651 459.783 317.521 458.754C320.421 455.315 321.907 450.203 321.528 445.754C321.28 442.829 320.765 439.94 320.591 437.002C320.425 434.198 320.383 431.388 320.397 428.579C320.412 425.679 320.485 422.78 320.536 419.88C320.582 417.293 320.408 414.639 320.773 412.072C321.431 407.426 323.674 403.126 325.635 398.923C326.763 396.504 327.861 394.072 328.843 391.591C329.029 391.121 326.74 391.088 326.526 391.633C323.997 398.023 320.09 404.136 318.641 410.905C317.913 414.311 318.196 417.912 318.129 421.373C318.049 425.504 317.949 429.634 318.06 433.764C318.114 435.76 318.217 437.757 318.391 439.747C318.574 441.837 318.966 443.906 319.144 445.994C319.431 449.368 318.63 452.822 317.093 455.823C316.227 457.512 315.206 458.912 313.749 460.137C312.338 461.323 311.284 462.827 309.852 463.948C307.086 466.112 304.009 467.826 300.947 469.528C299.165 470.518 297.381 471.507 295.656 472.59C294.788 473.137 293.934 473.704 293.104 474.308C292.272 474.912 291.517 475.691 290.662 476.247C289.462 477.03 287.871 476.828 286.533 477.242C285.284 477.63 284.558 478.356 284.189 479.609C284.374 479.485 284.562 479.361 284.747 479.235C271.174 483.589 257.866 489.132 243.756 491.566C240.114 492.195 236.427 492.6 232.732 492.703C229.529 492.793 226.113 492.145 222.971 492.863C221.469 493.207 220.058 493.815 218.609 494.321C216.607 495.022 214.605 494.902 212.517 495.02C208.841 495.228 205.191 495.733 201.566 496.363C197.95 496.992 194.356 497.739 190.748 498.402C186.791 499.128 182.766 499.412 178.764 499.829C171.098 500.629 163.421 501.428 155.714 501.678C151.72 501.808 147.723 501.793 143.732 501.561C139.821 501.334 135.966 500.704 132.083 500.205C124.577 499.24 117.037 498.514 109.475 498.169C100.961 497.779 92.4264 497.867 83.9299 498.573C81.8631 498.745 79.8001 498.954 77.7429 499.202C75.8578 499.429 73.9134 499.536 72.0473 499.888C68.8067 500.499 66.1721 502.387 64.1876 504.973C64.0308 505.178 64.4207 505.267 64.5297 505.294C66.5315 505.789 69.6269 504.549 70.038 502.27C70.2387 501.16 68.7053 501.378 67.9788 501.59C66.3919 502.054 65.1856 503.781 64.1876 504.973C63.8778 505.342 65.3404 505.319 65.3825 505.315C66.1434 505.246 67.2122 505.89 68.0458 505.949C69.6881 506.066 71.3973 505.873 73.0358 505.745C76.0758 505.508 79.2208 504.945 82.2627 505.281C85.9622 505.69 91.0116 504.58 91.8432 500.329C92.1281 498.87 91.9599 497.257 91.9752 495.779C91.9943 493.973 92.0268 492.17 92.0651 490.366C92.1396 486.758 92.2333 483.149 92.2792 479.54C92.3691 472.441 92.0918 465.423 91.503 458.352C90.331 444.29 89.5929 430.194 89.1934 416.089C88.9926 409.04 88.876 401.987 88.8244 394.934C88.7976 391.299 88.7211 387.652 88.8244 384.018C88.9238 380.56 89.2202 377.104 89.1265 373.643C89.0194 369.706 88.0041 365.952 87.0979 362.137C86.2375 358.522 85.3428 354.917 84.4423 351.312C83.5265 347.646 82.4367 344.158 82.2971 340.345C82.1595 336.584 82.7502 332.849 84.0866 329.328C84.2644 328.85 81.9702 328.831 81.7637 329.374Z" fill="white"></path>
<path d="M98.7175 231.341C101.714 231.547 104.539 232.582 107.371 233.511C110.21 234.441 113.118 235.226 116.034 235.882C119.018 236.552 122.024 236.917 125.085 236.848C128.197 236.778 131.291 236.367 134.399 236.241C137.558 236.113 140.703 236.462 143.84 236.772C145.424 236.929 147.01 237.079 148.599 237.169C150.19 237.259 151.786 237.225 153.369 237.406C156.321 237.744 159.111 238.682 162.002 239.305C164.915 239.934 167.908 240.09 170.829 240.684C174.005 241.332 176.725 242.652 179.194 244.744C180.39 245.758 181.501 246.866 182.606 247.978C183.61 248.989 184.65 249.837 186.076 250.127C186.591 250.232 187.22 250.093 187.705 249.925C187.862 249.871 188.554 249.575 188.059 249.476C186.744 249.208 185.77 248.337 184.849 247.411C183.868 246.425 182.887 245.441 181.842 244.524C179.759 242.696 177.475 241.299 174.804 240.518C171.936 239.678 168.94 239.481 165.999 239.02C163.017 238.552 160.16 237.555 157.191 237.024C154.213 236.493 151.196 236.581 148.19 236.333C145.014 236.069 141.85 235.645 138.663 235.53C135.512 235.417 132.375 235.769 129.237 235.998C126.054 236.229 122.951 236.183 119.806 235.595C116.418 234.963 113.03 234.048 109.753 232.984C106.648 231.977 103.597 230.867 100.312 230.642C99.7805 230.605 99.1267 230.716 98.6468 230.951C98.2817 231.136 98.2644 231.31 98.7175 231.341Z" fill="white"></path>
<path d="M90.5657 366.855C90.2464 366.305 89.9271 365.753 89.6174 365.197C89.5409 365.061 89.4721 364.918 89.3918 364.784C89.2006 364.465 89.451 364.824 89.4051 365.025C89.105 365.191 88.8049 365.357 88.5066 365.524H88.5105C88.2275 365.399 87.9463 365.273 87.6634 365.149C87.564 365.067 87.3423 364.767 87.4359 364.918C87.5143 365.042 87.5965 365.166 87.6768 365.29C87.933 365.692 88.1815 366.099 88.4301 366.505C89.1738 367.72 89.906 368.943 90.6307 370.168C92.2405 372.892 93.9555 375.595 94.877 378.642C95.3034 380.056 95.6457 381.496 96.1084 382.898C96.5672 384.287 97.1676 385.625 97.6264 387.013C98.4466 389.508 98.9762 392.085 99.2458 394.697C99.8595 400.665 99.3451 406.564 98.2381 412.44C97.6818 415.392 97.1637 418.361 96.311 421.245C95.506 423.973 94.5024 426.638 93.6344 429.349C92.7816 432.014 91.9939 434.755 91.7072 437.548C91.5446 439.13 91.9021 440.718 91.6536 442.294C91.4433 443.623 90.906 444.877 90.7129 446.21C90.5294 447.477 90.3477 448.728 90.1125 449.989C89.9137 451.057 89.7991 452.117 89.9444 453.2C90.1298 454.57 90.8162 455.775 91.4089 457.002C92.0647 458.362 92.6936 459.735 93.3131 461.113C95.7221 466.487 97.9744 471.929 100.745 477.133C102.119 479.716 103.603 482.245 105.255 484.662C106.027 485.793 106.781 486.932 107.811 487.847C108.746 488.676 109.882 489.289 110.708 490.236C111.578 491.232 112.088 492.485 112.866 493.551C113.401 494.285 114.069 494.896 114.77 495.469C116.266 496.69 117.912 497.853 119.671 498.661C120.46 499.024 121.246 499.297 122.12 499.322C122.669 499.338 122.85 498.795 122.642 498.369C122.376 497.826 121.718 497.572 121.154 497.557C121.302 497.561 120.915 497.496 120.99 497.517C120.822 497.467 120.657 497.41 120.495 497.345C120.13 497.198 119.778 497.009 119.434 496.816C118.598 496.35 117.805 495.817 117.038 495.247C116.679 494.98 116.323 494.705 115.977 494.42C115.837 494.306 115.7 494.191 115.566 494.072C115.505 494.019 115.214 493.751 115.313 493.849C114.426 492.978 113.929 491.839 113.26 490.812C112.533 489.696 111.629 488.808 110.568 488.011C109.494 487.203 108.62 486.439 107.834 485.338C106.165 483.002 104.681 480.528 103.303 478.01C100.479 472.854 98.1942 467.446 95.8138 462.078C95.2001 460.694 94.5788 459.315 93.9345 457.947C93.3418 456.688 92.5426 455.429 92.231 454.064C91.9863 452.994 92.1201 451.914 92.3151 450.847C92.5446 449.595 92.7491 448.357 92.9154 447.096C93.0913 445.757 93.6229 444.502 93.8542 443.176C94.12 441.654 93.7911 440.129 93.9001 438.601C94.1046 435.76 94.9497 432.923 95.8215 430.226C96.6819 427.565 97.6512 424.942 98.4523 422.262C99.2973 419.434 99.8212 416.536 100.374 413.64C100.949 410.626 101.464 407.59 101.655 404.524C101.831 401.71 101.756 398.852 101.527 396.044C101.314 393.444 100.88 390.87 100.14 388.368C99.7409 387.017 99.2439 385.709 98.7277 384.398C98.1732 382.994 97.7965 381.531 97.3912 380.079C96.8482 378.134 96.1752 376.271 95.2097 374.498C94.5463 373.282 93.8503 372.082 93.1487 370.884C91.9442 368.829 90.7626 366.735 89.4338 364.754C89.0935 364.247 88.7322 363.9 88.0841 363.776C87.6806 363.699 87.2791 363.862 87.1854 364.272C87.1204 364.557 87.4015 364.95 87.5334 365.191C87.866 365.797 88.2141 366.393 88.5602 366.991C88.8412 367.478 89.4721 367.86 90.0475 367.803C90.5523 367.757 90.8372 367.325 90.5657 366.855Z" fill="white"></path>
<path d="M98.9863 230.346C99.4357 230.346 100.26 230.285 100.572 229.903C100.878 229.524 100.365 229.435 100.048 229.435C99.5983 229.435 98.7719 229.496 98.4621 229.878C98.1541 230.254 98.6668 230.346 98.9863 230.346Z" fill="white"></path>
<path d="M262.517 122.318C262.417 123.541 261.947 124.026 260.88 124.519C259.601 125.111 258.563 125.862 257.492 126.775C255.246 128.687 252.617 130.116 250.349 132.013C247.946 134.025 245.983 136.445 244.271 139.057C243.361 140.444 242.52 141.876 241.731 143.334C240.962 144.757 240.121 146.217 239.599 147.753C239.017 149.461 238.824 151.274 238.247 152.981C237.702 154.592 236.83 156.13 237.062 157.889C237.199 158.923 239.576 158.625 239.438 157.589C239.234 156.046 240.054 154.628 240.547 153.216C241.065 151.736 241.277 150.171 241.696 148.664C242.145 147.048 242.952 145.573 243.74 144.102C244.524 142.641 245.357 141.204 246.26 139.811C247.95 137.204 249.86 134.795 252.258 132.802C254.5 130.94 257.093 129.524 259.309 127.638C259.932 127.109 260.523 126.548 261.247 126.158C261.75 125.888 262.287 125.688 262.792 125.419C264.002 124.775 264.744 123.816 264.859 122.431C264.954 121.277 262.595 121.359 262.517 122.318Z" fill="white"></path>
<path d="M359.619 484.807C358.036 486.513 356.266 488.049 354.753 489.82C353.209 491.629 352.153 493.681 351.434 495.941C350.408 499.17 349.851 502.564 349.194 505.881C348.517 509.295 347.593 512.666 347.006 516.095C345.861 522.78 346.089 529.588 346.09 536.342C346.092 543.607 346.174 550.878 346.075 558.143C346.022 562.059 345.718 566.069 346.134 569.974C346.536 573.743 348.09 577.38 347.754 581.216C347.651 582.387 350.012 582.15 350.102 581.14C350.392 577.823 349.392 574.675 348.78 571.454C348.129 568.021 348.304 564.47 348.371 560.993C348.511 553.8 348.438 546.602 348.438 539.41C348.438 532.672 348.153 525.869 348.91 519.162C349.291 515.78 350.136 512.529 350.846 509.21C351.572 505.808 352.17 502.377 352.96 498.988C353.612 496.189 354.409 493.404 356.202 491.1C357.774 489.081 359.778 487.417 361.514 485.545C362.5 484.483 360.313 484.059 359.619 484.807Z" fill="white"></path>
<path d="M152.416 27.2216C150.488 23.0685 145.479 20.6824 141.017 20.9021C138.914 21.0053 136.782 21.7274 135.417 23.4047C134.442 24.6025 133.694 26.0945 133.046 27.4891C132.35 28.9868 131.817 30.5495 131.419 32.1523C129.865 38.4126 130.729 44.925 132.172 51.1185C132.918 54.3164 133.811 57.4762 134.652 60.6493C135.059 62.1814 135.453 63.7174 135.801 65.2648C136.126 66.7071 136.688 68.3385 136.373 69.8095C136.075 71.2041 135.438 72.4707 135.501 73.9302C135.564 75.4299 136.367 76.8149 137.509 77.772C138.616 78.7004 140.011 79.1054 141.437 78.8093C142.795 78.5266 144.108 77.4702 145.064 76.5016C145.942 75.6133 146.623 74.4918 146.976 73.2921C147.401 71.8422 147.345 70.3903 147.374 68.8945C147.447 65.0775 147.718 61.2663 147.827 57.4494C147.934 53.6382 147.892 49.8041 147.347 46.0235C147.106 44.3462 146.946 42.2906 146.066 40.8082C145.416 39.7135 144.284 38.9188 143.055 38.6113C141.785 38.2941 140.457 38.4393 139.275 38.9895C137.91 39.6238 136.914 41.0527 136.057 42.2524C134.291 44.7283 133.029 47.5289 132.299 50.4785C130.882 56.2001 132.008 62.1509 134.025 67.5993C135.92 72.7172 139.057 77.3001 143.334 80.7197C144.458 81.6175 145.638 82.4409 146.862 83.1974C147.363 83.5069 148.026 83.3235 148.261 82.781C148.512 82.2021 148.154 81.5239 147.655 81.2164C143.502 78.6546 140.074 75.1968 137.74 70.9023C136.604 68.8143 135.763 66.56 135.113 64.2771C134.419 61.8376 133.828 59.2547 133.765 56.7101C133.633 51.3477 135.753 45.8955 139.35 41.9372C140.162 41.0432 141.271 40.5828 142.497 40.7585C143.346 40.8808 144.173 41.3469 144.47 42.1856C145.026 43.7521 145.183 45.5899 145.374 47.2347C145.571 48.9292 145.674 50.6332 145.714 52.3392C145.797 55.7492 145.611 59.1611 145.449 62.5654C145.368 64.2656 145.29 65.9678 145.25 67.6699C145.215 69.0702 145.357 70.5527 145.032 71.9262C144.787 72.9578 144.263 73.8805 143.55 74.66C142.81 75.4681 141.617 76.4576 140.503 76.6047C139.363 76.7557 138.508 76.066 137.937 75.149C137.291 74.1136 137.847 72.7763 138.174 71.7199C138.365 71.0971 138.543 70.4591 138.617 69.8115C138.703 69.0645 138.573 68.3825 138.434 67.6527C138.172 66.2734 137.864 64.9057 137.53 63.5416C136.839 60.7162 136.054 57.9175 135.308 55.1073C133.847 49.594 132.488 43.8763 132.775 38.1299C132.918 35.2586 133.48 32.4312 134.564 29.7644C135.147 28.3316 135.86 26.9523 136.707 25.657C137.203 24.9005 137.772 24.3083 138.579 23.8823C141.772 22.2031 146.391 23.527 148.928 25.8309C149.54 26.3868 150.079 27.0325 150.431 27.7852C150.678 28.3144 151.213 28.79 151.84 28.6143C152.4 28.4557 152.655 27.7374 152.416 27.2216Z" fill="white"></path>
<path d="M240.298 98.1421C239.374 98.7898 238.183 99.1145 237.068 99.231C235.644 99.38 234.359 98.4917 233.046 98.0638C230.184 97.1334 227.188 97.2194 224.253 97.7027C221.406 98.1708 218.615 98.9998 215.726 99.1966C214.548 99.2768 213.363 99.2348 212.183 99.273C211.6 99.2921 211.015 99.317 210.434 99.3705C210.164 99.3953 209.847 99.3953 209.589 99.4717C209.325 99.552 209.64 99.4717 209.711 99.5271C209.403 99.2864 208.919 99.1432 208.575 98.9483C208.126 98.6942 207.684 98.4306 207.237 98.1765C206.428 97.718 205.572 97.1946 204.608 97.3417C203.99 97.4353 203.729 98.1727 203.914 98.6961C204.18 99.4469 204.879 100.012 205.497 100.473C206.354 101.111 207.273 101.671 208.208 102.188C208.917 102.582 209.642 102.97 210.399 103.264C211.684 103.762 213.091 103.724 214.449 103.671C215.921 103.613 217.473 103.499 218.93 103.747C219.641 103.868 220.31 103.965 221.033 103.938C221.823 103.91 222.525 104.112 223.301 104.206C224.025 104.293 224.74 104.374 225.463 104.483C226.272 104.605 227.023 104.523 227.832 104.532C228.623 104.542 229.44 104.781 230.197 104.995C230.956 105.21 231.675 105.34 232.457 105.442C234.16 105.661 235.795 106.527 237.537 106.011C237.921 105.896 238.277 105.709 238.669 105.614C239.07 105.514 239.485 105.484 239.89 105.396C240.598 105.243 241.286 104.826 242.02 104.88C242.628 104.926 243.121 104.343 243.074 103.764C243.018 103.1 242.393 102.719 241.791 102.675C241.15 102.628 240.54 102.815 239.94 103.014C239.324 103.218 238.718 103.308 238.085 103.438C237.403 103.577 236.787 103.976 236.08 103.978C235.378 103.978 234.686 103.711 234.013 103.539C233.317 103.361 232.621 103.306 231.914 103.199C231.17 103.086 230.461 102.811 229.729 102.639C229.036 102.477 228.316 102.333 227.603 102.33C226.811 102.328 226.096 102.393 225.308 102.255C224.637 102.139 223.962 102.116 223.291 102.014C222.54 101.902 221.832 101.709 221.066 101.724C219.678 101.753 218.334 101.428 216.938 101.43C215.479 101.43 214.011 101.544 212.556 101.491C212.256 101.48 211.959 101.455 211.665 101.397C211.548 101.374 211.109 101.25 211.227 101.292C211.397 101.353 211.049 101.212 210.998 101.191C210.789 101.099 210.585 101.002 210.382 100.901C209.457 100.446 208.548 99.9398 207.682 99.38C207.302 99.1336 206.931 98.8738 206.583 98.5834C206.428 98.4535 206.285 98.3159 206.139 98.1765C206.199 98.2338 206.262 98.2319 206.134 98.1536C205.975 98.0561 206.166 98.2568 206.116 98.1173C205.885 98.5681 205.654 99.0209 205.422 99.4717C205.287 99.4755 205.151 99.4775 205.015 99.4813C205.042 99.487 205.069 99.4947 205.095 99.5004C205.126 99.445 205.235 99.5921 205.084 99.4928C205.226 99.5845 205.409 99.6417 205.56 99.7182C206 99.9417 206.424 100.194 206.851 100.442C207.587 100.868 208.344 101.38 209.172 101.611C210.017 101.848 211.087 101.535 211.955 101.499C213.196 101.447 214.441 101.491 215.682 101.424C221.435 101.113 227.224 98.2166 232.942 100.301C234.525 100.878 235.849 101.623 237.592 101.405C238.982 101.233 240.479 100.87 241.64 100.054C242.861 99.1947 241.424 97.3512 240.298 98.1421Z" fill="white"></path>
<path d="M210.184 103.803C211.182 104.372 211.818 105.496 212.358 106.464C213.015 107.645 213.661 108.703 214.552 109.731C215.445 110.764 216.384 111.685 217.694 112.167C219.072 112.673 220.562 112.986 222.001 113.267C225.074 113.865 228.138 113.859 231.253 113.955C234.05 114.041 237.149 114.4 239.839 113.464C241.168 113 242.663 112.551 243.833 111.76C245.17 110.854 246.038 109.59 247.099 108.411C247.886 107.536 246.244 105.796 245.472 106.655C244.594 107.632 243.864 108.675 242.843 109.523C241.849 110.35 240.677 110.615 239.508 111.106C236.952 112.182 234.14 111.953 231.419 111.869C228.481 111.779 225.55 111.834 222.642 111.345C221.21 111.105 219.793 110.772 218.397 110.375C217.105 110.006 216.413 109.221 215.566 108.226C214.694 107.2 214.201 105.971 213.476 104.848C212.688 103.629 211.744 102.615 210.476 101.893C210.01 101.627 209.407 101.864 209.304 102.391C209.178 103.005 209.706 103.53 210.184 103.803Z" fill="white"></path>
<path d="M395.26 361.514C395.325 361.812 395.388 362.108 395.453 362.404C395.529 362.761 395.885 362.908 396.201 362.981C399.264 363.688 402.212 365.136 405.368 365.394C408.366 365.638 411.36 365.279 414.362 365.579C417.207 365.863 420.044 366.37 422.797 367.14C425.336 367.85 427.709 368.851 430.087 369.975C431.737 370.754 433.468 371.428 434.917 372.565C435.932 373.362 437.205 375.024 436.083 376.244C435.284 377.116 433.335 377.144 432.035 377.158C430.426 377.175 428.829 376.995 427.223 376.946C423.814 376.84 420.399 376.984 416.991 376.938C413.501 376.89 410.155 375.624 406.645 375.759C405.584 375.799 404.71 377.144 406.108 377.484C410.675 378.594 415.239 379.618 419.956 379.769C422.124 379.838 424.283 379.662 426.449 379.622C428.445 379.586 430.535 379.649 432.404 380.422C434.746 381.393 436.92 383.546 438.234 385.687C438.75 386.528 439.312 387.67 439.022 388.683C438.651 389.978 436.859 390.301 435.737 390.44C433.454 390.721 431.175 390.118 428.997 389.495C426.755 388.855 424.543 388.228 422.201 388.102C421.673 388.074 420.426 388.803 421.009 389.46C422.621 391.275 424.575 392.811 426.629 394.097C428.615 395.341 430.724 396.309 432.544 397.812C434.442 399.383 436.192 401.333 436.934 403.725C437.674 406.115 437.345 408.568 436.24 410.788C435.643 411.986 437.976 412.098 438.45 411.145C439.589 408.856 440.031 406.266 439.425 403.758C438.8 401.171 437.165 399.085 435.257 397.295C433.466 395.614 431.378 394.468 429.256 393.272C427.036 392.02 424.847 390.397 423.151 388.486C422.753 388.939 422.357 389.392 421.96 389.844C426.451 390.085 430.527 392.563 435.102 392.217C438.129 391.988 442.371 390.431 441.255 386.62C440.446 383.861 437.943 381.443 435.624 379.874C432.07 377.471 427.636 377.828 423.552 377.994C417.862 378.226 412.437 377.108 406.938 375.773C406.758 376.348 406.578 376.923 406.401 377.498C409.695 377.372 412.884 378.506 416.163 378.659C419.602 378.82 423.078 378.655 426.521 378.68C429.804 378.703 434.131 379.691 437.207 377.691C438.729 376.701 439.261 374.858 438.452 373.222C437.548 371.396 435.469 370.32 433.72 369.465C431.689 368.471 429.63 367.461 427.514 366.668C424.657 365.6 421.673 364.841 418.667 364.335C415.153 363.743 411.698 363.64 408.144 363.714C406.192 363.754 404.412 363.462 402.548 362.893C400.715 362.331 398.902 361.703 397.032 361.271C397.281 361.464 397.529 361.655 397.78 361.848C397.715 361.552 397.652 361.254 397.587 360.958C397.35 359.852 395.017 360.396 395.26 361.514Z" fill="white"></path>
<path d="M313.716 37.8945C314.297 53.0208 316.222 68.1299 320.381 82.7118C323.375 93.2112 327.608 103.264 332.651 112.936C336.773 120.841 341.412 128.48 345.285 136.516C349.103 144.434 352.065 152.864 352.973 161.652C353.828 169.932 351.145 178.194 345.086 183.998C339.486 189.36 332.177 192.503 324.765 194.455C322.952 194.933 321.121 195.34 319.279 195.691C318.715 195.798 318.126 196.155 318.178 196.811C318.222 197.388 318.91 197.819 319.463 197.714C327.219 196.238 334.978 193.88 341.612 189.484C344.922 187.291 348.027 184.603 350.323 181.346C352.753 177.898 354.428 173.909 355.124 169.746C356.11 163.838 355.086 157.799 353.627 152.054C352.554 147.827 351.092 143.714 349.35 139.717C345.815 131.6 341.251 123.987 337.041 116.214C331.982 106.872 327.495 97.2536 324.206 87.1382C319.696 73.2651 317.379 58.7729 316.436 44.2407C316.295 42.0553 316.184 39.8698 316.1 37.6825C316.05 36.3509 313.664 36.5592 313.716 37.8945Z" fill="white"></path>
<path d="M113.482 0.791529C106.93 12.7466 106.354 26.8528 105.863 40.1662C105.582 47.7847 105.272 55.3881 105.307 63.0123C105.345 71.2155 105.595 79.4148 105.699 87.616C105.802 95.8 105.762 103.992 105.219 112.16C104.681 120.247 103.832 128.316 102.804 136.355C100.737 152.509 97.8157 168.543 94.3245 184.447C93.4565 188.405 92.6306 192.39 91.5962 196.31C90.6422 199.931 89.2733 203.419 87.9082 206.898C86.6865 210.014 85.5833 213.147 84.5451 216.325C83.7937 218.625 82.943 220.969 81.6371 223.021C81.2241 223.669 80.6601 224.662 79.8514 224.848C79.404 224.951 78.643 225.361 78.5513 225.868C78.4576 226.391 78.9204 226.45 79.3391 226.355C81.5951 225.837 83.0959 223.768 84.1321 221.848C85.2678 219.745 86.1014 217.487 86.8203 215.212C89.0611 208.124 92.3764 201.396 94.0875 194.142C97.8521 178.183 101.068 162.082 103.505 145.865C105.962 129.512 107.746 113.007 107.882 96.4591C108.02 79.772 106.987 63.0869 107.735 46.4055C108.35 32.6909 107.976 18.2695 113.176 5.30767C113.815 3.71442 114.545 2.16316 115.371 0.657789C116.017 -0.522821 113.853 0.115257 113.482 0.791529Z" fill="white"></path>
<path d="M317.18 37.1213C318.434 42.1112 319.855 47.0628 320.948 52.0909C322.055 57.1725 322.606 62.3305 323.283 67.4809C324.613 77.5906 326.387 87.5494 329.246 97.3496C332.014 106.836 335.479 116.098 339.381 125.174C341.331 129.711 343.39 134.199 345.526 138.654C347.583 142.948 349.646 147.216 351.288 151.692C352.898 156.078 354.158 160.581 355.095 165.158C355.592 167.592 356.034 170.026 356.146 172.511C356.261 175.014 356.162 177.52 356.083 180.021C356.045 181.257 356.013 182.493 356.011 183.729C356.601 184.57 357.194 185.41 357.787 186.251C357.787 185.956 357.787 185.662 357.787 185.37C357.787 184.753 357.284 184.065 356.942 183.584C356.869 183.483 356.011 182.499 356.011 182.85C356.011 183.144 356.011 183.437 356.011 183.729C356.011 184.346 356.513 185.036 356.856 185.517C356.926 185.618 357.787 186.604 357.787 186.251C357.798 181.28 358.326 176.269 357.571 171.325C356.863 166.696 355.732 162.111 354.332 157.645C351.424 148.36 346.765 139.821 342.794 130.976C338.754 121.978 335.119 112.791 332.158 103.381C329.087 93.63 326.978 83.7152 325.558 73.5998C324.839 68.4724 324.359 63.2934 323.464 58.1927C322.566 53.069 321.197 48.0467 319.879 43.0205C319.554 41.7788 319.231 40.5351 318.918 39.2876C318.744 38.5942 318.31 37.9236 317.862 37.3716C317.742 37.2225 317.017 36.4756 317.18 37.1213Z" fill="white"></path>
</svg>