<svg width="444" height="580" viewBox="0 0 444 580" fill="none" xmlns="http://www.w3.org/2000/svg">
<path d="M279.334 69.6562C280.3 68.119 281.483 66.7343 282.941 65.6434C284.348 64.5925 285.944 63.902 287.526 63.1639C289.065 62.4468 290.737 61.6438 292.48 62.0119C294.283 62.3915 295.49 63.8887 296.52 65.3058C300.565 70.8558 301.548 77.9774 301.997 84.6508C302.222 88.0094 302.338 91.3775 302.495 94.7419C302.689 98.8767 302.077 103.036 301.357 107.097C300.664 111.009 298.668 114.585 298.202 118.538C297.973 120.467 298.105 122.523 296.748 124.088C295.618 125.393 293.938 126.129 292.516 127.056C290.928 128.09 289.643 129.534 288.028 130.525C286.411 131.519 284.505 131.948 282.861 132.911C281.26 133.848 279.674 134.956 278.408 136.321C277.11 137.721 276.402 139.411 275.755 141.179C275.035 143.147 273.982 144.957 273.111 146.857C272.207 148.831 271.374 150.83 270.441 152.79C269.536 154.69 268.75 156.63 267.893 158.548C267.081 160.366 265.864 161.981 265.138 163.833C264.438 165.622 264.102 167.529 263.401 169.318C262.609 171.344 261.319 173.209 260.25 175.097C258.137 178.833 256.207 182.669 253.818 186.241C251.611 189.539 249.319 192.897 246.707 195.89C244.159 198.812 240.911 200.799 237.952 203.254C234.694 205.954 231.558 208.729 228.047 211.111C224.528 213.499 220.876 215.692 217.45 218.22C214.031 220.741 210.51 223.27 206.77 225.299C205.032 226.243 203.188 227.008 201.306 227.618C199.429 228.227 197.488 228.572 195.629 229.245C193.734 229.932 191.911 230.845 189.964 231.387C189.582 231.494 188.492 231.751 188.429 232.251C188.393 232.537 188.357 232.825 188.32 233.111C188.313 233.176 190.395 232.911 190.477 232.264C190.514 231.978 190.55 231.69 190.586 231.404C190.075 231.692 189.563 231.98 189.051 232.268C191.193 231.671 193.199 230.763 195.272 229.978C197.154 229.264 199.153 228.933 201.065 228.305C205.119 226.976 208.733 224.996 212.31 222.702C216.051 220.3 219.555 217.575 223.262 215.124C227.017 212.641 230.87 210.293 234.379 207.463C236.02 206.139 237.599 204.741 239.212 203.381C240.91 201.949 242.709 200.685 244.476 199.346C247.446 197.097 249.738 194.259 251.916 191.267C254.474 187.754 257.02 184.225 259.095 180.397C260.204 178.349 261.321 176.304 262.468 174.279C263.558 172.353 264.865 170.457 265.639 168.374C266.373 166.396 266.707 164.281 267.614 162.364C268.471 160.553 269.614 158.92 270.372 157.053C271.21 154.985 272.17 152.979 273.125 150.961C274.11 148.878 274.946 146.729 275.978 144.671C276.433 143.763 276.902 142.863 277.314 141.934C277.757 140.935 278.08 139.89 278.507 138.883C279.338 136.92 280.607 135.412 282.315 134.149C283.081 133.583 283.886 133.026 284.743 132.61C285.734 132.131 286.786 131.788 287.788 131.334C289.58 130.522 291.036 129.33 292.535 128.08C295.301 125.771 299.46 124.619 300.088 120.585C300.221 119.723 300.235 118.849 300.328 117.983C300.45 116.833 300.718 115.706 301.048 114.598C301.641 112.616 302.441 110.7 302.993 108.705C303.552 106.681 303.833 104.56 304.117 102.485C304.404 100.403 304.621 98.3064 304.673 96.2028C304.76 92.6019 304.447 88.9383 304.247 85.3412C303.856 78.3417 303.073 70.7871 298.962 64.8652C298.011 63.4958 296.879 61.9623 295.289 61.3063C293.762 60.675 292.046 60.9439 290.51 61.3959C288.605 61.9566 286.824 62.8645 285.03 63.6998C283.43 64.4456 281.903 65.3267 280.544 66.4558C279.215 67.5582 278.116 68.8856 277.2 70.3446C277.017 70.6383 278.028 70.3847 278.08 70.3694C278.477 70.2378 279.097 70.0338 279.334 69.6562Z" fill="white"></path>
<path d="M277.881 67.869C274.268 68.4068 272.55 72.5379 271.544 75.578C270.231 79.5431 269.622 83.8019 269.387 87.9559C269.059 93.7615 270.114 99.5786 272.157 105.014C273.464 108.493 275.646 114.203 280.309 113.606C283.829 113.156 286.698 109.775 288.496 106.984C291.168 102.834 291.327 97.7227 292.073 92.9795C292.315 91.4461 292.487 89.9051 292.697 88.3679C292.861 87.1663 293.144 86.0582 293.481 84.8948C293.775 83.8821 294.081 82.7968 293.942 81.7345C293.837 80.9277 293.671 79.955 293.111 79.3256C292.487 78.6219 291.521 78.4617 290.632 78.374C289.59 78.271 288.509 78.3816 287.595 78.9232C285.617 80.0943 284.938 82.6805 284.291 84.7327C283.487 87.2845 283.041 89.8211 283.046 92.5027C283.048 93.9502 283.123 95.3959 283.111 96.8435C283.1 98.3426 282.957 99.8036 283.098 101.303C283.233 102.75 283.497 104.247 283.256 105.699C283.033 107.038 282.504 108.317 281.979 109.561C281.054 111.749 280.303 114.033 279.238 116.158C278.761 117.11 278.221 118.044 277.435 118.777C276.482 119.663 278.034 121.384 278.988 120.495C280.559 119.03 281.424 116.963 282.203 115.006C283.048 112.883 283.991 110.78 284.757 108.626C285.178 107.444 285.455 106.241 285.482 104.98C285.511 103.603 285.272 102.237 285.178 100.868C285.087 99.5252 285.251 98.1862 285.253 96.8416C285.253 95.4875 285.19 94.1334 285.188 92.7792C285.184 90.359 285.593 88.0951 286.303 85.7855C286.629 84.7231 286.988 83.6627 287.442 82.648C287.797 81.8546 288.269 81.0937 289.093 80.7294C289.88 80.3823 290.802 80.5025 291.605 80.6722C291.792 80.7123 291.571 80.7179 291.731 80.7313C291.521 80.7141 291.666 80.4929 291.601 80.6398C291.546 80.7637 291.817 81.4866 291.84 81.7269C291.924 82.608 291.55 83.5731 291.305 84.4028C291.008 85.406 290.779 86.3729 290.636 87.4104C290.246 90.2236 289.847 93.0367 289.46 95.8499C289.118 98.3292 288.805 100.976 287.885 103.305C286.803 106.046 284.591 108.846 282.111 110.473C281.08 111.15 279.715 111.756 278.49 111.35C276.873 110.812 275.997 108.684 275.314 107.288C274.23 105.067 273.453 102.706 272.825 100.32C272.145 97.7381 271.636 95.127 271.504 92.4569C271.288 88.0512 271.798 83.5444 272.825 79.2551C273.518 76.3599 274.474 72.6924 276.904 70.7337C277.366 70.3618 277.895 70.1138 278.481 70.026C279.88 69.8162 279.13 67.6821 277.881 67.869Z" fill="white"></path>
<path d="M274.602 195.024C259.122 204.709 243.99 216.114 226.551 222.049C218.208 224.889 209.514 226.835 200.859 228.456C198.527 228.893 196.168 229.051 193.806 229.259C191.237 229.486 188.704 229.903 186.122 229.951C181.564 230.035 177.017 229.509 172.459 229.621C167.515 229.743 162.554 230.497 157.626 230.903C152.694 231.311 147.758 231.666 142.823 232.024C138.132 232.366 133.438 232.711 128.75 233.109C123.992 233.514 119.191 233.804 114.517 234.814C105.383 236.79 97.0591 240.553 88.735 244.677C80.5082 248.751 72.8007 253.557 65.0645 258.481C57.6489 263.204 50.43 268.202 44.3697 274.62C39.0252 280.283 34.4403 286.632 30.682 293.448C23.2092 307.003 18.9545 322.04 16.3586 337.229C14.9862 345.252 13.9498 353.389 13.4173 361.514C12.7759 371.294 13.1385 381.101 13.7684 390.873C14.4021 400.718 15.5913 410.594 15.7937 420.458C15.8967 425.486 15.1886 430.372 14.7457 435.363C14.3029 440.36 13.9441 445.363 13.6406 450.371C12.4514 469.979 12.4266 489.717 10.4968 509.274C8.5804 528.707 4.34102 547.81 1.90354 567.172C1.61913 569.43 1.16297 571.497 0.599884 573.692C0.136055 575.5 -0.129274 577.261 0.063511 579.128C0.204759 580.501 2.41892 579.836 2.28531 578.529C2.04862 576.218 2.79113 574.024 3.40384 571.831C3.99937 569.699 4.11007 567.454 4.3983 565.261C5.01674 560.569 5.73251 555.892 6.48647 551.221C8.03257 541.662 9.74477 532.128 11.1172 522.541C13.8734 503.289 14.2666 483.836 15.156 464.435C15.6027 454.718 16.141 445.001 16.9999 435.31C17.4427 430.319 18.1509 425.434 18.0478 420.405C17.9543 415.843 17.502 411.298 17.1756 406.749C16.4694 396.892 15.6123 387.04 15.3871 377.155C15.1771 367.933 15.7364 358.792 16.8243 349.637C20.5541 318.265 30.3517 285.678 57.0991 266.305C64.4746 260.963 72.3502 255.964 80.2601 251.451C88.2177 246.91 96.6602 242.554 105.332 239.565C109.819 238.019 114.518 236.647 119.248 236.111C124.079 235.564 128.937 235.19 133.784 234.813C143.413 234.061 153.054 233.457 162.675 232.575C167.307 232.15 171.86 231.624 176.521 231.786C181.266 231.952 185.95 232.308 190.678 231.69C195.133 231.109 199.537 230.857 203.952 229.957C208.302 229.07 212.646 228.139 216.948 227.039C225.108 224.954 233.131 222.223 240.6 218.296C248.756 214.009 256.553 209.014 264.301 204.038C268.059 201.623 271.814 199.201 275.601 196.832C276.841 196.06 275.856 194.24 274.602 195.024Z" fill="white"></path>
<path d="M166.557 408.599C159.806 418.259 153.786 428.417 148.476 438.935C143.188 449.406 138.603 460.224 134.612 471.251C130.632 482.243 127.241 493.44 124.288 504.748C121.31 516.155 118.779 527.676 116.542 539.251C114.309 550.8 112.368 562.401 110.566 574.024C110.341 575.475 110.119 576.925 109.898 578.376C109.751 579.343 111.974 579.965 112.11 579.065C113.879 567.44 115.769 555.833 117.932 544.273C120.09 532.729 122.522 521.23 125.378 509.836C128.208 498.542 131.457 487.346 135.269 476.34C139.09 465.308 143.478 454.469 148.552 443.953C153.667 433.351 159.483 423.084 166.05 413.31C166.882 412.072 167.725 410.84 168.581 409.617C169.188 408.747 167.069 407.866 166.557 408.599Z" fill="white"></path>
<path d="M340.387 215.065C339.392 223.838 337.48 232.644 338.904 241.486C340.18 249.414 342.778 257.112 346.265 264.332C353.727 279.781 365.042 292.836 376.409 305.517C388.213 318.686 400.503 331.431 411.671 345.157C414.565 348.714 417.418 352.299 419.951 356.123C422.457 359.907 424.748 363.83 426.953 367.796C429.073 371.61 431.164 375.444 433.256 379.273C434.401 381.371 435.176 383.738 435.996 385.981C436.794 388.157 437.523 390.364 438.079 392.616C439.201 397.169 439.43 401.983 439.89 406.638C440.341 411.208 440.736 415.781 441.053 420.361C441.692 429.603 442.003 438.872 441.816 448.138C441.767 450.583 441.681 453.028 441.56 455.471C441.532 456.047 441.835 456.619 442.381 456.861C442.78 457.039 443.502 456.989 443.53 456.402C444.441 437.81 443.227 419.237 441.224 400.754C440.736 396.242 439.982 391.958 438.505 387.652C437.737 385.413 436.869 383.212 435.987 381.017C435.162 378.964 434.021 377.084 432.96 375.146C428.644 367.263 424.424 359.316 419.182 351.994C414.028 344.796 408.098 338.071 402.24 331.442C396.386 324.816 390.373 318.33 384.408 311.803C372.679 298.969 360.61 286.052 351.791 270.973C347.749 264.062 344.471 256.715 342.427 248.962C341.286 244.633 340.436 240.231 340.377 235.743C340.318 231.297 340.898 226.88 341.507 222.486C341.807 220.323 342.11 218.16 342.356 215.99C342.475 214.941 340.534 213.764 340.387 215.065Z" fill="white"></path>
<path d="M96.8662 155.277C98.3111 166.188 103.373 175.949 108.998 185.251C115.158 195.436 121.798 205.355 127.147 216.007C130.155 221.998 132.726 228.207 134.58 234.654C134.727 235.165 135.229 235.598 135.719 235.773C136.019 235.882 136.675 235.928 136.523 235.4C133.22 223.916 127.685 213.303 121.564 203.097C118.487 197.967 115.276 192.918 112.148 187.818C109.29 183.159 106.481 178.454 104.148 173.506C101.531 167.958 99.6167 162.118 98.8093 156.025C98.7158 155.309 96.7288 154.239 96.8662 155.277Z" fill="white"></path>
<path d="M118.559 177.504C124.1 177.492 129.716 176.735 135.221 177.656C137.597 178.053 139.861 178.917 142.22 179.407C144.56 179.894 146.925 180.26 149.256 180.801C151.648 181.356 154.209 182.062 156.168 183.611C155.969 183.264 155.772 182.916 155.574 182.567C152.537 182.497 149.5 182.482 146.463 182.485C143.48 182.489 140.479 182.411 137.498 182.529C134.961 182.628 132.337 182.991 129.903 182.07C127.439 181.139 125.293 179.516 123.159 178.011C123.089 177.961 122.373 177.506 122.287 177.736C121.377 180.204 121.632 183.233 121.886 185.8C122.173 188.695 123.406 191.007 125.711 192.805C128.05 194.631 130.951 195.851 133.637 197.072C137.101 198.649 140.865 199.54 144.66 199.776C146.643 199.9 148.739 200.123 150.712 199.818C152.715 199.509 154.516 198.474 156.576 198.46C156.977 198.457 156.269 197.675 156.215 197.621C155.904 197.318 155.419 196.91 154.955 196.914C153.323 196.925 151.861 197.56 150.317 197.997C148.71 198.453 147.07 198.424 145.416 198.346C141.936 198.182 138.536 197.819 135.223 196.679C133.661 196.141 132.195 195.426 130.712 194.711C129.55 194.15 128.37 193.624 127.252 192.981C126.357 192.468 125.532 191.869 124.948 191.005C124.236 189.95 123.929 188.716 123.786 187.467C123.629 186.092 123.56 184.702 123.574 183.319C123.585 181.955 123.616 180.485 124.093 179.192C123.803 179.1 123.513 179.009 123.22 178.917C126.565 181.276 130.134 183.994 134.377 184.204C136.565 184.313 138.76 184.053 140.949 184.049C143.48 184.047 146.011 184.032 148.542 184.03C151.426 184.028 154.312 184.045 157.196 184.112C157.641 184.122 156.62 183.082 156.603 183.069C152.621 179.918 147.521 179.142 142.671 178.225C141.461 177.996 140.252 177.757 139.057 177.46C137.83 177.153 136.643 176.716 135.412 176.426C132.604 175.766 129.685 175.644 126.811 175.667C123.518 175.694 120.231 175.944 116.939 175.951C116.538 175.953 117.246 176.739 117.3 176.79C117.611 177.099 118.094 177.504 118.559 177.504Z" fill="white"></path>
<path d="M154.749 183.548C159.118 183.548 163.489 183.548 167.859 183.548C168.023 183.548 168.798 183.594 168.689 183.296C168.591 183.026 167.473 183.01 167.282 183.01C162.913 183.01 158.542 183.01 154.173 183.01C154.009 183.01 153.234 182.965 153.342 183.262C153.438 183.533 154.556 183.548 154.749 183.548Z" fill="white"></path>
<path d="M402.592 420.805C401.463 425.824 400.563 430.89 399.664 435.956C398.73 441.222 397.738 446.472 396.877 451.75C395.197 462.06 392.952 472.264 390.727 482.465C388.52 492.587 386.339 502.726 384.8 512.975C384.04 518.031 383.437 523.114 383.052 528.212C382.951 529.549 382.865 530.888 382.796 532.227C382.735 533.413 382.743 534.548 382.323 535.673C381.966 536.632 381.567 537.529 381.49 538.563C381.391 539.884 381.273 541.208 381.173 542.53C380.374 553.117 380.267 563.74 380.36 574.352C380.372 575.624 380.385 576.896 380.4 578.168C380.406 578.672 380.729 579.242 381.032 579.625C381.154 579.78 381.634 580.285 381.628 579.782C381.504 569.282 381.498 558.775 382.122 548.291C382.28 545.625 382.494 542.963 382.716 540.3C382.807 539.203 383.292 538.273 383.638 537.245C383.991 536.188 383.962 535.09 384.017 533.989C384.287 528.712 384.808 523.45 385.518 518.212C386.898 508.039 388.973 497.977 391.143 487.949C393.346 477.768 395.644 467.604 397.446 457.343C397.906 454.723 398.306 452.095 398.721 449.468C399.133 446.857 399.711 444.265 400.181 441.664C401.099 436.564 401.96 431.453 402.998 426.376C403.25 425.147 403.514 423.923 403.788 422.7C403.888 422.256 403.559 421.691 403.33 421.331C403.279 421.249 402.672 420.446 402.592 420.805Z" fill="white"></path>
<path d="M163.683 9.70008C162.601 8.22007 161.883 6.57029 160.068 5.87224C159.449 5.63384 158.451 5.92188 158.201 6.59513C157.187 9.33582 157.42 12.2767 157.915 15.0994C158.417 17.9641 159.222 20.7658 159.755 23.6267C160.999 30.3172 162.041 37.0441 163.423 43.7098C164.746 50.0819 166.233 56.6637 168.953 62.6085C171.35 67.8477 174.885 72.4917 178.951 76.5484C183.229 80.8167 187.991 84.5912 193.307 87.4844C198.718 90.4311 204.523 92.55 210.331 94.5621C216.287 96.6258 222.207 98.7085 228.008 101.18C233.761 103.629 239.466 106.223 245.433 108.117C251.436 110.024 257.875 111.264 264.2 111.02C267.138 110.905 269.776 109.965 271.998 108.027C273.544 106.677 275.363 104.583 274.975 102.361C274.771 101.192 273.939 100.398 272.98 99.7747C272.228 99.2845 270.346 100.505 271.377 101.176C272.272 101.76 272.908 102.614 272.793 103.719C272.69 104.72 272.047 105.624 271.402 106.36C269.753 108.243 267.609 109.294 265.105 109.425C259.016 109.744 252.748 108.51 246.968 106.694C241.236 104.894 235.75 102.405 230.234 100.045C224.706 97.6805 219.089 95.6284 213.404 93.6696C207.833 91.7491 202.248 89.7961 196.968 87.1584C191.684 84.5169 186.987 81.1047 182.667 77.09C178.615 73.3232 174.966 69.0701 172.32 64.1914C169.402 58.8054 167.815 52.7233 166.439 46.79C164.973 40.4656 163.914 34.0572 162.792 27.6661C162.278 24.7385 161.776 21.8071 161.089 18.9139C160.432 16.1503 159.717 13.3486 159.703 10.4915C159.698 9.14504 159.86 7.81963 160.329 6.55323C159.707 6.79354 159.085 7.03569 158.463 7.276C160.098 7.90539 160.761 9.53225 161.736 10.8673C162.272 11.5978 164.33 10.5869 163.683 9.70008Z" fill="white"></path>
<path d="M161.763 0.105138C164.248 9.48679 167.888 18.5404 172.471 27.0924C177.075 35.6864 182.632 43.7597 188.91 51.2151C195.21 58.699 202.256 65.5593 209.864 71.7101C213.659 74.7769 217.594 77.672 221.66 80.3688C226.033 83.2716 230.566 85.938 235.075 88.6215C239.896 91.4918 244.876 94.2879 250.23 96.0444C255.611 97.8105 261.349 97.5779 266.932 97.4157C268.335 97.3757 269.738 97.3413 271.141 97.3375C271.481 97.3375 270.711 96.6281 270.673 96.5956C270.349 96.3286 269.847 95.9319 269.396 95.9319C263.844 95.9414 258.219 96.5403 252.704 95.6286C247.293 94.7322 242.227 92.0716 237.514 89.3767C228.965 84.4866 220.507 79.3333 212.735 73.2683C205.294 67.4608 198.404 60.9572 192.196 53.8471C185.97 46.7159 180.436 38.9802 175.771 30.7429C171.093 22.4846 167.304 13.7189 164.613 4.61571C164.285 3.5057 163.973 2.39004 163.678 1.2705C163.567 0.854722 162.964 0.499932 162.622 0.293951C162.538 0.246271 161.683 -0.198111 161.763 0.105138Z" fill="white"></path>
<path d="M117.991 177.771C119.541 177.777 120.778 177.246 121.824 176.106C122.74 175.108 123.355 173.878 124.256 172.867C125.42 171.561 127.031 171.185 128.722 171.052C130.942 170.876 133.168 171.168 135.387 171.223C137.224 171.269 138.986 171.307 140.78 171.757C142.473 172.181 144.093 172.881 145.639 173.686C148.783 175.322 151.631 177.462 154.622 179.35C158.064 181.522 161.728 183.388 165.804 183.967C167.019 184.141 166.244 182.018 165.317 181.887C158.071 180.855 152.597 175.597 146.414 172.171C143.33 170.462 139.934 169.213 136.374 169.152C134.269 169.116 132.169 168.958 130.064 168.923C128.142 168.893 125.97 168.921 124.248 169.898C121.652 171.37 120.915 175.701 117.504 175.69C116.25 175.684 117.052 177.767 117.991 177.771Z" fill="white"></path>
<path d="M298.478 150.929C295.615 158.744 293.64 166.821 291.584 174.876C289.492 183.075 287.085 191.114 283.92 198.968C280.836 206.627 277.364 214.13 274.504 221.879C271.798 229.218 269.11 236.536 266.138 243.776C260.276 258.059 254.069 272.341 250.645 287.452C248.992 294.749 248.45 302.099 247.73 309.522C247.091 316.121 246.339 322.71 245.837 329.321C244.892 341.768 244.869 354.487 248.622 366.518C250.542 372.676 253.468 378.516 257.217 383.767C261.718 390.07 267.45 395.357 272.804 400.914C282.355 410.83 291.777 420.933 300.885 431.257C309.629 441.165 318.001 451.502 324.856 462.825C331.258 473.403 336.318 485.019 337.961 497.351C339.7 510.405 337.201 523.469 331.422 535.256C329.774 538.612 327.889 541.84 325.842 544.967C325.254 545.866 327.074 547.252 327.749 546.219C335.132 534.93 340.122 522.094 340.536 508.507C340.902 496.493 337.801 484.701 332.765 473.858C321.889 450.437 303.521 431.255 286.108 412.577C280.872 406.962 275.638 401.353 270.28 395.853C264.936 390.365 259.675 384.999 255.781 378.341C249.146 366.994 247.146 353.907 247.341 340.936C247.539 327.593 249.299 314.212 250.589 300.94C252.122 285.171 257.77 270.178 263.697 255.609C266.65 248.35 269.721 241.137 272.527 233.819C275.388 226.357 277.986 218.833 281.107 211.47C284.34 203.839 287.656 196.237 290.12 188.314C292.594 180.359 294.378 172.215 296.587 164.188C297.701 160.137 298.938 156.124 300.383 152.18C300.759 151.157 298.892 149.798 298.478 150.929Z" fill="white"></path>
<path d="M443.332 449.429C443.894 449.429 443.844 448.599 443.722 448.258C443.54 447.751 443.099 447.302 442.539 447.302C441.976 447.302 442.027 448.132 442.149 448.474C442.331 448.981 442.772 449.429 443.332 449.429Z" fill="white"></path>
<path d="M442.136 449C442.654 449 443.217 448.719 443.609 448.395C443.769 448.262 444.256 447.729 443.731 447.729C443.213 447.729 442.65 448.01 442.258 448.336C442.098 448.468 441.611 449 442.136 449Z" fill="white"></path>
<path d="M441.964 450.283C441.83 454.637 441.92 458.995 441.797 463.35C441.677 467.648 441.446 472.098 440.381 476.283C438.251 484.646 435.289 492.807 432.538 500.979C429.77 509.205 427.591 517.578 425.397 525.971C424.311 530.127 423.197 534.277 421.944 538.386C420.654 542.622 419.106 546.76 417.673 550.947C414.55 560.071 411.773 569.311 408.486 578.38C408.362 578.723 410.408 579.689 410.417 579.658C413.34 571.592 415.857 563.387 418.579 555.253C419.969 551.101 421.521 547.002 422.874 542.839C424.224 538.693 425.405 534.493 426.529 530.28C428.753 521.934 430.761 513.521 433.451 505.307C436.144 497.079 439.083 488.935 441.465 480.608C442.153 478.207 442.733 475.829 443.073 473.349C443.401 470.956 443.58 468.543 443.678 466.128C443.874 461.275 443.746 456.417 443.895 451.563C443.903 451.309 443.185 450.928 443.006 450.81C442.931 450.758 441.965 450.245 441.964 450.283Z" fill="white"></path>
<path d="M342.092 30.5103C344.583 42.9626 347.408 55.35 349.515 67.8766C351.645 80.5387 352.502 93.1474 352.466 105.981C352.43 118.594 352.518 131.246 351.953 143.847C351.399 156.176 350.193 168.471 348.252 180.659C346.308 192.857 343.602 204.882 340.257 216.77C338.778 222.026 337.425 227.3 336.719 232.724C336.123 237.296 335.871 241.911 335.864 246.521C335.829 266.53 339.828 287.019 347.307 305.576C354.027 322.255 365.736 339.138 384.09 344.016C386.404 344.632 388.767 345.004 391.155 345.161C391.071 345.155 390.315 343.456 389.754 343.419C380.034 342.779 371.067 338.188 364.062 331.545C356.929 324.782 352.367 316.018 348.75 306.995C341.5 288.911 337.576 269.041 337.396 249.563C337.305 239.54 338.62 229.894 341.294 220.237C344.491 208.691 347.299 197.114 349.296 185.293C351.225 173.867 352.51 162.336 353.203 150.769C353.93 138.641 353.816 126.505 353.941 114.362C354.069 101.978 353.972 89.6343 352.254 77.3479C350.551 65.1722 347.961 53.1472 345.457 41.1183C344.835 38.1278 344.218 35.1373 343.619 32.1429C343.537 31.7329 343.046 31.2846 342.768 30.9947C342.689 30.9127 342.061 30.3577 342.092 30.5103Z" fill="white"></path>
</svg>