<svg width="313" height="580" viewBox="0 0 313 580" fill="none" xmlns="http://www.w3.org/2000/svg">
<path d="M293.011 49.8589C311.925 81.0313 313.886 118.953 304.425 153.307C301.743 163.046 297.629 172.356 294.052 181.814C290.375 191.537 286.876 201.358 283.671 211.231C280.461 221.116 277.732 231.138 275.339 241.23C274.17 246.157 273.079 251.101 272.043 256.055C271.561 258.353 271.217 260.599 270.247 262.755C269.214 265.053 268.174 267.347 267.085 269.621C265.014 273.947 262.768 278.204 260.151 282.255C257.495 286.365 254.337 290.134 251.751 294.292C246.916 302.065 243.336 310.473 240.716 319.152C239.439 323.384 238.377 327.672 237.445 331.983C236.972 334.179 236.53 336.383 236.112 338.589C235.679 340.879 235.535 343.423 234.731 345.621C234.06 347.453 232.705 348.981 231.969 350.785C231.1 352.917 231.389 355.37 230.979 357.612C230.172 362.029 228.82 366.186 228.404 370.671C226.696 389.094 218.354 405.947 210.313 422.489C206.27 430.803 201.737 439.187 200.031 448.289C198.374 457.133 199.787 465.882 203.494 474.101C205.027 477.498 207.069 480.739 209.855 483.333C211.529 484.893 213.526 485.901 214.953 487.67C216.494 489.582 218.013 491.51 219.506 493.455C225.205 500.88 230.547 508.559 235.435 516.497C245.109 532.206 252.988 548.96 258.268 566.496C259.592 570.889 260.738 575.327 261.74 579.798C261.821 580.163 263.865 579.944 263.84 579.834C259.831 561.922 253.157 544.664 244.382 528.393C239.976 520.222 235.065 512.306 229.753 504.646C227.131 500.866 224.411 497.149 221.606 493.492C220.295 491.782 218.964 490.087 217.615 488.405C217.071 487.726 216.482 486.763 215.833 486.201C215.026 485.501 213.952 485.017 213.105 484.338C206.433 478.985 202.936 469.589 201.745 461.544C200.392 452.407 202.776 443.308 206.537 434.954C214.073 418.206 223.531 402.07 228.11 384.244C229.254 379.797 230.08 375.271 230.504 370.708C230.92 366.223 232.269 362.066 233.079 357.649C233.465 355.549 233.196 353.197 233.931 351.19C234.69 349.113 236.291 347.402 236.953 345.288C238.279 341.056 238.61 336.359 239.547 332.02C241.435 323.277 243.883 314.62 247.506 306.38C249.33 302.23 251.445 298.198 253.851 294.329C256.438 290.17 259.595 286.404 262.252 282.291C264.868 278.241 267.114 273.983 269.185 269.658C270.206 267.526 271.185 265.375 272.154 263.222C273.2 260.897 273.625 258.571 274.143 256.092C276.253 246.012 278.589 235.974 281.341 226.036C286.905 205.939 294.363 186.347 301.936 166.878C314.9 133.551 316.441 94.7038 301.402 61.7293C299.549 57.6679 297.437 53.7259 295.112 49.8939C294.841 49.4509 293.057 49.9369 293.011 49.8589Z" fill="white"></path>
<path d="M4.73254 347.187C5.13279 347.491 5.53304 347.794 5.9333 348.098C6.14698 348.261 7.32223 348.901 7.52156 348.42C8.50545 346.038 8.04459 343.524 7.42428 341.11C6.74656 338.471 6.21236 335.836 5.61756 333.18C4.94144 330.159 4.12817 327.16 3.69921 324.094C3.26228 320.971 3.48234 317.834 2.97205 314.714C2.49047 311.757 1.98179 308.906 2.0089 305.901C2.04079 302.488 2.02485 299.077 2.01049 295.664C1.98498 289.6 1.977 283.55 2.59572 277.506C3.59396 267.763 5.9046 258.201 6.75135 248.435C7.08622 244.576 7.0017 241.049 6.47069 237.218C5.89343 233.045 5.16469 228.893 4.50929 224.731C3.97349 221.329 3.47756 217.954 3.42653 214.511C3.34999 209.325 2.80622 204.153 2.76476 198.968C2.7217 193.504 3.73429 188.332 5.16468 183.065C6.59347 177.808 7.4466 172.421 8.13867 167.037C9.64401 155.32 10.5274 143.585 12.736 131.955C15.0578 119.734 18.0159 107.63 21.0776 95.564C24.1759 83.3493 27.4115 71.1633 30.3169 58.904C32.9831 47.6581 34.3944 35.8673 39.2325 25.2221C41.5511 20.1217 44.6032 14.6963 49.1432 11.0969C51.2832 9.40002 53.7038 8.06641 56.1117 6.75349C58.416 5.49633 60.6118 3.99218 62.9447 2.80195C68.0237 0.207963 75.2362 0.513907 79.9037 3.73886C84.1534 6.67542 87.5357 10.8803 91.1411 14.4924C95.4929 18.8518 98.7874 23.8821 101.358 29.3632C103.895 34.7727 107.049 39.8889 110.457 44.8331C113.938 49.8824 117.681 54.7629 121.336 59.6975C123.155 62.1545 125.041 64.5923 126.606 67.2086C128.022 69.5763 129.373 71.8819 131.334 73.8863C133.688 76.2923 135.788 78.6154 137.646 81.407C139.372 84.0042 140.991 86.6666 142.699 89.2766C146.193 94.6175 150.299 99.5505 153.775 104.909C157.186 110.167 160.385 115.486 163.989 120.632C167.524 125.683 170.374 131.121 173.998 136.121C177.371 140.775 181.208 144.95 185.343 148.989C189.183 152.74 192.71 156.674 194.198 161.846C195.886 167.714 196.378 174.04 198.859 179.687C200.973 184.499 205.352 188.16 208.932 191.959C210.881 194.027 212.812 196.046 214.944 197.947C217.286 200.034 219.747 202.096 221.582 204.628C223.26 206.941 224.507 209.521 225.827 212.027C227.312 214.847 228.47 217.774 229.163 220.867C230.508 226.871 230.262 233.114 229.981 239.21C229.68 245.723 229.181 252.232 228.798 258.741C228.635 261.504 227.495 264.022 227.089 266.748C226.811 268.614 226.062 269.267 224.483 270.408C223.982 270.769 225.728 271.784 226.22 271.431C227.564 270.459 228.639 269.762 228.916 268.12C229.335 265.632 230.343 263.23 230.638 260.741C231.01 257.618 230.997 254.414 231.208 251.275C231.432 247.913 231.672 244.551 231.845 241.184C232.168 234.936 232.502 228.52 231.275 222.341C230.141 216.637 227.395 211.14 224.234 206.211C221.045 201.237 215.901 197.948 211.952 193.59C208.226 189.475 203.514 185.705 201.008 180.73C198.085 174.926 197.891 168.052 195.966 161.938C194.486 157.238 191.39 153.473 187.88 149.988C183.467 145.61 179.256 141.253 175.636 136.225C171.909 131.046 168.947 125.435 165.273 120.226C161.583 114.992 158.403 109.506 154.882 104.174C151.307 98.7602 147.148 93.7443 143.648 88.2855C141.906 85.5704 140.224 82.8187 138.382 80.1642C136.662 77.6865 134.571 75.7155 132.504 73.5183C130.342 71.2191 129.066 68.3988 127.335 65.8208C125.612 63.2555 123.708 60.7889 121.859 58.3065C118.127 53.2986 114.345 48.3194 110.884 43.133C107.418 37.9402 104.732 32.518 101.878 27.0178C99.1892 21.8362 95.563 17.3031 91.3309 13.1986C87.8003 9.77446 84.7386 5.83888 80.5479 3.09671C76.4306 0.402349 71.3692 -0.448489 66.4593 0.214348C63.8409 0.568073 61.61 1.47469 59.4142 2.85772C57.0829 4.32679 54.6048 5.56323 52.2065 6.92873C47.185 9.78721 43.6018 13.3739 40.6214 18.1778C37.5247 23.1682 35.3336 28.6446 33.7613 34.2389C32.1507 39.9702 31.1987 45.872 29.8927 51.6718C28.507 57.8174 27.0128 63.9375 25.4756 70.0496C22.3102 82.6403 18.9647 95.1895 15.9269 107.81C13.0677 119.692 10.3217 131.676 8.75261 143.785C7.23452 155.509 6.69713 167.4 4.06758 178.971C2.86682 184.257 1.2323 189.338 0.916566 194.774C0.627936 199.742 1.1478 204.712 1.36786 209.672C1.54486 213.67 1.59747 217.546 2.18111 221.514C2.80302 225.738 3.54613 229.944 4.18558 234.165C4.70862 237.621 5.29385 241.114 5.06263 244.613C4.69108 250.263 3.95754 255.872 3.01033 261.458C2.23853 266.002 1.39975 270.534 0.859166 275.11C0.155931 281.058 0.0474915 287.01 0.0698165 292.99C0.0953306 299.521 -0.363927 306.155 0.782617 312.611C1.33436 315.721 1.29768 318.757 1.58153 321.88C1.87335 325.071 2.67226 328.191 3.39782 331.309C4.0277 334.014 4.47899 336.741 5.20614 339.424C5.92532 342.075 6.71467 344.907 5.61756 347.563C6.14698 347.669 6.67639 347.778 7.20581 347.885C6.80556 347.58 6.40531 347.278 6.00505 346.973C5.49477 346.586 3.67211 346.382 4.73254 347.187Z" fill="white"></path>
<path d="M85.8192 227.829C83.6553 222.284 81.2872 216.779 79.8409 211.009C79.1201 208.135 78.672 205.198 78.6689 202.239C78.6657 199.281 78.0693 196.475 77.5717 193.567C77.0471 190.495 77.1476 187.408 77.1571 184.306C77.1667 181.08 77.189 177.853 77.1874 174.627C77.1858 168.186 77.0168 161.747 76.918 155.309C76.8175 148.8 76.7808 142.285 77.0822 135.781C77.2193 132.817 77.8859 129.974 78.3324 127.051C78.7916 124.042 78.6322 120.999 78.6322 117.968C78.6338 111.756 78.3196 105.644 77.6244 99.4663C77.2831 96.4278 76.8542 93.5168 76.0265 90.5595C75.2372 87.7392 74.746 84.8314 73.5708 82.1243C72.386 79.3933 70.7499 76.8806 69.361 74.2467C67.7839 71.2576 66.7043 68.0533 65.0044 65.12C63.9472 63.2972 63.2041 61.2529 61.8103 59.6293C60.2922 57.8607 58.1714 57.3094 55.8528 57.5149C55.6582 57.5324 55.3935 57.7443 55.3377 57.9228C53.2838 64.4539 57.5893 70.2633 61.7242 75.0784C63.9264 77.6421 65.9947 80.3795 68.3053 82.8476C69.7038 84.3406 71.2299 85.7189 72.6363 87.2023C74.0954 88.7415 75.3217 90.432 76.5193 92.1592C77.6547 93.7972 78.7853 95.4431 80.0817 96.9712C81.4387 98.5677 82.9871 100.022 84.4223 101.555C87.3182 104.651 90.3384 107.419 93.7828 109.951C97.2926 112.53 100.637 115.145 103.625 118.285C106.577 121.389 109.23 124.734 111.88 128.073C117.226 134.807 122.974 141.179 128.894 147.453C134.787 153.701 140.739 159.913 146.149 166.556C148.653 169.63 151.051 172.778 153.547 175.858C154.676 177.252 155.982 178.831 156.419 180.581C156.871 182.388 156.527 184.325 156.447 186.155C156.052 195.225 157.136 204.41 155.806 213.428C155.165 217.773 154.196 222.069 153.416 226.392C153.016 228.605 152.516 230.8 152.097 233.01C151.714 235.026 152.107 236.955 152.064 238.977C152.017 241.186 151.222 243.409 150.662 245.534C150.088 247.714 149.734 249.919 149.314 252.129C148.472 256.568 147.442 260.974 146.266 265.341C145.763 267.205 144.942 269.149 144.754 271.072C144.621 272.433 145.192 273.604 146.356 274.399C149.129 276.295 152.429 275.072 154.824 273.223C157.516 271.147 159.539 268.352 160.702 265.241C161.99 261.789 162.253 258.128 162.808 254.532C163.987 246.898 166.86 239.009 171.588 232.716C173.524 230.139 176.513 227.961 179.939 229.295C183.078 230.515 184.892 233.662 185.857 236.597C187.351 241.143 190.228 244.913 192.229 249.219C194.856 254.871 194.277 260.76 193.814 266.759C193.299 273.418 193.856 280.03 195.24 286.568C195.615 288.343 195.793 290.628 196.795 292.189C197.6 293.446 199.094 294.093 200.576 294.275C201.912 294.439 203.629 294.315 204.821 293.645C205.758 293.118 206.17 292.189 206.52 291.252C207.89 287.597 208.724 284.084 208.849 280.186C208.991 275.765 208.865 271.329 208.881 266.906C208.911 258.085 207.244 249.447 205.94 240.743C205.283 236.363 204.725 231.968 204.476 227.547C203.872 227.494 203.269 227.441 202.665 227.389C203.629 235.077 205.042 242.723 205.484 250.462C205.702 254.275 205.511 258.075 205.549 261.888C205.568 263.676 205.728 265.4 206.16 267.142C206.556 268.741 207.093 270.317 207.248 271.961C207.386 273.44 207.27 274.928 207.091 276.401C207.012 277.065 206.659 278.096 206.925 278.756C207.095 279.176 207.559 279.672 208.096 279.532C208.574 279.407 208.696 278.999 208.847 278.601C209.241 277.56 209.573 276.495 209.931 275.443C210.813 272.859 211.709 270.277 212.63 267.706C213.924 264.09 215.248 260.475 216.78 256.944C217.535 255.209 218.278 253.235 219.558 251.777C219.804 251.498 219.737 251.632 219.907 251.474C220.019 251.371 219.895 251.434 219.947 251.463C219.903 251.439 219.74 251.428 219.611 251.383C219.518 251.351 219.542 251.343 219.528 251.292C219.604 251.571 219.722 251.836 219.785 252.121C219.946 252.854 220.019 254.011 220.059 254.898C220.088 255.516 220.097 256.135 220.108 256.753C220.11 256.892 220.083 257.714 220.126 257.188C220.727 257.32 221.328 257.454 221.931 257.586C221.794 256.476 221.856 255.311 221.815 254.194C221.724 251.748 221.618 249.302 221.477 246.858C221.339 244.481 221.197 242.094 220.882 239.733C220.604 237.66 220.644 235.576 220.502 233.493C220.413 232.179 220.241 227.814 217.793 228.447C216.643 228.745 217.374 230.612 218.428 230.338C218.755 230.254 218.09 230.322 218.149 230.168C218.153 230.157 218.252 230.375 218.257 230.421C218.302 230.835 218.471 231.261 218.53 231.68C218.689 232.811 218.735 233.958 218.778 235.099C218.845 236.893 218.973 238.638 219.174 240.419C219.675 244.87 219.829 249.365 219.995 253.835C220.04 255.018 219.974 256.253 220.12 257.429C220.223 258.276 221.826 259.041 221.923 257.827C222.063 256.084 221.923 254.18 221.626 252.459C221.437 251.355 220.939 249.326 219.333 249.568C217.914 249.784 217.029 251.88 216.49 252.924C214.953 255.896 213.771 259.046 212.599 262.161C211.595 264.831 210.636 267.518 209.697 270.209C209.112 271.887 208.534 273.568 207.964 275.249C207.739 275.91 207.519 276.573 207.284 277.231C207.244 277.344 207.16 277.502 207.147 277.615C207.088 278.123 206.678 277.847 207.458 277.643C207.849 277.902 208.238 278.161 208.629 278.419C208.724 278.655 208.585 278.886 208.686 278.572C208.729 278.435 208.726 278.263 208.745 278.121C208.809 277.632 208.877 277.145 208.932 276.654C209.075 275.362 209.161 274.055 209.101 272.757C208.949 269.482 207.48 266.444 207.382 263.152C207.267 259.353 207.522 255.556 207.353 251.758C207.185 248.013 206.776 244.283 206.28 240.566C205.702 236.226 205.02 231.898 204.475 227.551C204.339 226.466 202.588 226.068 202.663 227.394C203.159 236.227 204.883 244.943 206.128 253.695C207.327 262.132 207.235 270.708 207.058 279.208C206.975 283.172 206.194 286.813 204.726 290.514C204.301 291.587 203.797 292.052 202.594 292.274C201.092 292.551 198.732 292.562 198.067 290.941C197.286 289.034 197.023 286.721 196.643 284.712C196.296 282.865 196.009 281.007 195.803 279.14C195.465 276.083 195.336 273.003 195.458 269.933C195.701 263.88 196.838 257.914 195.089 251.952C193.826 247.645 191.03 244.065 189.078 240.056C187.793 237.419 187.227 234.508 185.575 232.035C184.046 229.749 181.791 227.7 178.941 227.115C175.868 226.485 173.044 227.969 171.072 230.155C168.589 232.907 166.709 236.363 165.242 239.696C163.72 243.155 162.579 246.804 161.679 250.454C160.781 254.095 160.652 257.859 159.818 261.509C159.034 264.941 157.42 268.104 154.797 270.588C153.652 271.671 152.284 272.714 150.734 273.203C149.555 273.576 147.079 273.681 146.581 272.205C146.379 271.606 146.715 270.782 146.876 270.204C147.187 269.084 147.519 267.969 147.827 266.847C148.402 264.748 148.945 262.644 149.448 260.528C150.48 256.198 151.084 251.782 152.131 247.462C152.633 245.386 153.287 243.342 153.669 241.24C154.025 239.288 153.681 237.408 153.685 235.45C153.69 233.315 154.42 231.109 154.835 229.019C155.254 226.903 155.613 224.777 156.029 222.661C156.857 218.447 157.744 214.229 158.08 209.947C158.429 205.514 158.214 201.028 158.216 196.586C158.217 192.318 158.265 188.067 158.418 183.803C158.479 182.146 158.375 180.538 157.661 179.007C156.913 177.404 155.808 175.982 154.688 174.601C149.625 168.349 144.717 162.028 139.271 156.066C133.63 149.888 127.749 143.915 122.161 137.693C116.561 131.456 111.702 124.656 106.079 118.445C103.312 115.387 100.297 112.634 96.9593 110.153C93.5006 107.583 90.1231 105.092 87.1571 101.989C84.333 99.0345 81.3845 96.1665 79.0436 92.838C77.9305 91.2558 76.8589 89.6465 75.6614 88.1201C74.3968 86.5076 72.9345 85.0704 71.4659 83.6284C68.9767 81.1842 66.9116 78.4564 64.6297 75.8449C62.4211 73.3178 60.1503 70.7971 58.4792 67.9004C56.9021 65.1678 56.0378 62.0735 57.0041 59.0031C56.8319 59.1385 56.6613 59.274 56.4891 59.411C58.7614 59.2086 60.2731 60.077 61.3814 61.9301C62.4179 63.6621 63.3492 65.5151 64.2725 67.3045C65.6183 69.9112 66.6022 72.6693 67.9848 75.2617C69.2095 77.5577 70.6431 79.7629 71.7178 82.1307C72.9027 84.7406 73.3747 87.521 74.1401 90.252C74.9837 93.2682 75.4652 96.2111 75.8145 99.3118C76.4922 105.336 76.8254 111.3 76.8223 117.36C76.8207 120.379 76.9945 123.419 76.5384 126.416C76.1047 129.262 75.4349 132.035 75.2978 134.919C75.0076 141.045 75.0012 147.181 75.0809 153.312C75.1622 159.603 75.3345 165.893 75.3712 172.184C75.3903 175.406 75.3695 178.627 75.3552 181.849C75.3424 184.859 75.1607 187.929 75.4254 190.931C75.706 194.112 76.6835 197.201 76.8414 200.394C76.9993 203.559 77.0742 206.583 77.7503 209.704C79.1313 216.071 81.7433 222.104 84.1129 228.174C84.5435 229.271 86.3008 229.06 85.8192 227.829Z" fill="white"></path>
<path d="M82.7312 227.545C84.1584 230.396 85.4915 233.225 85.9205 236.391C85.9731 236.775 86.4706 237.132 86.7736 237.341C86.8485 237.392 87.6092 237.843 87.5661 237.532C87.1276 234.29 85.7674 231.372 84.3067 228.453C84.1041 228.049 83.6752 227.711 83.2797 227.486C83.1394 227.406 82.5319 227.148 82.7312 227.545Z" fill="white"></path>
<path d="M294.706 51.8483C294.47 52.8522 293.095 52.5366 292.328 52.4076C290.75 52.1399 289.155 51.6316 287.602 51.1807C286.248 50.7872 284.814 50.2869 283.386 50.247C281.086 50.1833 278.653 50.8286 276.565 51.7113C274.341 52.6514 272.314 53.9675 270.302 55.2597C267.848 56.8355 265.373 58.3843 262.923 59.9697C258.109 63.0831 253.25 66.2953 249.203 70.3169C245.417 74.0789 242.274 78.3634 239.047 82.5571C237.385 84.7161 235.704 86.8416 233.783 88.7983C231.799 90.8202 229.693 92.7323 227.816 94.8466C226.178 96.6933 224.762 98.7121 223.086 100.527C221.286 102.477 219.099 104.053 217.076 105.779C214.915 107.622 212.815 109.533 210.838 111.555C208.935 113.5 207.294 115.642 205.443 117.625C203.624 119.576 201.63 121.421 200.146 123.631C198.758 125.699 198.089 128.082 196.858 130.224C195.462 132.651 193.089 134.485 191.074 136.427C189.202 138.229 187.419 140.147 185.676 142.066C184.957 142.858 184.247 143.699 183.81 144.671C183.589 145.163 185.577 145.767 185.847 145.165C186.309 144.137 187.103 143.27 187.877 142.443C188.71 141.55 189.575 140.683 190.391 139.773C192.322 137.622 194.529 135.719 196.578 133.674C198.466 131.789 199.482 129.614 200.525 127.238C201.587 124.821 203.078 122.824 204.904 120.882C205.819 119.91 206.763 118.962 207.664 117.979C208.562 116.999 209.371 115.954 210.241 114.953C212.109 112.804 214.147 110.793 216.261 108.867C218.326 106.988 220.492 105.229 222.644 103.446C224.553 101.865 226.086 99.9868 227.61 98.0748C229.296 95.962 231.118 93.9942 233.057 92.0933C235.052 90.1351 237.049 88.1912 238.788 86.0147C242.124 81.8433 245.193 77.4711 248.769 73.4781C252.531 69.2796 256.967 65.9001 261.683 62.7326C264.118 61.0962 266.599 59.522 269.079 57.9477C271.3 56.5376 273.48 55.0383 275.784 53.7524C277.932 52.5558 280.227 51.638 282.703 51.3225C283.202 51.2588 283.719 51.1887 284.223 51.2094C283.995 51.1998 284.309 51.2237 284.374 51.2333C284.622 51.2699 284.411 51.2317 284.63 51.2763C285.347 51.4245 286.053 51.6253 286.757 51.826C288.377 52.2897 289.989 52.798 291.644 53.1437C292.926 53.4114 294.61 53.7938 295.878 53.2712C296.312 53.0928 296.636 52.79 296.741 52.3407C296.881 51.7464 294.842 51.2652 294.706 51.8483Z" fill="white"></path>
<path d="M153.505 183.557C144.415 192.239 132.417 200.37 129.469 213.075C128.617 216.747 128.82 220.481 128.777 224.215C128.726 228.698 128.604 233.182 128.563 237.666C128.521 241.969 128.384 246.361 128.828 250.648C129.249 254.703 130.553 258.606 131.352 262.595C132.116 266.403 132.473 270.451 130.791 274.083C129.174 277.578 126.453 280.353 123.513 282.866C120.489 285.449 117.461 288.038 114.833 291.002C113.541 292.46 112.288 293.967 111.508 295.742C110.813 297.326 110.443 299.021 109.826 300.632C109.204 302.254 108.254 303.733 107.627 305.35C107.061 306.805 106.93 308.339 106.857 309.878C106.745 312.193 106.691 315.388 109.185 316.618C111.183 317.604 113.538 316.959 115.375 315.952C117.533 314.768 119.354 313.009 120.988 311.239C122.553 309.545 123.986 307.738 125.311 305.869C126.617 304.029 127.833 302.209 129.416 300.562C133.154 296.672 138.564 292.95 139.48 287.375C139.703 286.01 139.642 284.647 139.346 283.296C139.239 282.812 138.287 282.895 137.962 282.993C135.756 283.661 134.747 285.299 133.8 287.19C132.677 289.434 130.977 291.239 129.395 293.189C127.616 295.382 126.35 297.858 125.039 300.323C123.631 302.968 122.277 305.638 120.961 308.328C120.307 309.666 119.663 311.008 119.027 312.354C118.464 313.546 117.831 314.736 117.402 315.979C117.097 316.86 116.925 317.826 117.287 318.715C117.688 319.698 118.616 320.434 119.603 320.858C123.953 322.722 128.684 318.559 131.124 315.538C132.725 313.557 133.942 311.33 135.45 309.289C136.989 307.208 139.029 305.629 140.843 303.785C144.544 300.026 147.319 295.552 151.196 291.942C153.141 290.13 155.3 288.618 157.404 286.99C159.185 285.61 160.476 284.047 161.285 281.983C162.915 277.823 166.501 274.643 167.938 270.403C168.778 267.922 168.556 265.25 168.566 262.68C168.577 259.589 168.566 256.496 168.547 253.405C168.529 250.454 168.381 247.476 168.539 244.528C168.609 243.198 168.845 241.883 169.298 240.621C169.735 239.402 170.357 238.254 170.819 237.043C171.266 235.873 171.542 234.654 171.4 233.405C171.323 232.729 169.239 232.978 169.317 233.674C169.61 236.256 167.979 238.472 167.18 240.83C166.372 243.212 166.413 245.691 166.429 248.166C166.467 254.034 166.518 259.903 166.467 265.771C166.456 267.023 166.467 268.253 166.166 269.48C165.922 270.47 165.535 271.423 165.064 272.332C164.096 274.208 162.8 275.901 161.62 277.656C161.012 278.559 160.43 279.48 159.934 280.446C159.446 281.395 159.134 282.417 158.628 283.358C157.563 285.34 155.697 286.577 153.903 287.906C151.92 289.376 150.019 290.957 148.281 292.691C146.463 294.504 144.914 296.497 143.339 298.5C141.83 300.417 140.245 302.278 138.499 304.002C136.729 305.748 134.846 307.276 133.39 309.292C130.743 312.96 128.652 317.096 124.508 319.475C123.763 319.902 122.849 320.331 121.955 320.251C120.929 320.16 119.882 319.421 119.422 318.548C118.979 317.708 119.172 316.744 119.477 315.895C119.896 314.724 120.484 313.6 121.016 312.474C123.463 307.281 126.04 302.139 128.829 297.106C130.087 294.835 131.728 292.941 133.376 290.927C134.101 290.039 134.812 289.128 135.362 288.127C135.825 287.284 136.196 286.392 136.712 285.575C137.164 284.853 137.78 284.131 138.647 283.87C138.187 283.769 137.724 283.667 137.263 283.567C137.866 286.306 137.369 288.945 135.893 291.351C134.477 293.661 132.422 295.571 130.457 297.45C128.397 299.418 126.297 301.387 124.709 303.737C123.722 305.197 122.728 306.64 121.631 308.028C120.111 309.951 118.474 311.816 116.61 313.444C115.78 314.169 114.891 314.846 113.918 315.388C113.57 315.581 113.103 315.798 112.795 315.901C112.679 315.939 112.231 316.054 112.309 316.04C112.204 316.06 112.095 316.075 111.988 316.086C111.765 316.11 112.089 316.091 111.848 316.094C111.57 316.097 111.295 316.064 110.926 315.901C110.512 315.718 110.126 315.421 109.851 315.072C109.025 314.016 108.946 312.479 108.915 311.213C108.882 309.811 108.922 308.31 109.204 306.93C109.529 305.343 110.335 303.943 111.051 302.498C111.861 300.861 112.368 299.15 112.928 297.428C113.482 295.721 114.264 294.203 115.414 292.786C117.82 289.819 120.638 287.213 123.546 284.703C126.434 282.213 129.268 279.834 131.374 276.665C132.36 275.181 133.202 273.577 133.645 271.862C134.103 270.092 134.143 268.207 134.013 266.394C133.728 262.415 132.494 258.578 131.639 254.695C130.752 250.667 130.671 246.612 130.636 242.509C130.599 238.115 130.69 233.722 130.772 229.329C130.811 227.178 130.848 225.029 130.867 222.878C130.883 220.927 130.803 218.964 130.931 217.016C131.773 204.062 142.76 195.282 151.92 187.016C153.084 185.966 154.237 184.906 155.369 183.825C155.715 183.495 155.187 183.251 154.9 183.202C154.449 183.119 153.843 183.235 153.505 183.557Z" fill="white"></path>
<path d="M209.565 191.476C211.067 191.396 212.391 190.769 213.351 189.657C214.215 188.654 214.78 187.472 215.478 186.366C216.405 184.899 217.73 183.654 219.017 182.475C220.415 181.196 221.884 179.99 223.294 178.721C226.291 176.021 228.497 172.751 231.182 169.791C233.939 166.75 236.996 163.976 240.055 161.218C246.134 155.737 252.378 150.521 259.243 145.949C260.846 144.882 262.303 143.691 263.628 142.315C264.858 141.038 265.984 139.675 267.154 138.351C269.592 135.592 272.474 133.253 274.73 130.339C276.771 127.704 278.407 124.802 278.71 121.488C278.926 119.125 278.884 115.465 276.172 114.343C273.816 113.37 271.334 115.054 269.603 116.435C267.682 117.971 265.969 119.799 264.368 121.638C259.198 127.578 256.325 134.88 252.249 141.475C250.131 144.901 247.869 148.248 245.965 151.792C243.973 155.5 242.349 159.419 240.661 163.259C238.986 167.069 237.602 171.024 235.599 174.69C234.673 176.387 233.689 178.06 232.898 179.822C232.05 181.707 231.594 183.704 230.887 185.635C230.235 187.418 229.25 189.08 228.443 190.801C227.655 192.483 227.063 194.198 226.465 195.945C225.526 198.691 223.431 200.979 222.216 203.613C221.683 204.766 221.26 206.016 221.425 207.29C221.565 208.382 223.652 208.335 223.502 207.166C223.351 205.979 223.911 204.789 224.446 203.75C225.115 202.454 225.918 201.228 226.681 199.981C227.405 198.799 228.111 197.599 228.537 196.285C229.093 194.569 229.725 192.909 230.505 191.271C231.31 189.579 232.254 187.941 232.887 186.18C233.541 184.362 233.978 182.483 234.765 180.71C235.532 178.983 236.488 177.34 237.4 175.68C238.358 173.935 239.165 172.162 239.911 170.324C241.46 166.512 243.134 162.746 244.836 158.994C246.464 155.404 248.151 151.908 250.222 148.53C252.243 145.235 254.416 142.025 256.293 138.652C258.114 135.38 259.741 132.014 261.688 128.805C263.394 125.994 265.362 123.422 267.631 121.007C269.211 119.324 270.89 117.567 272.952 116.416C273.354 116.192 273.769 115.997 274.218 115.876C274.56 115.785 274.979 115.769 275.119 115.808C276.049 116.067 276.413 117.285 276.564 118.202C277.038 121.078 276.338 123.978 274.893 126.505C273.129 129.589 270.61 132.125 268.018 134.576C265.47 136.985 263.459 139.856 260.893 142.249C259.556 143.497 258.026 144.471 256.511 145.506C254.84 146.65 253.195 147.828 251.576 149.04C248.42 151.405 245.365 153.887 242.413 156.481C239.442 159.091 236.491 161.739 233.641 164.469C232.233 165.817 230.855 167.197 229.549 168.635C228.223 170.097 227.038 171.668 225.794 173.194C224.624 174.63 223.381 175.994 222.005 177.254C220.61 178.532 219.141 179.736 217.735 181.003C216.432 182.176 215.15 183.404 214.104 184.798C213.327 185.834 212.799 187.013 212.055 188.068C211.386 189.014 210.538 189.679 209.31 189.744C207.945 189.821 208.298 191.543 209.565 191.476Z" fill="white"></path>
<path d="M160.86 278.84C160.609 280.714 159.184 282.13 158.457 283.829C157.634 285.752 157.275 287.882 156.934 289.923C156.2 294.298 155.307 298.618 154.141 302.909C153.561 305.046 152.99 307.217 152.22 309.3C151.713 310.67 150.649 311.954 149.335 312.692C147.902 313.495 146.355 313.371 145.344 312.026C144.546 310.967 144.427 309.518 144.451 308.253C144.519 304.616 145.829 301.155 146.564 297.621C146.75 296.724 145.194 295.623 144.94 296.838C144.234 300.234 143.03 303.538 142.845 307.023C142.754 308.726 142.891 310.462 143.646 312.029C144.411 313.618 145.985 315.057 147.892 315.113C149.624 315.164 151.195 314.083 152.268 312.871C153.591 311.376 154.062 309.544 154.621 307.702C156.037 303.035 157.291 298.266 158.106 293.467C158.533 290.948 158.826 288.378 159.633 285.937C160.365 283.725 162.17 281.967 162.483 279.62C162.547 279.144 162.241 278.575 161.783 278.367C161.351 278.172 160.922 278.378 160.86 278.84Z" fill="white"></path>
<path d="M78.0612 125.25C78.3753 123.886 79.6064 122.66 80.4531 121.569C80.9363 120.946 81.3573 120.277 81.9058 119.705C82.582 119.001 83.3729 118.406 84.0666 117.718C84.8001 116.991 85.3263 116.129 85.9323 115.31C86.5111 114.528 87.2144 113.888 88.0085 113.304C88.817 112.71 89.6781 112.178 90.5535 111.681C91.2376 111.292 91.8962 110.93 92.6792 110.758C94.2403 110.416 95.9466 110.417 96.3931 108.633C96.4457 108.421 95.8158 108.002 95.6739 107.888C95.6165 107.842 94.7921 107.28 94.7746 107.352C94.395 108.867 93.089 109.12 91.6746 109.361C89.9651 109.652 88.5347 110.569 87.1267 111.509C86.3278 112.042 85.5304 112.621 84.8862 113.325C84.1941 114.082 83.703 114.981 83.0572 115.771C82.4305 116.537 81.6459 117.155 80.9124 117.823C80.2522 118.422 79.7435 119.08 79.2204 119.784C78.6799 120.511 78.0978 121.209 77.5668 121.942C77.1203 122.557 76.6164 123.226 76.4442 123.969C76.3948 124.184 77.0183 124.598 77.1634 124.713C77.2192 124.759 78.0452 125.318 78.0612 125.25Z" fill="white"></path>
<path d="M144.284 87.5764C145.361 87.5063 146.325 87.9046 147.287 88.3173C148.341 88.7714 149.363 89.1443 150.495 89.3753C152.894 89.8645 155.311 90.0876 157.617 90.9352C161.921 92.5158 166.113 94.6031 169.79 97.2751C171.565 98.5642 173.158 100.057 174.89 101.397C176.646 102.755 178.457 104.042 180.199 105.417C181.929 106.784 183.584 108.239 184.995 109.915C186.55 111.762 187.96 113.744 189.425 115.658C191.029 117.753 192.434 119.979 194.043 122.068C194.552 122.729 195.094 123.376 195.462 124.123C195.917 125.044 195.995 126.056 195.978 127.06C195.963 127.871 197.781 128.774 197.799 127.697C197.832 125.761 197.296 124.133 196.148 122.551C194.834 120.739 193.558 118.902 192.235 117.095C190.702 115.003 189.073 112.978 187.513 110.905C186.08 109.001 184.477 107.281 182.648 105.714C180.913 104.227 179.055 102.882 177.223 101.509C175.348 100.103 173.608 98.5578 171.769 97.1126C167.974 94.1299 163.602 91.8068 159.081 89.9967C157.754 89.4661 156.419 88.9849 155.021 88.6599C153.653 88.3428 152.257 88.1628 150.875 87.9174C149.543 87.68 148.382 87.288 147.151 86.7606C145.935 86.2396 144.707 85.8556 143.359 85.9448C142.852 85.9783 142.865 86.528 143.037 86.8546C143.26 87.2769 143.785 87.6083 144.284 87.5764Z" fill="white"></path>
<path d="M84.8967 232.511C84.9127 243.077 87.0272 254.186 81.9594 264.057C77.7703 272.216 70.2564 277.812 63.2336 283.626C59.6568 286.587 56.1726 289.692 53.2544 293.268C50.451 296.701 48.1356 300.533 46.2587 304.498C42.5671 312.294 40.5722 321.019 41.2531 329.591C41.9372 338.195 45.4215 346.416 51.706 352.674C52.5288 353.493 53.3947 354.272 54.2909 355.017C54.6959 355.353 55.2875 355.515 55.7564 355.177C56.155 354.891 56.2252 354.239 55.8281 353.911C49.0015 348.245 44.7725 340.511 43.5654 331.961C42.3789 323.567 44.0262 314.91 47.359 307.12C49.0461 303.175 51.1941 299.416 53.771 295.94C56.4771 292.288 59.7956 289.13 63.291 286.172C70.1942 280.333 77.7863 274.976 82.5303 267.239C83.8299 265.119 84.951 262.878 85.718 260.529C86.544 258 86.9969 255.363 87.2281 252.726C87.7001 247.331 87.2488 241.915 87.0511 236.517C87.0049 235.25 86.9745 233.982 86.9729 232.714C86.9698 231.582 84.8952 231.31 84.8967 232.511Z" fill="white"></path>
<path d="M59.8629 309.885C59.3558 313.497 58.3369 317.138 58.761 320.806C58.9954 322.84 59.7258 324.717 60.2983 326.674C60.8771 328.654 61.2806 330.678 61.853 332.66C62.4175 334.612 63.1718 336.478 64.3008 338.197C65.3102 339.735 66.4536 341.191 67.683 342.574C70.2424 345.455 73.1367 348.093 76.9208 349.384C80.9775 350.769 85.6801 350.568 89.3238 352.968C89.6173 353.16 90.3428 353.431 90.6586 353.143C90.9982 352.834 90.5134 352.44 90.2615 352.274C87.0403 350.152 83.1988 349.784 79.4881 348.974C77.6734 348.578 75.8954 348.042 74.3406 347.037C72.8225 346.055 71.4878 344.771 70.2616 343.479C67.6464 340.723 65.307 337.692 64.111 334.115C63.4748 332.211 63.0729 330.245 62.5658 328.307C62.046 326.323 61.2471 324.408 60.8835 322.389C60.1579 318.369 61.2742 314.4 61.8323 310.43C61.9216 309.776 59.9777 309.069 59.8629 309.885Z" fill="white"></path>
<path d="M128.516 351.632C137.32 351.742 146.122 351.321 154.872 350.38C163.638 349.435 172.29 347.752 181.051 346.783C186.031 346.232 191.04 345.937 196.054 346.094C197.422 346.137 196.951 344.413 195.794 344.376C186.87 344.097 178.001 345.267 169.211 346.618C160.56 347.948 151.914 349.11 143.159 349.599C138.197 349.876 133.225 349.975 128.254 349.914C126.888 349.897 127.355 351.618 128.516 351.632Z" fill="white"></path>
<path d="M196.732 343.981C196.79 339.354 196.662 334.722 196.169 330.117C195.93 327.888 195.674 325.622 195.17 323.431C194.701 321.392 193.888 319.445 193.092 317.507C192.192 315.318 191.269 313.097 190.944 310.75C190.888 310.342 190.478 309.983 190.151 309.748C190.08 309.697 189.284 309.222 189.33 309.564C189.893 313.635 192.066 317.252 193.245 321.159C193.907 323.349 194.171 325.651 194.441 327.91C194.714 330.2 194.895 332.498 195.002 334.8C195.127 337.464 195.152 340.131 195.119 342.797C195.114 343.184 195.621 343.589 195.911 343.799C196.007 343.868 196.728 344.331 196.732 343.981Z" fill="white"></path>
</svg>