<svg width="396" height="540" viewBox="0 0 396 540" fill="none" xmlns="http://www.w3.org/2000/svg">
<path d="M167.49 233.063C164.301 247.198 162.498 261.593 159.573 275.778C158.935 278.868 158.757 282.442 156.463 284.786C154.261 287.035 151.694 288.908 148.962 290.464C143.23 293.729 136.816 295.567 130.373 296.828C116.378 299.564 102.011 299.305 87.818 299.168C74.4305 299.039 60.7071 298.692 47.9593 303.425C36.6752 307.615 26.6057 315.087 19.4449 324.77C11.9901 334.85 7.4908 347.13 5.5611 359.456C1.09189 388.011 11.5457 415.748 12.6484 444.091C13.1964 458.218 12.4328 472.317 10.3711 486.3C8.29108 500.398 6.50343 514.631 2.98153 528.464C2.12945 531.811 1.01338 535.085 0.0109359 538.389C-0.129406 538.851 1.12699 540.071 1.14871 539.996C3.21707 533.175 5.09331 526.417 6.46999 519.414C7.8567 512.358 8.96272 505.25 10.0119 498.136C11.0378 491.183 12.1656 484.234 12.8689 477.239C13.5823 470.149 13.9332 463.024 13.9633 455.899C13.9933 448.807 13.7811 441.684 13.0193 434.631C12.2758 427.745 11.0662 420.92 9.86158 414.102C7.3655 399.976 5.07328 385.671 5.70315 371.276C6.27788 358.141 9.60264 344.933 16.065 333.427C22.0847 322.71 31.0983 313.919 42.0266 308.258C53.8504 302.133 66.8253 300.844 79.9539 300.822C94.1067 300.799 108.323 301.5 122.422 299.921C129.124 299.171 135.87 297.949 142.244 295.706C148.011 293.676 154.562 290.501 158.42 285.564C159.175 284.598 159.454 283.446 159.693 282.265C160.064 280.442 160.458 278.624 160.831 276.802C161.544 273.302 162.191 269.792 162.809 266.274C164.045 259.24 165.163 252.185 166.476 245.163C167.133 241.652 167.843 238.152 168.628 234.666C168.74 234.179 167.5 233.025 167.49 233.063Z" fill="#A8645F"></path>
<path d="M177.415 208.117C177.259 206.526 177.196 204.925 176.96 203.342C176.73 201.785 176.243 200.334 175.717 198.857C174.711 196.027 173.667 193.213 172.621 190.398C170.508 184.709 168.388 179.018 166.582 173.222C164.802 167.511 163.327 161.689 162.51 155.758C162.094 152.732 161.843 149.677 161.82 146.622C161.802 143.952 161.783 141.224 162.605 138.66C163.225 136.73 164.256 134.725 165.863 133.432C167.5 132.113 169.584 131.944 171.435 132.928C175.712 135.2 177.403 139.954 178.22 144.441C178.736 147.279 178.596 150.231 178.736 153.11C178.892 156.271 179.077 159.434 179.074 162.599C179.07 165.688 178.895 168.784 178.342 171.826C178.088 173.22 177.782 174.559 177.201 175.854C176.723 176.918 176.185 177.958 175.553 178.939C174.28 180.919 172.558 182.65 170.406 183.657C169.507 184.078 168.722 184.53 167.769 184.083C166.809 183.632 166.06 182.732 165.604 181.792C165.297 181.156 165.375 180.47 165.355 179.779C165.33 178.969 165.288 178.161 165.24 177.353C165.151 175.873 165.044 174.394 164.991 172.911C164.887 170 165.014 166.97 166.075 164.22C166.298 163.644 166.551 162.855 166.969 162.389C167.357 161.957 167.931 161.993 168.466 161.992C168.199 161.881 167.933 161.771 167.666 161.661C171.956 166.903 174.357 173.202 175.119 179.899C175.866 186.473 175.171 193.126 174.172 199.635C173.597 203.376 172.905 207.097 172.259 210.825C172.085 211.823 174.108 211.666 174.262 210.778C175.538 203.423 177.009 196.062 177.359 188.588C177.702 181.283 176.895 173.868 173.627 167.237C172.793 165.546 171.811 163.928 170.697 162.407C170.162 161.676 169.621 160.576 168.625 160.556C167.736 160.538 166.841 160.688 166.067 161.147C165.136 161.698 164.739 162.606 164.338 163.568C163.94 164.522 163.633 165.516 163.417 166.526C163 168.491 162.933 170.504 162.973 172.505C163.016 174.589 163.193 176.667 163.3 178.747C163.327 179.273 163.35 179.799 163.365 180.325C163.379 180.819 163.305 181.378 163.452 181.849C163.695 182.629 164.181 183.373 164.727 183.971C165.758 185.096 167.211 185.906 168.777 185.714C169.582 185.614 170.394 185.243 171.128 184.909C171.936 184.538 172.718 184.094 173.44 183.574C176.195 181.585 178.028 178.662 179.338 175.577C180.135 173.701 180.434 171.574 180.686 169.562C180.955 167.405 181.06 165.23 181.077 163.058C181.109 158.686 180.779 154.324 180.612 149.959C180.571 148.882 180.539 147.803 180.532 146.725C180.525 145.837 180.392 144.986 180.235 144.112C179.936 142.455 179.543 140.805 178.95 139.224C177.797 136.154 175.888 133.482 172.989 131.851C170.078 130.213 166.602 130.679 164.116 132.872C161.867 134.856 160.617 137.902 160.076 140.794C159.89 141.785 159.895 142.839 159.859 143.845C159.82 144.909 159.808 145.974 159.822 147.037C159.848 149.129 159.964 151.219 160.171 153.301C161.015 161.771 163.3 170.02 166.02 178.06C167.378 182.076 168.85 186.051 170.326 190.026C171.061 192.007 171.799 193.989 172.524 195.974C173.263 197.997 174.135 200.039 174.646 202.134C175.157 204.234 175.206 206.406 175.415 208.548C175.508 209.459 177.508 209.069 177.415 208.117Z" fill="#A8645F"></path>
<path d="M61.8751 166.115C61.977 175.063 57.3675 182.912 51.1891 189.084C50.4139 189.859 49.5919 190.58 48.8 191.338C48.2754 191.84 48.4775 193.072 48.5978 193.737C48.9185 195.489 49.9277 197.089 51.1423 198.362C52.3653 199.643 53.854 200.643 55.3259 201.611C56.0009 202.055 56.6808 202.491 57.3408 202.958C58.1761 203.548 59.1184 203.95 60.0607 204.346C64.3862 206.162 69.5104 206.935 73.1693 203.361C73.5185 203.02 72.6864 201.636 72.2838 201.561C71.3782 201.394 70.7116 201.993 70.3657 202.783C70.217 203.122 70.9455 204.681 71.3916 204.506C72.0632 204.242 72.623 203.825 73.1693 203.359C73.5385 203.045 72.7516 201.957 72.5261 201.728C71.5253 200.716 70.5112 199.306 69.0744 198.898C67.4387 198.433 66.0335 199.927 65.3402 201.237C64.3528 203.1 64.5684 205.165 64.55 207.202C64.5316 209.269 64.4781 211.337 64.276 213.394C64.0504 215.684 63.6093 217.944 62.8892 220.131C62.7172 220.656 63.3437 221.492 63.7163 221.804C69.2096 226.433 76.768 225.467 83.2488 223.948C83.6915 223.844 84.1326 223.726 84.5753 223.627C85.105 223.51 85.6413 223.545 86.1809 223.53C87.0614 223.507 87.9135 223.397 88.7623 223.158C88.4382 222.56 88.114 221.963 87.7882 221.365C86.45 221.799 85.11 222.221 83.7533 222.595C84.0775 223.193 84.4016 223.791 84.7274 224.388C86.064 223.953 87.4123 223.552 88.7623 223.158C89.18 223.036 88.1875 221.444 87.8767 221.358C84.6355 220.477 81.2673 220.58 77.9408 220.734C77.1172 220.772 76.2952 220.814 75.4716 220.844C74.6796 220.874 73.8175 220.787 73.0356 220.899C71.8678 221.066 70.7016 221.933 69.9448 222.792C68.4963 224.44 67.4922 227.215 68.0786 229.391C68.7586 231.914 70.3908 234.039 72.262 235.812C74.0464 237.501 76.0847 238.934 77.5683 240.919C79.1255 243 80.0193 245.496 80.5639 248.017C81.1386 250.683 81.3342 253.414 81.3743 256.137C81.4094 258.461 81.822 260.658 82.8612 262.754C84.5887 266.237 87.698 268.634 91.4755 269.514C95.2363 270.388 99.3313 269.889 102.87 268.395C103.892 267.963 104.836 267.392 105.83 266.904C107.327 266.172 108.841 265.474 110.37 264.806C113.447 263.46 116.577 262.237 119.724 261.067C126.016 258.728 132.385 256.593 138.629 254.12C141.853 252.843 145.116 251.546 148.177 249.91C150.454 248.693 152.766 247.546 155.045 246.331C159.252 244.087 163.148 241.463 166.251 237.797C167.09 236.807 167.865 235.765 168.6 234.695C168.871 234.301 167.761 232.692 167.521 233.042C164.777 237.042 161.329 240.283 157.179 242.788C155.189 243.99 153.117 245.049 151.051 246.112C148.476 247.438 145.941 248.813 143.29 249.982C131.306 255.259 118.587 258.684 106.714 264.227C104.639 265.195 102.669 266.41 100.487 267.136C98.6614 267.744 96.7383 268.091 94.812 268.128C91.2767 268.195 87.4708 267.245 84.9262 264.657C81.8137 261.492 82.6457 256.86 82.2147 252.83C81.6533 247.593 80.0142 242.368 76.4004 238.41C74.8299 236.69 72.8986 235.348 71.2746 233.682C70.5111 232.897 69.7693 232.029 69.3433 231.009C68.8638 229.862 69.0559 228.652 69.3951 227.483C70.0099 225.367 71.7658 222.877 74.1851 222.701C75.8224 222.58 77.4881 222.597 79.1305 222.524C80.7477 222.452 82.3701 222.395 83.989 222.469C85.5745 222.54 87.1449 222.749 88.6787 223.166C88.3829 222.567 88.0889 221.966 87.7932 221.367C86.4433 221.761 85.0967 222.161 83.7584 222.597C83.4343 222.702 84.2328 224.527 84.7324 224.39C86.089 224.016 87.429 223.594 88.7673 223.16C89.0897 223.054 88.2928 221.226 87.7932 221.367C86.7941 221.647 85.8051 221.727 84.7692 221.736C83.7116 221.742 82.7292 222.056 81.6984 222.29C79.6166 222.762 77.5116 223.155 75.383 223.328C71.0325 223.685 66.5699 222.998 63.1449 220.111C63.4206 220.669 63.6962 221.226 63.9719 221.784C65.504 217.123 65.6544 212.215 65.6677 207.352C65.6711 206.022 65.6225 204.756 66.1371 203.501C66.5665 202.452 67.2615 201.459 68.2807 200.912C70.1987 199.882 71.6656 202.007 72.8451 203.199C72.6313 202.654 72.4157 202.11 72.2019 201.566C71.6555 202.032 71.0975 202.449 70.4259 202.713C70.7684 203.287 71.1109 203.861 71.4518 204.436C71.7425 203.771 72.3172 203.224 73.0874 203.366C72.7917 202.766 72.4976 202.167 72.2019 201.566C70.7934 202.942 69.0476 203.828 67.0844 204.057C65.0846 204.29 63.0429 203.875 61.15 203.247C60.1776 202.925 59.227 202.538 58.2947 202.11C57.4844 201.738 56.7994 201.271 56.0626 200.776C54.7127 199.872 53.321 199.022 52.0512 198.002C50.9936 197.152 49.8642 196.131 49.6503 194.723C49.5952 194.364 49.5668 193.957 49.6203 193.595C49.7038 193.032 50.2384 192.715 50.6377 192.343C51.3862 191.647 52.1197 190.932 52.8298 190.197C55.5815 187.35 58.0391 184.173 59.8485 180.64C61.9319 176.572 63.0346 172.091 62.9828 167.517C62.9777 167.075 62.6854 166.572 62.4114 166.238C62.2978 166.101 61.8701 165.671 61.8751 166.115Z" fill="#A8645F"></path>
<path d="M56.6077 95.5792C55.231 103.128 54.2285 110.806 54.4641 118.493C54.6947 126.017 56.2117 133.673 60.1363 140.19C62.4369 144.012 65.5227 147.285 69.1282 149.903C69.5058 150.177 70.1022 150.163 70.3428 149.724C70.5984 149.259 70.2559 148.698 69.8833 148.427C63.867 144.062 59.8806 137.781 57.9392 130.655C55.9979 123.53 55.9728 115.968 56.6545 108.662C57.0421 104.509 57.6736 100.384 58.4221 96.2821C58.6042 95.2737 56.8249 94.3873 56.6077 95.5792Z" fill="#A8645F"></path>
<path d="M260.577 159.749C260.528 163.384 259.959 166.966 259.461 170.559C258.933 174.37 258.422 178.126 257.556 181.884C255.939 188.915 253.73 195.795 252.16 202.838C250.529 210.15 248.805 217.579 247.893 225.019C247.435 228.75 247.487 232.48 247.41 236.233C247.331 240.084 247.223 243.933 247.223 247.785C247.223 255.005 247.427 262.614 249.162 269.66C250.024 273.161 251.64 276.425 253.274 279.618C253.962 280.962 254.539 282.538 255.541 283.658C256.049 284.226 256.601 284.643 256.971 285.314C257.374 286.042 257.63 286.83 258.071 287.543C259.837 290.404 262.682 292.927 265.018 295.329C267.432 297.813 269.93 300.214 272.479 302.559C277.891 307.534 283.558 312.011 289.569 316.241C295.746 320.589 302.118 324.403 308.841 327.844C315.608 331.308 322.479 334.568 329.161 338.196C332.5 340.009 335.713 342.064 339.128 343.73C342.344 345.297 345.592 346.801 348.817 348.352C352.115 349.938 355.291 351.714 358.469 353.527C359.872 354.327 360.886 355.496 362.193 356.36C363.696 357.355 365.27 358.18 366.715 359.278C369.383 361.308 371.814 363.627 374.364 365.799C375.715 366.951 376.947 367.946 377.891 369.467C378.851 371.014 379.814 372.437 380.658 374.068C383.815 380.174 386.836 386.413 388.712 393.049C389.715 396.589 390.375 400.225 390.588 403.901C390.684 405.554 390.754 406.905 391.185 408.507C391.693 410.392 392.13 412.293 392.5 414.21C393.972 421.829 394.329 429.632 393.916 437.371C393.099 452.713 389.396 467.719 385.6 482.548C384.646 486.276 383.322 490.072 382.789 493.883C382.265 497.633 382.414 501.479 382.026 505.255C381.237 512.924 380.153 520.56 379.107 528.198C378.588 531.999 378.078 535.802 377.612 539.61C377.548 540.12 379.374 539.468 379.448 538.872C380.409 531.042 381.558 523.238 382.576 515.415C383.063 511.667 383.518 507.916 383.899 504.157C384.27 500.501 384.119 496.78 384.626 493.147C385.157 489.336 386.482 485.541 387.436 481.812C388.41 478.004 389.374 474.194 390.284 470.372C392.064 462.903 393.644 455.377 394.678 447.766C395.696 440.282 396.179 432.71 395.759 425.161C395.557 421.528 395.143 417.906 394.5 414.323C394.199 412.649 393.846 410.983 393.442 409.332C392.902 407.127 392.547 405.093 392.399 402.83C391.965 396.15 390.064 389.693 387.459 383.555C386.082 380.309 384.527 377.143 382.918 374.008C382.168 372.545 381.48 371.056 380.492 369.749C379.628 368.604 379.085 367.297 377.994 366.333C375.41 364.05 372.768 361.779 370.112 359.579C368.881 358.559 367.614 357.574 366.276 356.694C365.571 356.23 364.822 355.846 364.109 355.399C363.28 354.88 362.752 354.14 361.999 353.554C360.764 352.594 359.192 351.906 357.824 351.145C356.218 350.252 354.648 349.295 352.999 348.484C349.677 346.848 346.317 345.291 342.978 343.693C336.229 340.461 329.852 336.493 323.168 333.109C316.354 329.66 309.464 326.36 302.783 322.654C296.352 319.086 290.356 314.621 284.46 310.247C278.495 305.821 272.995 300.631 267.778 295.354C265.237 292.785 262.572 290.164 260.358 287.304C259.511 286.211 259.202 284.778 258.36 283.723C257.945 283.203 257.317 282.837 256.931 282.296C256.37 281.511 255.981 280.43 255.54 279.573C253.891 276.371 252.225 273.139 251.221 269.667C250.165 266.014 249.804 262.018 249.478 258.238C248.827 250.673 249.086 243.077 249.241 235.496C249.321 231.623 249.281 227.785 249.769 223.934C250.22 220.367 250.917 216.838 251.657 213.32C253.222 205.888 254.783 198.501 256.788 191.172C258.759 183.966 260.305 176.866 261.34 169.47C261.827 165.995 262.36 162.529 262.408 159.013C262.421 158.446 260.585 159.17 260.577 159.749Z" fill="#A8645F"></path>
<path d="M344.978 457.1C342.336 468.301 338.736 479.258 334.431 489.928C330.127 500.594 325.125 510.969 319.71 521.114C316.632 526.88 313.418 532.571 310.115 538.21C309.974 538.449 310.387 538.985 310.509 539.172C310.547 539.23 311.166 540.038 311.239 539.913C317.105 529.9 322.689 519.714 327.729 509.258C332.713 498.92 337.166 488.314 340.804 477.428C342.864 471.263 344.659 465.011 346.149 458.684C346.224 458.363 345.751 457.796 345.574 457.56C345.518 457.48 345.033 456.864 344.978 457.1Z" fill="#A8645F"></path>
<path d="M73.0914 236.603C75.5207 236.526 77.6292 238.154 80.0985 237.845C82.623 237.528 84.9603 235.837 86.621 233.99C87.5533 232.954 88.1364 231.668 88.7563 230.431C89.5382 228.877 90.3084 227.289 91.3225 225.869C92.0059 224.912 93.2505 223.258 94.6322 223.673C94.4284 223.131 94.2245 222.588 94.019 222.046C92.1278 221.715 90.5907 220.502 88.5841 220.85C87.824 220.982 88.9885 222.608 89.7236 222.481C91.4729 222.178 93.137 223.416 94.8244 223.712C95.2471 223.785 95.2587 223.286 95.1668 223.026C95.0232 222.618 94.6306 222.211 94.2129 222.084C91.1304 221.156 89.1071 225.49 87.9944 227.62C87.2894 228.969 86.6896 230.406 85.8659 231.69C84.6764 233.543 82.5144 235.13 80.4544 235.85C79.0092 236.356 77.7111 236.256 76.2726 235.795C74.9661 235.376 73.6795 234.893 72.2861 234.937C71.2987 234.968 72.3864 236.626 73.0914 236.603Z" fill="#A8645F"></path>
<path d="M46.0777 51.7561C38.0498 59.5538 32.0185 69.0109 28.2777 79.5514C26.3897 84.8735 25.0782 90.3891 24.1978 95.9632C23.3023 101.634 22.507 107.544 23.192 113.282C23.9071 119.275 26.5451 124.73 30.0303 129.6C33.4269 134.343 37.6722 138.496 42.5775 141.67C52.7556 148.252 65.251 150.207 77.1483 150.696C80.1423 150.819 83.1412 150.86 86.1385 150.828C86.2054 150.828 86.2706 150.829 86.3357 150.831C86.0233 150.826 86.3724 150.833 86.4426 150.836C86.7083 150.85 86.9756 150.863 87.2413 150.878C87.9914 150.918 88.7432 150.96 89.4933 150.995C91.3946 151.082 93.3026 151.145 95.2056 151.088C96.6274 151.045 98.2898 151.038 99.613 150.449C100.103 150.232 100.5 149.94 100.657 149.409C100.803 148.918 100.218 148.476 99.8519 148.317C98.4001 147.688 97.0217 148.09 95.5164 148.097C94.3269 148.102 93.1055 147.689 92.0847 147.097C91.0923 146.521 90.2285 145.766 89.3815 144.997C88.4325 144.135 87.4869 143.27 86.6181 142.329C83.0244 138.431 80.4681 133.464 79.2084 128.328C78.6988 126.249 78.1258 123.912 78.652 121.784C79.0547 120.158 80.0704 118.74 81.3252 117.655C83.9883 115.355 87.806 114.183 91.3045 114.607C93.007 114.812 94.8498 115.438 96.0076 116.769C97.2874 118.238 97.4277 120.401 97.8187 122.223C98.9832 127.645 101.361 132.848 105.051 137.019C108.642 141.077 113.136 144.402 118.016 146.751C120.501 147.946 123.119 148.916 125.854 149.33C128.873 149.788 131.94 149.638 134.981 149.621C136.498 149.613 137.995 149.609 139.505 149.434C140.954 149.267 142.392 149.012 143.836 148.808C145.897 148.516 147.929 148.457 150.004 148.476C151.71 148.491 153.422 148.464 155.12 148.284C156.644 148.122 158.368 147.895 159.669 147.017C160.165 146.681 160.536 146.209 160.675 145.623C160.892 144.708 159.034 143.9 158.787 144.94C158.702 145.297 158.339 145.611 157.877 145.838C157.208 146.167 156.456 146.339 155.728 146.464C153.97 146.765 152.173 146.826 150.393 146.836C148.624 146.846 146.863 146.761 145.097 146.93C142.127 147.212 139.206 147.921 136.212 147.98C133.128 148.038 129.97 148.168 126.896 147.863C124.037 147.579 121.329 146.688 118.74 145.464C113.893 143.174 109.335 139.795 105.907 135.66C104.101 133.481 102.675 131.034 101.583 128.428C100.527 125.912 99.887 123.325 99.344 120.662C98.923 118.595 98.2781 116.627 96.5873 115.243C95.0636 113.994 93.1773 113.261 91.2326 113.001C87.5136 112.504 83.4804 113.545 80.4781 115.796C79.0813 116.842 77.8567 118.223 77.1868 119.849C76.3815 121.8 76.4968 123.734 76.8426 125.78C77.7515 131.162 80.0036 136.363 83.2833 140.726C84.8471 142.808 86.6832 144.624 88.6296 146.347C90.5209 148.022 92.6728 149.412 95.2407 149.703C96.6725 149.865 98.2213 149.234 99.5779 149.823C99.3089 149.459 99.0399 149.095 98.7726 148.731C98.8244 148.554 98.6757 148.779 98.8077 148.683C98.7392 148.733 98.6858 148.8 98.6106 148.843C98.4669 148.925 98.6708 148.833 98.4619 148.916C98.3249 148.971 98.1879 149.02 98.0459 149.062C97.4511 149.239 96.7711 149.309 96.0978 149.364C94.3402 149.511 92.5675 149.486 90.8066 149.432C89.3614 149.387 87.9196 149.3 86.4761 149.227C84.4294 149.123 82.3728 149.207 80.3228 149.172C68.8649 148.971 56.7771 147.704 46.5004 142.255C41.5433 139.628 37.1677 135.994 33.5973 131.672C29.9501 127.254 26.8325 122.113 25.5828 116.472C24.3565 110.934 24.9228 105.252 25.6496 99.6893C26.358 94.2805 27.4356 88.9117 29.0295 83.6915C32.1488 73.4749 37.3866 63.971 44.6442 56.1032C45.5882 55.0815 46.5605 54.0882 47.5596 53.1183C48.3248 52.3637 46.751 51.1 46.0777 51.7561Z" fill="#A8645F"></path>
<path d="M48.7767 51.8614C55.0771 48.7346 60.5288 44.2807 66.5167 40.6414C69.387 38.8969 72.406 37.3677 75.6238 36.3744C76.3589 36.1474 77.2445 36.0439 77.9027 35.6716C78.7565 35.1891 79.5416 34.4329 80.3419 33.8586C81.864 32.7669 83.4161 31.7168 84.9799 30.6835C88.1276 28.6017 91.317 26.5818 94.3995 24.4015C95.9449 23.3081 97.4637 22.1746 98.9356 20.986C100.394 19.809 101.694 18.38 103.447 17.6522C104.985 17.0128 106.78 16.6305 108.101 15.5638C108.786 15.0112 109.354 14.2783 109.994 13.6724C110.836 12.8761 111.847 12.3969 112.869 11.8711C116.196 10.1616 119.623 8.64749 123.128 7.34369C136.896 2.222 151.701 0.495839 166.318 1.53587C181.119 2.58926 195.648 6.39715 209.389 11.9128C211.15 12.6206 212.9 13.3585 214.637 14.1248C216.206 14.8176 216.998 16.4636 218.51 17.2532C221.696 18.9176 224.864 20.5369 227.908 22.46C233.926 26.2629 239.501 30.7269 244.734 35.5414C250.145 40.5195 255.211 45.8616 260.128 51.3222C261.343 52.671 262.654 53.9732 263.625 55.514C264.447 56.8178 265.17 58.1683 266.211 59.3185C267.407 60.6407 268.188 62.0814 268.916 63.6957C269.17 64.2583 269.382 64.906 269.763 65.3951C270.323 66.113 271.095 66.7106 271.728 67.3667C273.039 68.7256 273.91 70.6521 274.799 72.3081C275.657 73.909 276.464 75.5367 277.218 77.1894C278.71 80.4564 280.001 83.8119 281.134 87.2191C283.512 94.3725 285.192 101.736 286.763 109.103C286.947 109.965 287.194 110.831 287.222 111.709C287.249 112.554 287.222 113.405 287.222 114.252C287.222 116.238 287.804 118.173 288.253 120.103C289.152 123.964 290.133 127.805 291.045 131.663C292.829 139.207 294.311 146.863 294.286 154.646C294.273 158.671 293.78 162.47 292.657 166.337C291.613 169.932 290.225 173.427 288.539 176.77C286.85 180.121 284.862 183.323 282.589 186.309C280.29 189.329 277.347 192.02 274.64 194.673C269.239 199.968 263.496 204.903 257.497 209.509C251.925 213.787 246.892 218.944 242.771 224.642C240.784 227.39 239.04 230.296 237.531 233.331C237.276 233.845 239.043 234.855 239.269 234.403C242.442 228.021 246.722 222.338 251.718 217.27C257.052 211.858 263.329 207.551 269.035 202.549C271.92 200.02 274.725 197.397 277.443 194.688C280.15 191.99 282.982 189.274 285.222 186.169C289.725 179.929 293.08 172.812 294.949 165.347C296.846 157.778 296.151 149.674 294.827 142.059C293.459 134.174 291.247 126.467 289.508 118.662C289.289 117.677 289.002 116.701 289.002 115.689C289.002 114.846 289.002 114.003 289.002 113.16C289.002 111.222 288.4 109.277 287.987 107.385C287.18 103.689 286.328 100.003 285.359 96.3457C283.485 89.2691 281.159 82.2944 277.936 75.7086C277.133 74.066 276.276 72.4483 275.363 70.8624C274.901 70.0577 274.441 69.2448 273.932 68.4668C273.455 67.7406 272.772 67.1697 272.157 66.557C271.522 65.9227 271.123 65.4235 270.754 64.6038C270.408 63.8359 270.069 63.0647 269.668 62.3235C268.903 60.9061 267.793 59.8611 266.866 58.5707C265.857 57.1684 265.137 55.5774 264.007 54.2586C262.781 52.8246 261.48 51.4424 260.21 50.0467C257.766 47.359 255.285 44.7047 252.738 42.1121C247.679 36.9587 242.358 32.0424 236.627 27.6368C233.834 25.49 230.945 23.465 227.96 21.5953C226.409 20.6254 224.832 19.6989 223.23 18.8174C222.553 18.4452 221.873 18.0779 221.188 17.7223C220.381 17.3016 219.342 16.9711 218.614 16.4319C217.972 15.9561 217.407 15.2165 216.839 14.649C216.193 14.0029 215.581 13.6674 214.749 13.2984C213.057 12.5489 211.354 11.826 209.64 11.1282C206.17 9.7159 202.653 8.41377 199.096 7.23685C192.022 4.89636 184.78 3.03165 177.432 1.78294C163.023 -0.666054 148.169 -0.737839 133.874 2.48075C126.469 4.14847 119.265 6.69262 112.468 10.0715C110.819 10.8911 109.246 11.609 107.939 12.9145C107.162 13.6907 106.439 14.4937 105.451 15.0045C104.589 15.4519 103.675 15.7708 102.767 16.1047C101.064 16.729 99.9563 17.5954 98.5947 18.754C97.0275 20.0878 95.3952 21.3466 93.7262 22.5519C90.5434 24.8523 87.2287 26.9591 83.949 29.1176C82.3852 30.1476 80.8282 31.191 79.2995 32.2727C78.5326 32.8153 77.7724 33.3695 77.0239 33.9354C76.1752 34.5765 75.4367 34.7551 74.4309 35.0523C67.6845 37.0422 62.0073 41.3292 56.265 45.2205C53.3462 47.1988 50.369 49.0835 47.208 50.6527C46.7452 50.8848 48.2571 52.1185 48.7767 51.8614Z" fill="#A8645F"></path>
<path d="M116.546 423.363C114.267 438.624 112.59 454.026 108.762 469.009C104.936 483.985 99.4728 498.469 94.9267 513.228C92.3471 521.603 90.1551 530.09 88.1385 538.616C87.9364 539.471 89.5536 540.614 89.8159 539.509C91.6086 531.93 93.54 524.383 95.7587 516.917C97.9624 509.505 100.452 502.181 102.881 494.843C105.309 487.513 107.688 480.161 109.701 472.703C111.714 465.243 113.221 457.669 114.458 450.043C115.849 441.467 116.94 432.847 118.223 424.254C118.352 423.391 116.711 422.254 116.546 423.363Z" fill="#A8645F"></path>
<path d="M158.644 232.855C165.345 235.737 172.845 236.339 179.892 234.389C186.727 232.498 192.827 228.396 197.147 222.774C199.685 219.472 201.518 215.702 202.654 211.702C202.838 211.056 201.495 209.596 201.227 210.534C199.294 217.347 195.093 223.39 189.374 227.57C183.833 231.618 177.054 233.833 170.184 233.74C166.169 233.687 162.167 232.819 158.478 231.233C157.407 230.772 158.007 232.581 158.644 232.855Z" fill="#A8645F"></path>
<path d="M146.622 227.009C149.514 228.547 152.386 230.124 155.335 231.551C155.863 231.807 157.37 230.525 156.844 230.269C153.895 228.842 151.023 227.264 148.131 225.727C147.62 225.457 146.091 226.727 146.622 227.009Z" fill="#A8645F"></path>
<path d="M249.332 325.638C250.147 332.934 251.726 340.117 253.799 347.155C255.869 354.183 258.733 360.963 260.564 368.061C262.333 374.925 262.743 382.005 261.62 389.012C260.529 395.823 258.11 402.352 254.994 408.487C251.821 414.737 248.221 420.757 244.862 426.907C241.432 433.189 238.392 439.603 236.018 446.36C231.042 460.519 227.709 475.162 223.838 489.641C219.89 504.41 215.16 518.954 210.437 533.488C209.849 535.299 209.261 537.109 208.674 538.92C208.544 539.324 210.492 539.928 210.634 539.489C215.327 524.987 220.132 510.515 224.256 495.838C228.337 481.311 231.57 466.55 236.21 452.182C238.427 445.317 241.008 438.658 244.299 432.232C247.52 425.945 251.148 419.881 254.518 413.675C257.851 407.539 260.85 401.247 262.57 394.451C264.211 387.975 264.669 381.252 263.745 374.63C262.726 367.333 260.008 360.437 257.64 353.504C255.241 346.479 253.311 339.272 252.09 331.945C251.773 330.039 251.509 328.126 251.293 326.206C251.226 325.622 249.307 325.411 249.332 325.638Z" fill="#A8645F"></path>
<path d="M257.681 168.3C256.849 171.447 256.092 174.633 254.855 177.653C253.5 180.962 251.516 183.949 249.337 186.77C247.048 189.731 244.495 192.469 242.307 195.509C240.128 198.534 238.165 201.706 236.04 204.768C235.027 206.227 233.975 207.654 232.852 209.031C231.941 210.15 230.996 211.241 230.16 212.418C228.495 214.767 227.633 217.4 226.862 220.144C226.137 222.727 225.529 225.405 225.628 228.102C225.72 230.652 226.667 233.481 228.583 235.246C229.542 236.129 230.809 236.653 232.05 237C233.358 237.367 234.867 237.611 236.193 237.207C237.306 236.868 237.573 236.064 237.964 235.049C238.384 233.957 238.681 232.783 239.207 231.737C239.343 231.466 238.918 230.777 238.793 230.545C238.741 230.448 238.38 229.79 238.275 230.002C237.844 230.862 237.583 231.82 237.254 232.72C236.999 233.421 236.756 234.545 236.113 235.002C235.213 235.645 233.889 235.623 232.845 235.494C231.542 235.334 230.231 234.918 229.076 234.294C228.249 233.848 227.41 233.191 227.023 232.311C226.563 231.266 226.528 229.959 226.557 228.839C226.622 226.249 227.265 223.7 227.985 221.226C228.772 218.517 229.706 216.019 231.417 213.741C233.271 211.268 235.296 208.956 237.057 206.407C239.057 203.512 240.92 200.524 242.963 197.659C245.048 194.735 247.466 192.094 249.693 189.281C251.97 186.401 254.089 183.346 255.551 179.965C256.929 176.777 257.732 173.383 258.618 170.038C258.708 169.697 258.359 169.133 258.204 168.846C258.157 168.765 257.738 168.083 257.681 168.3Z" fill="#A8645F"></path>
<path d="M171.881 206.1C171.951 209.569 171.009 212.916 169.119 215.829C167.264 218.69 164.661 221.007 161.794 222.825C158.615 224.844 155.088 226.284 151.311 226.605C149.723 226.74 147.832 226.738 146.364 226.045C145.167 225.481 144.16 224.439 143.41 223.373C141.811 221.101 140.411 217.259 142.989 215.144C143.936 214.368 142.491 212.939 141.59 213.677C138.857 215.919 139.346 219.72 140.758 222.566C141.502 224.066 142.556 225.456 143.844 226.53C145.227 227.681 146.77 228.249 148.556 228.451C152.811 228.934 157.188 227.636 160.906 225.638C164.311 223.807 167.435 221.416 169.821 218.355C172.517 214.896 173.949 210.657 173.861 206.27C173.837 205.116 171.854 204.832 171.881 206.1Z" fill="#A8645F"></path>
</svg>