<svg width="520" height="802" viewBox="0 0 520 802" fill="none" xmlns="http://www.w3.org/2000/svg">
<path d="M164.529 332.506C185.403 327.414 206.086 330.353 226.281 336.852C245.522 343.042 264.023 351.463 283.724 356.208C290.728 357.896 298.022 359.274 304.807 356.071C308.416 354.366 311.524 351.772 314.478 349.128C317.194 346.695 320.353 344.07 322.157 340.83C324.628 336.39 320.465 335.198 316.664 335.151C306.727 335.027 297.261 339.046 287.361 339.418C275.593 339.86 263.363 336.67 251.978 334.031C240.365 331.34 228.791 328.487 217.155 325.899C207.418 323.735 197.651 321.588 187.732 320.461C177.624 319.312 167.437 318.725 157.411 316.926C149.513 315.507 140.48 313.563 134.521 307.774C129.499 302.895 127.244 295.952 126.388 289.153C124.543 274.501 127.885 259.344 131.614 245.239C133.903 236.578 136.601 228.067 138.318 219.259C140.703 207.023 141.944 194.598 143.022 182.191C144.047 170.399 143.495 158.201 148.659 147.257C153.079 137.887 161.594 129.705 162.343 118.914C162.368 118.555 161.992 118.346 161.683 118.411C148.707 121.115 141.03 136.311 135.985 147.156C129.06 162.043 124.28 177.913 120.18 193.781C115.176 213.152 111.443 232.822 109.535 252.75C108.368 264.955 107.833 277.273 108.542 289.524C109.075 298.753 110.084 309.188 115.215 317.144C117.529 320.729 120.837 323.288 124.672 325.071C129.687 327.403 133.039 329.636 134.99 335.167C138.575 345.331 138.726 356.737 139.135 367.396C140.065 391.659 143.438 415.056 149.697 438.543C156.428 463.807 165.027 488.527 171.538 513.856C177.84 538.375 182.904 563.19 181.102 588.641C180.796 592.955 180.294 597.464 178.615 601.49C177.278 604.7 171.499 610.882 168.141 606.242C166.067 603.376 167.987 598.144 169.484 595.463C170.577 593.507 171.255 592.137 173.582 592.84C176.307 593.664 178.897 595.026 181.569 596.011C191.043 599.505 199.281 597.131 206.873 590.8C211.112 587.267 214.837 583.164 218.517 579.067C221.914 575.285 225.461 571.625 228.402 567.465C240.207 550.772 241.623 529.467 249.982 511.175C255.539 499.011 262.244 487.297 269.611 476.149C278.297 463.004 288.28 449.684 301.143 440.335C306.345 436.555 312.321 433.309 318.796 432.545C321.715 432.2 324.683 432.4 327.513 433.204C330.196 433.966 334.709 435.652 336.446 438.015C338.442 440.732 330.666 446.645 328.472 448.374C324.264 451.689 319.66 454.48 315.078 457.237C306.371 462.478 298.538 468.072 290.716 474.562C281.422 482.273 271.926 490.447 265.522 500.833C259.849 510.032 257.261 520.662 256.656 531.377C256 543.029 257.478 554.679 258.991 566.209C260.264 575.899 261.48 585.603 263.279 595.213C266.72 613.604 272.049 634.267 286.278 647.444C294.836 655.369 305.441 660.919 313.166 669.767C321.86 679.727 328.44 692.306 334.4 704.034C345.512 725.9 350.289 749.477 357.761 772.648C361.027 782.771 364.961 792.703 370.609 801.752C370.772 802.011 371.058 802.056 371.325 801.939C383.559 796.553 378.162 775.797 375.803 766.326C370.728 745.953 362.323 726.368 353.679 707.296C347.183 692.96 340.45 678.63 333.268 664.619C318.73 636.26 297.979 610.938 287.667 580.476C282.751 565.958 280.756 550.378 284.56 535.351C287.315 524.471 292.489 514.024 297.778 504.182C309.269 482.798 324.739 459.467 346.645 447.631C356.756 442.168 368.383 440.282 379.263 444.66C394.316 450.716 405.392 464.931 415.485 477.031C427.046 490.891 438.647 504.534 449.212 519.196C459.635 533.659 470.703 548.111 478.953 563.962C494.934 594.666 501.792 629.138 508.998 662.695C512.813 680.463 518.581 698.599 518.776 716.884C518.921 730.505 515.237 746.31 500.144 749.754C488.906 752.319 476.638 748.585 466.085 744.866C453.045 740.269 440.274 734.595 428.13 727.994C398.349 711.805 371.982 690.27 344.033 671.26C318.398 653.824 289.155 635.01 257.158 634.471C228.927 633.995 200.157 645.779 180.975 666.637C173.569 674.689 167.033 683.696 161.582 693.177C156.126 702.669 151.127 713.465 150.73 724.593C150.408 733.664 154.238 742.286 162.317 746.878C168.79 750.557 176.537 750.452 183.534 748.478C214.173 739.836 248.227 692.19 215.849 666.498C209.072 661.122 200.923 658.18 192.951 655.083C182.568 651.049 172.108 647.056 162.291 641.745C153.979 637.247 144.381 631.296 140.645 622.138C136.244 611.348 143.787 600.832 151.089 593.453C158.666 585.797 165.844 578.824 166.442 567.386C166.792 560.666 165.88 541.738 155.659 541.694C150.943 541.674 146.922 546.05 144.19 549.365C139.751 554.75 135.892 560.138 130.46 564.623C119.528 573.648 106.121 578.944 92.8261 583.416C66.7551 592.186 39.1893 598.936 20.3925 620.588C0.566907 643.424 -1.23912 673.603 0.518364 702.448C1.37184 716.46 3.35271 730.527 3.29446 744.576C3.24342 756.778 1.97489 769.7 5.67337 781.535C7.03282 785.884 9.24742 790.137 12.9842 792.897C19.0616 797.383 26.6394 796.2 33.4924 794.56C37.2919 793.65 41.0589 792.513 44.963 792.145C48.7836 791.783 52.6356 791.902 56.4676 791.927C62.8186 791.969 69.8293 792.13 75.6866 789.267C87.0169 783.728 92.0306 769.496 94.5735 758.059C96.8377 747.872 97.4453 737.373 97.9985 726.975C98.5048 717.468 99.2668 706.228 95.3408 697.284C93.3564 692.764 87.7111 688.349 83.2725 692.728C78.7723 697.166 78.7389 705.936 78.5833 711.74C78.3224 721.511 79.2953 731.336 80.7202 740.992C81.858 748.701 83.0752 756.769 85.7934 764.111C87.6192 769.042 92.2697 776.287 98.0016 777.074C103.725 777.86 107.326 771.354 109.331 767.026C113.001 759.102 114.962 750.349 116.52 741.795C117.769 734.938 118.887 727.898 119.034 720.916C119.315 707.612 120.866 694.738 128.327 683.369C135.269 672.794 145.54 664.781 155.038 656.64C167.563 645.907 180.402 635.23 191.407 622.899C201.747 611.316 210.406 597.92 214.135 582.7C217.984 566.985 217.963 550.412 216.828 534.365C215.683 518.168 212.164 502.884 205.99 487.848C200.044 473.364 192.525 459.609 185.962 445.408C182.388 437.675 179.099 429.796 176.52 421.669C174.513 415.338 173.398 408.801 171.466 402.458C169.667 396.554 167.61 390.725 166.227 384.702C164.866 378.78 163.51 371.422 166.463 365.739C172.352 354.398 190.299 360.551 199.415 363.377C210.726 366.883 221.618 371.834 233.239 374.257C249.543 377.659 268.914 382.65 285.266 376.825C290.45 374.978 294.909 371.022 299.378 367.929C304.238 364.564 311.73 359.037 316.841 365.203C320.622 369.763 318.628 377.221 317.787 382.462C316.693 389.28 317.089 396.419 315.162 403.089C314.225 406.332 311.526 412.907 307.695 413.562C303.164 414.337 303.653 405.741 303.874 403.001C304.585 394.188 308.048 385.815 312.081 378.047C315.767 370.948 320.033 364.175 323.881 357.165C327.764 350.09 330.699 342.917 333.136 335.233C339.009 316.713 344.364 298.034 350.242 279.516C353.107 270.493 356.092 261.506 359.337 252.611C361.213 247.465 363.243 242.373 364.551 237.042C366.697 228.299 367.408 216.969 357.406 213.128C357.184 213.043 356.937 213.188 356.818 213.368C351.899 220.796 351.001 231.815 351.07 240.471C351.133 248.244 352.498 255.237 360.093 258.698C366.688 261.701 376.815 262.424 374.508 272.231C373.568 276.23 371.261 279.646 369.548 283.321C367.517 287.677 366.113 292.322 364.833 296.944C363.405 302.103 362.207 307.32 360.95 312.521C360.222 315.532 359.791 319.618 358.016 322.248C352.841 329.918 346.128 317.593 343.345 314.011C339.482 309.039 334.639 304.942 329.507 301.339C324.077 297.528 318.283 294.277 312.498 291.048C306.782 287.857 301.201 284.404 295.22 281.724C289.551 279.185 283.658 277.052 278.318 273.838C272.538 270.36 268.43 265.644 265.245 259.752C260.307 250.62 256.788 239.667 248.704 232.69C244.6 229.15 240.831 228.409 235.54 228.453C228.919 228.508 224.45 222.966 217.708 223.337C211.569 223.674 206.455 227.253 201.632 230.728C197.003 234.064 192.418 237.513 188.386 241.567C185.001 244.972 181.633 249.018 180.975 253.945C180.658 256.31 181.166 258.324 183.885 258.111C187.887 257.799 192.108 254.587 195.759 253.134C201.779 250.739 207.775 248.204 213.991 246.354C220.78 244.334 227.419 243.351 234.342 245.187C237.577 246.046 240.799 247.11 243.771 248.664C247.731 250.736 249.788 253.155 251.124 257.362C253.03 263.371 258.173 263.367 262.852 266.496C264.386 267.523 270.515 271.613 268.16 273.866C266.578 275.377 262.127 274.75 260.197 274.648C256.298 274.443 252.415 273.902 248.561 273.302C240.593 272.061 232.414 270.886 224.624 268.84C217.434 266.953 210.473 264.342 203.464 261.89C200.646 260.904 194.419 260.028 192.719 257.669C191.192 255.551 192.275 252.017 194.182 250.363C200.63 244.771 212.913 250.498 219.795 252.44C227.486 254.609 235.42 255.69 243.221 257.369C248.013 258.401 252.687 259.983 257.502 260.894C263.693 262.065 268.601 260.552 266.706 253.319C265.196 247.561 261.85 242.806 257.393 238.953C254.032 236.048 247.705 232.804 246.257 228.322C244.699 223.498 246.984 209.994 239.29 209.235C234.334 208.746 230.447 215.791 230.374 219.973C230.282 225.217 235.179 226.452 238.552 223.122C243.974 217.767 246.402 209.587 249.828 202.954C252.079 198.598 258.119 192.883 262.766 197.434C267.657 202.222 267.172 211.991 265.687 218.028C265.075 220.514 264.025 223.364 261.016 222.244C259.178 221.56 257.602 219.726 256.252 218.368C253.434 215.531 250.87 212.244 247.54 209.975C238.061 203.521 229.733 212.632 220.309 213.666C213.163 214.449 208.85 209.522 210.681 202.714C212.001 197.806 215.032 193.141 218.395 189.384C223.868 183.269 234.449 181.874 241.685 186.018C246.956 189.038 243.664 196.811 237.963 196.805C232.229 196.798 228.087 188.787 227.769 183.851C227.395 178.054 231.649 172.407 234.175 167.457C236.814 162.289 238.163 157.114 237.974 151.292C237.571 138.856 234.134 125.067 224.49 116.504C215.35 108.389 203.639 109.599 192.763 113.047C187.569 114.693 181.934 115.846 177.077 118.369C174.666 119.621 169.74 123.307 170.548 126.612C171.167 129.143 175.014 128.249 176.802 127.945C183.532 126.801 190.054 124.64 196.764 123.381C203.96 122.032 212.836 121.234 219.415 125.163C223.496 127.6 226.894 132.013 229.415 135.931C231.814 139.659 235.299 145.825 232.852 150.304C228.894 157.551 223.548 147.491 221.517 144.171C215.89 134.979 205.454 133.912 195.48 135.426C188.972 136.416 182.787 138.955 177.231 142.452C172.858 145.205 168.056 148.385 166.059 153.342C165.894 153.754 166.358 154.04 166.701 153.985C177.874 152.178 187.905 142.707 199.737 145.7C203.471 146.644 207.115 148.335 210.489 150.153C213.616 151.838 218.787 154.513 219.723 158.287C220.003 159.42 219.881 160.891 218.906 161.711C217.273 163.083 215.378 161.465 214.079 160.446C212.63 159.307 211.416 157.876 209.934 156.783C206.288 154.096 201.571 152.58 197.118 152.025C187.142 150.781 173.729 151.158 165.891 158.284C165.696 158.46 165.681 158.849 165.891 159.022C169.127 161.692 173.677 162.604 177.696 163.325C183.84 164.427 190.122 164.821 196.357 164.852C205.375 164.896 218.902 165.568 224.856 157.315C228.473 152.302 229.677 145.132 227.824 139.224C226.016 133.46 221.281 129.223 216.244 126.211C210.558 122.81 204.126 120.617 197.69 119.156C195.584 118.679 194.781 118.688 194.998 116.295C195.179 114.315 195.82 112.446 196.636 110.639C198.357 106.825 200.819 103.384 203.111 99.9032C207.572 93.1278 210.233 85.5523 213.689 78.2578C217.806 69.5687 223.427 62.0684 231.26 56.3815C246.79 45.1049 265.466 45.834 282.722 52.4809C312.506 63.9528 338.76 86.34 350.501 116.461C356.071 130.751 358.508 146.07 359.02 161.348C359.175 165.947 362.192 195.264 353.92 192.854C351.501 192.149 350.149 188.293 349.325 186.225C348.166 183.316 347.309 180.284 346.493 177.263C345.153 172.306 343.842 167.666 341.681 162.985C336.122 150.943 327.592 138.574 314.524 134.039C307.689 131.669 300.228 131.891 293.333 133.903C289.922 134.899 283.463 136.982 282.744 141.24C282.075 145.203 287.49 146.427 290.316 146.798C300.105 148.082 309.982 145.899 319.796 147.786C328.335 149.429 337.151 153.371 342.046 160.892C345.727 166.548 346.972 174.049 345.415 180.637C344.775 183.35 343.436 186.718 340.145 186.665C335.708 186.594 332.625 181.469 330.565 178.223C326.182 171.316 321.847 165.157 315.316 160.016C307.409 153.791 294.956 152.542 286.312 158.357C283.624 160.164 279.891 164.663 281.477 168.231C282.883 171.392 288.15 170.845 290.859 170.679C296.126 170.356 301.59 168.887 306.876 169.341C312.867 169.854 319.592 173.067 324.352 176.61C327.156 178.697 329.801 181.475 330.644 184.969C330.999 186.437 331.404 189.301 329.945 189.925C328.954 190.348 323.975 187.312 322.9 186.746C316.898 183.59 311.323 179.508 304.93 177.137C298.447 174.732 291.829 174.891 285.212 176.68C284.801 176.791 284.743 177.258 284.981 177.553C289.204 182.788 297.785 184.914 303.89 186.802C311.55 189.173 319.86 191.958 327.875 192.731C335.143 193.431 342.23 192.643 348.728 196.627C352.156 198.729 355.571 201.462 359.828 201.061C366.945 200.394 369.947 191.895 371.788 186.102C378.983 163.46 380.255 139.273 371.206 116.898C366.656 105.651 359.96 95.4803 353.409 85.3308C346.878 75.2075 344.741 63.3375 336.74 54.0342C328.723 44.7131 318.031 37.2191 306.411 33.1566C294.403 28.9593 280.623 34.8969 269.129 29.1525C268.729 28.952 268.243 29.282 268.362 29.7427C269.218 33.0322 273.02 43.141 266.131 41.5626C258.718 39.8619 262.06 33.2088 263.496 28.3607C266.146 19.4157 262.324 10.5647 254.863 5.28418C246.307 -0.770386 235.447 -0.606384 225.491 0.827881C214.224 2.4491 203.394 6.52411 193.593 12.2737C173.899 23.826 157.895 42.0911 149.105 63.1787C147.013 68.1971 135.844 95.9921 150.987 92.336C156.835 90.9237 162.175 86.7975 166.8 83.1455C172.673 78.5085 178.21 73.3 183.03 67.5661C186.653 63.255 189.631 58.7465 190.085 52.9468C190.467 48.0789 187.801 45.1028 182.891 45.272C176.704 45.4851 170.399 48.8185 165.227 51.9523C157.96 56.3543 153.253 62.0349 148.056 68.7392C139.629 79.6053 131.8 90.9122 124.596 102.624C117.132 114.759 109.367 126.742 102.927 139.468C96.5392 152.085 92.2248 164.978 90.088 178.966C87.8259 193.776 86.5795 208.741 86.5544 223.727C86.5022 254.455 93.2666 284.529 94.7854 315.143C95.1445 322.39 95.1759 329.643 94.752 336.887C94.7124 337.559 95.7563 337.557 95.7959 336.887C97.4244 309.023 92.0494 281.546 89.162 253.956C87.6589 239.585 87.235 225.11 87.9219 210.677C88.6119 196.172 89.8834 181.182 93.3585 167.053C99.6552 141.452 115.637 118.285 129.731 96.3818C137.029 85.0404 144.958 74.0731 153.452 63.5997C157.796 58.2419 162.805 54.3141 168.904 51.0612C173.251 48.7422 181.879 44.0738 186.866 47.0562C192.032 50.1451 187.814 59.3283 185.264 62.9938C181.533 68.3558 176.752 73.0838 171.922 77.4461C166.802 82.0695 161.24 86.6356 155.006 89.6796C150.849 91.7082 144.75 93.3879 144.209 86.9468C143.858 82.7684 145.25 78.2462 146.354 74.2715C147.872 68.8092 149.921 63.4963 152.398 58.3986C162.291 38.0308 179.015 20.663 199.215 10.3871C209.365 5.22357 220.502 1.89856 231.894 1.22058C243.083 0.555176 255.506 3.04871 261.223 13.8834C263.932 19.0156 263.716 24.4811 261.9 29.841C260.962 32.6092 259.513 36.0146 260.743 38.926C262.45 42.9665 270.573 44.9774 271.264 39.3334C271.662 36.0815 270.172 32.5528 269.37 29.4649C269.114 29.6613 268.858 29.8577 268.602 30.0551C278.846 35.1747 290.761 30.9619 301.602 32.9299C314.082 35.1957 326.321 44.1292 334.7 53.3103C343.937 63.4316 346.696 76.8538 354.016 88.192C361.39 99.6138 368.805 111.276 372.757 124.403C377.234 139.276 378.047 155.562 374.76 170.751C373.769 175.327 372.553 179.932 371.214 184.42C369.837 189.031 368.171 194.326 364.588 197.734C359.179 202.879 353.343 198.042 348.319 195.159C343.108 192.169 337.358 192.114 331.509 191.893C322.031 191.534 312.186 188.338 303.181 185.487C298.322 183.949 293.215 182.312 288.897 179.535C288.273 179.133 286.693 178.344 286.429 177.63C285.99 176.446 286.129 177.757 286.791 177.335C287.375 176.962 288.612 176.914 289.296 176.79C292.981 176.122 296.75 176.116 300.417 176.896C311.422 179.241 320.238 187.588 330.78 191.327C331.045 191.421 331.354 191.219 331.422 190.962C333.937 181.525 325.652 175.239 317.998 171.763C314.571 170.208 310.668 168.572 306.876 168.296C302.549 167.981 298.094 168.949 293.804 169.381C290.903 169.674 282.602 171.17 282.283 166.739C281.869 160.966 288.812 157.636 293.376 156.565C297.986 155.483 303.27 155.381 307.817 156.827C314.104 158.828 319.713 164.819 323.815 169.8C327.558 174.343 333.626 190.637 342.122 187.398C348.57 184.939 347.516 172.749 346.16 167.651C343.093 156.115 332.59 149.559 321.515 147.076C314.385 145.478 307.055 145.712 299.802 145.904C297.142 145.975 280.519 146.782 284.266 140.257C287.252 135.055 297.118 133.668 302.373 133.403C308.762 133.081 315.02 134.675 320.473 138.02C331.258 144.636 338.489 156.806 342.88 168.391C345.662 175.733 346.112 184.224 350.476 190.932C354.46 197.054 359.131 192.273 360.145 186.881C361.709 178.552 360.357 169.198 360.045 160.766C359.61 149.024 358.059 137.273 354.806 125.965C348.479 103.976 335.414 85.0132 317.354 71.0134C307.298 63.2184 296.005 56.6802 284.196 51.944C272.458 47.2369 259.41 44.6077 246.924 47.7802C234.172 51.0205 223.002 59.929 216.266 71.145C212.945 76.6762 210.596 82.7089 207.995 88.5942C205.441 94.3688 202.078 99.3328 198.749 104.665C196.068 108.958 193.37 113.802 194.011 119.036C194.037 119.253 194.153 119.494 194.394 119.54C203.024 121.188 211.944 123.985 219.029 129.344C227.516 135.762 230.555 147.158 224.239 156.369C219.759 162.902 211.036 163.229 203.844 163.627C195.665 164.079 187.329 163.831 179.233 162.53C175.982 162.007 172.647 161.349 169.612 160.028C167.9 159.282 166.805 159.164 168.3 157.643C170.234 155.675 173.638 154.722 176.236 154.081C186.191 151.625 200.137 151.299 208.884 157.314C211.509 159.119 217.814 167.101 220.511 161.138C222.488 156.767 216.996 152.91 213.915 150.944C209.384 148.05 203.659 145.123 198.266 144.326C188.426 142.873 180.25 148.943 171.343 151.815C170.627 152.046 168.825 152.904 168.097 152.682C167.318 152.444 167.627 152.724 167.963 151.716C168.195 151.017 169.094 150.178 169.592 149.63C171.725 147.283 174.558 145.426 177.203 143.714C182.094 140.548 187.485 138.128 193.194 136.902C198.93 135.671 205.542 135.462 211.26 137.017C215.704 138.226 218.732 141.559 221.023 145.383C223.001 148.682 226.836 156.492 231.788 153.045C236.486 149.773 234.409 143.091 232.337 138.925C229.607 133.437 225.105 127.263 219.702 124.116C211.071 119.089 199.399 121.544 190.329 123.718C185.614 124.849 180.906 126.271 176.107 127.012C173.299 127.444 170.523 127.123 172.667 123.673C174.371 120.932 176.961 119.412 179.888 118.239C184.14 116.537 188.676 115.436 193.041 114.054C198.047 112.469 203.272 111.166 208.559 111.286C233.355 111.846 242.838 148.197 233.274 166.93C229.97 173.401 225 180.122 227.532 187.672C229.061 192.234 233.456 198.844 239.154 197.746C243.185 196.969 247.424 191.307 244.854 187.389C242.231 183.389 235.557 182.816 231.284 182.857C225.677 182.91 221.404 184.459 217.657 188.645C213.52 193.267 209.011 199.956 209.098 206.433C209.18 212.509 214.92 215.336 220.45 214.72C228.953 213.772 236.734 205.468 245.5 209.968C251.362 212.977 254.284 219.774 260.014 222.895C265.087 225.659 266.64 219.401 267.198 215.529C268.063 209.54 268.27 198.949 261.933 195.47C257.059 192.793 251.536 197.612 249.302 201.708C246.233 207.337 244.055 213.413 240.556 218.818C239.315 220.736 236.884 224.7 234.081 224.167C230.782 223.539 231.228 219.206 232.067 216.93C232.984 214.443 234.995 211.285 237.684 210.476C241.737 209.256 243.281 214.437 243.92 217.408C244.69 220.981 244.244 224.859 245.194 228.368C245.851 230.791 247.853 232.394 249.686 233.969C253.415 237.174 257.63 239.963 260.773 243.792C263.184 246.727 268.183 254.624 265.724 258.663C262.884 263.327 251.088 258.161 247.144 257.196C235.94 254.454 224.687 252.746 213.619 249.407C208.46 247.852 202.182 246.324 196.85 247.863C191.687 249.355 190.517 253.909 191.3 258.784C191.328 258.96 191.504 259.101 191.664 259.149C202.656 262.41 213.248 266.94 224.346 269.847C230.602 271.486 237.037 272.404 243.408 273.504C248.55 274.392 253.729 275.238 258.938 275.612C261.532 275.799 267.152 276.66 269.219 274.367C271.378 271.972 267.494 268.864 265.879 267.519C262.997 265.116 259.992 264.143 256.706 262.493C251.601 259.931 252.515 254.063 248.515 250.551C242.808 245.541 233.132 242.718 225.627 243.069C215.851 243.527 206.511 247.748 197.549 251.311C194.626 252.472 191.803 253.69 188.97 255.063C187.626 255.714 185.782 256.979 184.239 256.99C180.204 257.02 182.402 251.626 183.49 249.52C187.9 240.986 197.608 234.589 205.367 229.361C210.288 226.047 216.412 222.99 222.489 224.863C226.463 226.088 229.411 229.119 233.696 229.476C236.455 229.706 239.21 229.041 241.922 229.871C244.138 230.55 246.224 231.932 247.966 233.429C251.433 236.41 253.987 240.323 256.216 244.275C260.333 251.576 263.106 259.898 268.294 266.548C273.537 273.267 281.25 276.86 288.892 280.126C298.046 284.037 306.557 288.876 315.216 293.768C324.372 298.94 333.689 304.488 340.715 312.46C343.918 316.095 348.34 326.241 354.425 325.643C359.625 325.132 360.483 318.766 361.465 314.813C363.408 306.997 365.079 299.104 367.563 291.434C369.456 285.59 372.802 280.496 374.833 274.761C376.425 270.267 376.657 265.439 372.338 262.523C368.099 259.661 362.653 259.29 358.308 256.59C351.666 252.464 351.844 243.45 352.208 236.508C352.432 232.238 353.007 227.972 353.973 223.806C354.371 222.094 354.83 220.391 355.414 218.733C355.731 217.83 356.071 216.931 356.487 216.068C357.166 214.653 356.987 214.278 358.666 214.784C366.781 217.228 365.12 229.948 363.754 235.885C361.799 244.389 358.198 252.498 355.353 260.721C347.282 284.045 340.639 307.826 333.259 331.37C329.838 342.289 325.596 352.209 319.878 362.122C314.954 370.658 309.728 379.116 306.271 388.386C303.844 394.897 300.207 405.972 303.993 412.658C307.378 418.638 313.007 410.449 314.619 407.314C318.441 399.881 317.529 390.792 318.793 382.74C319.655 377.247 321.513 370.222 318.167 365.192C314.853 360.21 309.059 360.917 304.505 363.417C297.851 367.073 292.182 373.216 284.988 375.818C273.385 380.014 259.434 378.146 247.619 376.06C238.859 374.514 230.077 372.868 221.652 369.973C214.163 367.401 206.773 364.541 199.2 362.216C192.256 360.085 184.714 357.906 177.367 358.372C162.591 359.309 162.682 374.243 165.331 385.462C167.063 392.791 169.916 399.797 171.685 407.109C173.99 416.631 176.541 425.839 180.25 434.93C188.117 454.208 198.829 472.191 206.376 491.607C214.107 511.496 216.68 532.344 216.383 553.604C216.229 564.693 215.21 575.943 211.994 586.598C208.944 596.702 203.505 606.018 197.129 614.371C184.382 631.069 167.617 644.506 151.747 658.087C140.419 667.78 128.45 677.709 122.668 691.879C117.709 704.03 118.782 716.678 117.322 729.397C116.029 740.657 113.977 752.192 109.957 762.827C108.373 767.02 106.247 772.364 102.336 774.96C98.1728 777.722 94.1633 774.617 91.4294 771.358C85.1128 763.83 83.7892 753.504 82.2536 744.106C80.2337 731.748 78.7483 718.798 79.9435 706.278C80.3308 702.222 80.8799 696.496 84.0105 693.466C87.7184 689.877 92.3814 693.486 94.1654 697.207C97.2501 703.638 97.2521 711.635 97.2166 718.614C97.1874 724.5 96.7125 730.352 96.3346 736.22C95.2896 752.439 93.1424 772.605 80.6387 784.443C73.0236 791.65 62.6485 790.888 52.8944 790.853C48.7408 790.84 44.6238 790.938 40.5443 791.78C34.9151 792.94 29.345 795.026 23.5356 795.044C2.52617 795.111 3.97946 766.305 4.22905 751.859C4.5418 733.744 2.17877 715.809 1.30253 697.737C0.37525 678.614 1.00158 658.758 8.75241 640.941C16.6211 622.852 31.2526 609.05 48.7847 600.436C78.9487 585.615 118.441 583.749 140.681 555.716C144.096 551.411 151.654 538.816 158.874 543.774C162.137 546.015 163.381 550.704 164.185 554.335C165.392 559.788 165.974 565.713 164.952 571.25C162.234 585.972 146.85 592.705 140.724 605.649C128.848 630.741 164.658 644.907 182.143 651.956C193.311 656.459 205.917 659.819 215.438 667.496C225.468 675.582 229.659 687.683 227.104 700.253C224.567 712.727 216.923 723.979 207.81 732.633C199.415 740.604 188.443 747.73 176.629 748.713C163.93 749.769 152.851 741.198 151.836 728.17C150.655 713.029 159.442 697.705 167.539 685.57C176.378 672.323 186.909 660.413 200.41 651.773C217.538 640.809 238.01 634.946 258.357 635.543C279.828 636.173 299.263 645.359 317.612 655.837C336.172 666.436 353.503 679.008 370.818 691.496C402.083 714.045 434.284 736.317 471.516 747.764C482.942 751.276 498.001 754.685 508.65 747.213C523.392 736.867 520.539 713.084 517.761 697.952C515.769 687.097 513.014 676.378 510.687 665.591C508.374 654.869 506.124 644.131 503.635 633.448C498.821 612.792 493.139 592.191 484.397 572.813C475.079 552.163 461.219 533.898 447.941 515.669C435.1 498.037 421.038 481.014 406.384 464.852C395.807 453.185 382.603 440.778 365.793 441.103C352.359 441.363 340.325 449.174 330.724 457.965C319.046 468.658 309.603 481.786 301.559 495.361C294.45 507.357 287.538 520.389 283.856 533.924C273.492 572.017 298.686 608.66 317.584 639.505C330.581 660.713 341.452 683.028 351.784 705.64C357.608 718.383 363.134 731.283 367.894 744.465C372.085 756.069 376.107 768.169 377.383 780.504C377.837 784.893 378.02 789.579 376.729 793.852C376.218 795.538 375.468 797.178 374.304 798.517C373.796 799.1 373.161 799.787 372.47 800.144C370.58 801.121 370.744 800.045 369.642 798.129C358.987 779.622 354.832 758.135 348.837 737.864C342.517 716.496 332.807 696.574 320.49 678.007C314.714 669.302 307.849 662.757 299.477 656.576C291.321 650.553 283.611 644.62 278.219 635.887C268.2 619.666 264.726 599.855 262.055 581.264C259.148 561.037 254.823 539.257 259.362 518.992C264.345 496.735 282.413 482.426 299.314 468.816C311.673 458.864 330.34 453.411 338.416 438.9C338.524 438.708 338.509 438.421 338.335 438.267C312.165 415.217 282.362 455.187 269.44 474.523C261.307 486.691 253.843 499.587 248.015 513.035C243.321 523.867 240.89 535.386 237.266 546.576C235.261 552.767 232.752 558.798 229.264 564.31C225.804 569.775 221.312 574.414 217 579.195C207.818 589.377 197.275 600.486 182.393 595.207C179.714 594.257 177.129 593.06 174.469 592.057C172.423 591.286 172.066 590.723 170.605 592.116C168.355 594.259 167.016 597.807 166.529 600.806C165.598 606.544 169.304 610.789 175.104 607.585C181.544 604.027 181.902 593.362 182.248 586.986C183.795 558.498 177.38 530.802 169.873 503.511C162.112 475.289 152.138 447.657 146.056 418.987C142.997 404.572 141.039 389.973 140.464 375.243C140.017 363.775 140.005 352.09 137.61 340.816C136.659 336.345 135.379 331.179 131.915 327.941C128.82 325.05 124.378 324.26 120.989 321.777C110.351 313.983 109.779 297.044 109.384 285.08C108.481 257.69 112.492 229.926 118.878 203.344C123.024 186.087 127.789 168.826 134.756 152.471C138.376 143.974 142.602 135.356 148.658 128.304C151.021 125.553 153.742 122.97 156.955 121.239C157.82 120.773 158.717 120.36 159.645 120.038C159.875 119.958 160.264 119.759 160.507 119.766C161.665 119.804 160.933 119.04 161.23 120.28C161.473 121.295 160.545 123.393 160.194 124.415C159.464 126.541 158.45 128.571 157.364 130.533C154.095 136.443 149.908 141.823 147.163 148.022C144.942 153.039 143.775 158.335 143.271 163.781C141.883 178.761 141.264 193.745 139.064 208.657C135.991 229.491 128.016 249.204 125.579 270.149C123.716 286.16 124.713 306.314 141.717 313.623C152.333 318.186 164.327 319.177 175.703 320.294C189.398 321.638 202.688 323.765 216.134 326.742C231.16 330.068 246.058 334.004 261.128 337.128C268.161 338.585 275.313 339.884 282.488 340.377C288.961 340.822 295.221 339.646 301.522 338.318C305.055 337.575 308.586 336.827 312.182 336.455C314.497 336.215 320.087 335.223 321.522 337.601C323.607 341.056 314.031 348.217 311.767 350.117C306.979 354.138 301.737 357.131 295.328 357.035C288.73 356.936 282.018 354.822 275.727 352.994C250.704 345.722 227.022 333.33 201.008 329.7C188.69 327.981 176.335 328.551 164.252 331.498C163.599 331.658 163.876 332.665 164.529 332.506Z" fill="#A8645F"></path>
</svg>