<svg width="451" height="480" viewBox="0 0 451 480" fill="none" xmlns="http://www.w3.org/2000/svg">
<path d="M247.539 0.968634C248.684 12.8357 251.567 24.477 256.111 35.4788C258.394 41.006 261.053 46.3645 264.062 51.5227C265.637 54.225 267.308 56.8717 269.06 59.4611C270.734 61.936 272.867 64.0737 274.741 66.3911C276.48 68.5416 278.81 70.3357 281.065 71.9024C283.369 73.5025 285.846 74.8322 288.456 75.8422C293.522 77.8001 299.12 78.3393 304.395 76.9476C305.706 76.6009 306.872 76.0776 308.099 75.5129C308.714 75.2314 309.35 75.0294 309.974 74.7749C310.645 74.5013 311.287 74.1196 311.922 73.7697C314.175 72.5338 316.35 71.1485 318.429 69.6311C322.625 66.5709 326.446 63.0017 329.832 59.0444C336.644 51.0837 341.716 41.7122 345.197 31.811C345.631 30.5767 346.038 29.3345 346.423 28.0843C346.791 26.893 344.944 26.3824 344.58 27.5706C341.587 37.2936 337.087 46.619 330.907 54.6847C327.828 58.7024 324.327 62.402 320.448 65.634C318.54 67.223 316.535 68.6879 314.449 70.0255C313.363 70.7222 312.255 71.3823 311.127 72.0058C310.618 72.2873 310.107 72.5752 309.584 72.8297C308.909 73.1573 308.178 73.38 307.488 73.6822C306.954 73.916 306.443 74.2039 305.911 74.4377C305.3 74.7065 304.63 74.8815 303.986 75.0533C302.693 75.4016 301.373 75.6338 300.038 75.7356C297.47 75.9313 294.895 75.6895 292.397 75.066C287.26 73.784 282.542 71.0228 278.576 67.5141C276.444 65.6277 274.694 63.3659 272.848 61.1996C270.903 58.9155 269.292 56.4073 267.707 53.8576C264.6 48.8617 261.808 43.6638 259.392 38.2909C254.669 27.7901 251.435 16.5847 249.922 5.14542C249.738 3.75528 249.583 2.36196 249.448 0.967045C249.397 0.446935 249.044 0 248.492 0C248.016 0.00159055 247.487 0.445344 247.539 0.968634Z" fill="#A8645F"></path>
<path d="M269.085 59.894C270.966 65.8442 272.689 71.8501 274.071 77.9403C275.477 84.1435 276.592 90.423 276.907 96.7868C277.067 100.038 277.079 103.298 276.892 106.548C276.798 108.178 276.655 109.807 276.456 111.428C276.28 112.862 276.181 114.453 275.709 115.826C275.093 117.623 273.269 118.501 271.593 119.021C270.634 119.318 269.654 119.528 268.672 119.724C267.379 119.983 266.07 120.022 264.756 120.126C258.621 120.623 252.514 121.517 246.494 122.816C243.498 123.463 240.524 124.211 237.574 125.051C234.908 125.811 232.268 126.622 229.723 127.74C225.233 129.716 220.981 132.69 218.465 137.04C215.592 142.006 215.527 148.136 216.027 153.703C216.564 159.672 217.713 165.551 217.642 171.568C217.568 177.824 216.737 184.052 216.844 190.313C216.869 191.808 216.954 193.3 217.111 194.785C217.166 195.309 217.512 195.748 218.066 195.752C218.541 195.757 219.077 195.304 219.022 194.785C218.36 188.525 219.059 182.237 219.396 175.98C219.56 172.901 219.647 169.809 219.421 166.731C219.205 163.778 218.776 160.845 218.406 157.908C217.681 152.167 217.039 146.1 218.965 140.519C220.621 135.723 224.683 132.378 229.049 130.182C231.404 128.997 233.881 128.159 236.399 127.408C239.342 126.532 242.313 125.746 245.305 125.06C251.296 123.688 257.373 122.719 263.493 122.17C265.042 122.03 266.67 122.065 268.197 121.785C269.132 121.615 270.069 121.423 270.991 121.194C272.895 120.72 274.932 120.002 276.292 118.499C277.01 117.707 277.505 116.739 277.724 115.686C278.039 114.156 278.231 112.586 278.413 111.033C278.798 107.752 278.957 104.444 278.938 101.14C278.919 97.9001 278.816 94.6093 278.402 91.3948C277.999 88.2535 277.493 85.128 276.885 82.0201C275.676 75.8487 274.08 69.7633 272.275 63.7447C271.836 62.2861 271.387 60.8308 270.928 59.3786C270.554 58.1984 268.708 58.7026 269.085 59.894Z" fill="#A8645F"></path>
<path d="M346.301 27.1207C344.238 38.7062 342.014 50.3538 341.764 62.1605C341.516 73.8717 343.461 85.7165 349.337 95.9517C350.816 98.5284 352.487 101.099 354.495 103.289C356.233 105.185 358.293 106.796 360.522 108.057C364.974 110.577 370.112 111.768 375.194 111.744C377.79 111.732 380.4 111.402 382.919 110.763C384.161 110.446 385.384 110.053 386.576 109.58C386.87 109.462 387.209 109.366 387.48 109.204C387.593 109.136 387.909 109.079 387.385 109.185C387.588 109.144 387.728 109.144 387.912 109.034C388.374 108.757 388.51 108.237 388.449 107.733C388.325 106.724 387.667 105.751 387.038 104.992C386.704 104.587 386.303 104.199 385.847 103.935C385.113 103.51 384.011 103.483 383.184 103.345C379.635 102.747 376.048 102.401 372.453 102.25C365.401 101.951 358.349 102.378 351.309 102.735C347.793 102.914 344.273 103.074 340.752 103.12C338.956 103.144 337.16 103.138 335.366 103.09C334.539 103.068 333.795 103.012 332.995 103.244C332.294 103.448 331.587 103.628 330.877 103.79C325.549 105.002 319.99 105.177 314.78 106.925C312.167 107.803 309.714 109.09 307.628 110.922C307.144 111.347 306.501 111.786 306.456 112.479C306.404 113.249 306.396 114.011 306.768 114.695C307.381 115.819 308.25 116.7 309.362 117.321C310.082 117.722 310.922 117.831 311.719 118.001C312.638 118.199 313.562 118.385 314.488 118.555C316.178 118.867 317.877 119.129 319.581 119.347C322.974 119.781 326.391 120.004 329.81 120.01C333.389 120.015 336.961 119.73 340.532 119.52C344.185 119.306 347.836 119.078 351.488 118.849C365.905 117.949 380.329 117.041 394.775 116.836C398.337 116.785 401.899 116.777 405.462 116.821C407.286 116.844 409.144 116.793 410.963 116.933C412.281 117.033 413.625 117.397 414.874 117.817C417.347 118.647 419.653 120.021 421.523 121.862C423.589 123.894 424.851 126.446 426.147 129.014C429.019 134.713 431.271 140.761 432.053 147.142C432.495 150.745 431.943 154.406 432.101 158.031C432.152 159.208 432.074 161.08 433.153 161.843C434.164 162.558 435.12 160.881 434.118 160.172C434.157 160.2 434.401 160.396 434.292 160.313C434.192 160.239 434.325 160.463 434.27 160.242C434.212 160.002 434.157 159.766 434.123 159.521C434.143 159.664 434.098 159.287 434.091 159.221C434.074 159.05 434.061 158.88 434.049 158.71C434.022 158.33 434.006 157.95 433.995 157.57C433.944 155.858 433.984 154.144 434.041 152.432C434.077 151.309 434.182 150.172 434.159 149.049C434.131 147.681 433.873 146.27 433.651 144.923C433.428 143.571 433.147 142.229 432.808 140.902C431.43 135.502 429.098 130.438 426.501 125.542C425.395 123.457 424.083 121.558 422.326 119.974C420.598 118.413 418.61 117.213 416.461 116.346C414.135 115.409 411.749 115.008 409.258 114.951C406.166 114.879 403.074 114.849 399.982 114.855C393.749 114.867 387.517 115.024 381.289 115.272C368.913 115.764 356.555 116.611 344.193 117.362C338.09 117.733 331.974 118.278 325.857 117.97C322.93 117.822 320.009 117.515 317.115 117.052C315.606 116.81 314.104 116.529 312.608 116.214C311.392 115.958 310.203 115.803 309.276 114.895C308.933 114.561 308.622 114.152 308.421 113.715C308.327 113.51 308.369 113.414 308.369 113.098C308.369 112.88 308.369 112.664 308.369 112.446C308.277 112.673 308.182 112.902 308.09 113.13C312.381 108.837 318.365 107.774 324.1 106.911C327.06 106.465 330.036 106.055 332.932 105.269C333.309 105.167 333.691 105.01 334.081 104.981C334.5 104.951 334.949 105.011 335.369 105.023C336.397 105.05 337.424 105.064 338.452 105.066C340.326 105.07 342.199 105.037 344.073 104.978C351.677 104.746 359.266 104.114 366.875 104.083C370.695 104.067 374.519 104.207 378.318 104.612C380.298 104.824 382.268 105.112 384.223 105.485C384.535 105.544 384.859 105.555 385.115 105.757C385.307 105.909 385.48 106.109 385.637 106.297C385.959 106.683 386.256 107.141 386.449 107.61C386.482 107.692 386.502 107.867 386.554 107.933C386.683 108.096 386.466 107.938 386.587 107.816C386.658 107.742 387.814 107.119 387.081 107.289C386.916 107.327 386.737 107.439 386.578 107.505C385.905 107.792 385.217 108.046 384.524 108.277C383.247 108.703 381.941 109.042 380.618 109.295C377.93 109.807 375.166 109.931 372.44 109.7C367.104 109.247 361.768 107.281 357.686 103.715C355.396 101.714 353.614 99.2362 352.002 96.6611C350.306 93.954 348.853 91.0846 347.698 88.0992C345.448 82.2921 344.253 76.1239 343.841 69.9112C343 57.2298 345.132 44.5785 347.345 32.1436C347.612 30.6405 347.882 29.1391 348.149 27.636C348.361 26.4176 346.52 25.8943 346.301 27.1207Z" fill="#A8645F"></path>
<path d="M225.879 164.299C226.243 174.049 223.322 183.487 218.502 191.857C216.071 196.075 213.205 200.023 210.049 203.714C208.447 205.586 206.708 207.33 205.293 209.358C203.984 211.234 202.94 213.289 202.172 215.451C199.157 223.933 200.973 233.256 203.671 241.56C204.369 243.707 205.139 245.827 205.943 247.935C206.777 250.127 207.744 252.28 208.355 254.548C209.089 257.27 209.495 260.063 209.777 262.865C210.058 265.673 210.331 268.496 210.534 271.309C210.628 272.619 210.616 273.929 210.752 275.238C210.888 276.536 211.079 277.829 211.315 279.113C211.785 281.667 212.434 284.182 213.123 286.684C214.459 291.529 216.024 296.381 216.585 301.401C216.723 302.637 216.797 303.879 216.802 305.123C216.806 306.368 218.719 306.37 218.714 305.123C218.678 294.773 213.686 285.316 212.652 275.117C212.518 273.805 212.548 272.487 212.432 271.177C212.31 269.813 212.171 268.451 212.058 267.087C211.826 264.268 211.596 261.446 211.159 258.65C210.737 255.946 210.093 253.324 209.092 250.78C208.279 248.717 207.476 246.65 206.724 244.563C203.784 236.413 201.185 227.305 203.234 218.619C203.742 216.464 204.532 214.396 205.607 212.467C206.798 210.329 208.333 208.545 209.951 206.738C213.204 203.108 216.203 199.227 218.797 195.087C223.896 186.95 227.387 177.679 227.786 167.984C227.836 166.758 227.835 165.53 227.789 164.302C227.744 163.057 225.833 163.05 225.879 164.299Z" fill="#A8645F"></path>
<path d="M387.239 250.076C384.116 257.094 382.339 264.574 380.482 272.007C378.485 279.993 376.536 287.988 374.679 296.01C370.993 311.926 367.671 327.951 363.146 343.655C360.939 351.316 358.951 358.892 358.164 366.861C357.391 374.697 357.63 382.631 358.981 390.39C361.622 405.557 368.811 419.354 376.542 432.436C384.501 445.898 393.007 459.082 399.388 473.423C400.255 475.371 401.088 477.335 401.897 479.309C402.362 480.443 404.213 479.946 403.74 478.796C397.796 464.298 389.904 450.929 381.845 437.562C374.032 424.602 366.177 411.347 362.281 396.551C358.246 381.233 359.067 365.025 363.321 349.851C365.511 342.039 367.747 334.266 369.651 326.373C371.541 318.541 373.284 310.673 375.075 302.816C376.896 294.825 378.755 286.842 380.725 278.887C382.585 271.377 384.251 263.739 386.782 256.422C387.412 254.603 388.108 252.81 388.891 251.053C389.392 249.925 387.745 248.94 387.239 250.076Z" fill="#A8645F"></path>
<path d="M217.673 306.105C219.256 317.552 218.985 329.225 217.333 340.648C216.515 346.308 215.375 351.916 213.994 357.46C212.585 363.124 210.814 368.666 209.158 374.257C205.893 385.276 202.51 396.259 199.209 407.265C195.924 418.223 192.722 429.205 189.793 440.266C188.291 445.936 186.816 451.623 185.518 457.344C184.228 463.028 183.405 468.815 182.126 474.504C181.802 475.944 181.453 477.375 181.076 478.8C180.757 480.004 182.602 480.518 182.919 479.314C184.434 473.586 185.417 467.744 186.536 461.929C187.645 456.168 189.114 450.481 190.582 444.804C193.478 433.595 196.672 422.469 199.976 411.377C203.268 400.327 206.663 389.31 209.961 378.262C211.642 372.628 213.444 367.028 214.965 361.346C216.474 355.709 217.745 350.006 218.697 344.243C220.575 332.877 221.217 321.28 220.029 309.803C219.883 308.395 219.709 306.989 219.514 305.588C219.346 304.362 217.504 304.885 217.673 306.105Z" fill="#A8645F"></path>
<path d="M210.519 284.541C208.399 284.511 206.17 283.665 204.166 283.048C201.715 282.292 199.275 281.465 196.892 280.512C193.897 279.316 191.073 277.785 188.011 276.728C184.041 275.359 179.998 274.282 176.068 272.771C174.043 271.993 172.054 271.107 170.007 270.393C168.057 269.713 166.008 269.288 164.088 268.526C162.314 267.821 160.711 266.743 159.104 265.725C157.347 264.613 155.573 263.535 153.856 262.359C150.282 259.913 146.855 257.257 143.315 254.763C139.869 252.336 136.659 249.805 133.828 246.643C132.486 245.145 131.323 243.508 130.043 241.959C128.703 240.338 127.252 238.816 125.785 237.313C122.968 234.428 120.248 231.452 117.439 228.56C114.761 225.804 111.881 223.194 108.555 221.261C105.23 219.329 102.133 217.142 98.9674 214.956C97.3727 213.856 95.7465 212.798 94.0354 211.891C92.2898 210.966 90.4342 210.309 88.6461 209.478C84.8501 207.716 81.2457 205.543 77.3648 203.966C75.3804 203.159 73.3064 202.614 71.3031 201.863C69.3517 201.131 67.7176 199.87 65.818 199.052C64.0551 198.294 62.1194 198.23 60.3109 197.638C58.7947 197.142 57.6619 195.938 56.1865 195.35C53.1101 194.123 50.384 196.983 50.8601 200.072C51.3236 203.076 53.5971 205.677 55.9665 207.365C56.7553 207.926 57.5676 208.454 58.2558 209.144C58.9267 209.816 59.475 210.595 60.0878 211.319C61.2411 212.68 62.6363 213.549 64.2939 214.151C67.3688 215.266 71.41 215.629 73.4494 218.573C74.4063 219.955 74.4503 221.672 74.9122 223.243C75.4056 224.918 76.1911 226.48 77.1354 227.938C79.0743 230.933 81.5788 233.497 84.484 235.536C87.2949 237.51 90.4955 238.961 93.8154 239.793C97.0238 240.596 100.242 240.634 103.522 240.637C106.146 240.639 108.893 240.567 111.331 239.475C113.972 238.293 115.731 235.777 116.167 232.901C116.776 228.894 114.417 225.374 112.305 222.228C110.002 218.796 107.612 215.419 104.861 212.337C102.514 209.706 100.001 207.212 97.1323 205.165C94.0935 202.997 90.8223 201.829 87.3687 200.552C85.4142 199.829 83.5287 198.931 81.6008 198.141C79.541 197.296 77.4088 196.651 75.305 195.929C73.1493 195.189 71.0014 194.43 68.8473 193.684C66.9477 193.026 65.0638 192.45 63.3292 191.402C61.8271 190.495 60.4319 189.422 58.9377 188.502C57.3162 187.503 55.6334 186.87 53.8061 186.376C51.7997 185.832 49.7712 185.367 47.7287 184.986C45.8275 184.631 43.8886 184.44 42.0173 183.941C38.5591 183.018 35.3899 181.303 32.1092 179.907C30.4768 179.212 28.8128 178.585 27.0845 178.181C25.4237 177.795 23.7928 177.728 22.1022 177.663C20.5043 177.601 19.0305 177.72 17.9181 179.051C17.0445 180.096 17.1482 181.416 17.563 182.638C18.567 185.595 20.1005 188.284 22.4981 190.304C23.7473 191.357 25.1284 192.227 26.6132 192.897C28.3603 193.684 30.1829 194.238 31.8861 195.133C33.6506 196.061 35.2957 197.088 37.1528 197.837C39.1043 198.626 40.8939 199.577 42.7291 200.603C44.1856 201.418 45.6405 202.087 47.2777 202.399C48.3367 202.601 50.2143 202.687 50.8334 203.74C50.9481 203.299 51.0628 202.857 51.1759 202.416C50.1248 203.124 48.9495 203.368 47.7287 203.601C46.379 203.861 45.1534 204.212 43.8855 204.756C41.5978 205.739 39.3808 206.802 37.0366 207.645C33.0488 209.078 29.0972 210.625 25.0498 211.883C20.1963 213.394 15.0993 213.926 10.172 215.155C7.24955 215.884 3.22567 216.108 1.2648 218.753C-0.493387 221.123 1.12182 223.434 3.45507 224.356C6.27382 225.473 9.55922 225.519 12.5445 225.537C15.1182 225.553 17.7531 225.525 20.3173 225.271C24.3365 224.872 28.2802 223.233 32.026 221.799C36.5778 220.056 41.1186 218.273 45.4158 215.936C47.1332 215.002 48.5315 213.568 50.2426 212.618C50.9921 212.201 51.9128 211.782 52.7628 212.141C53.6427 212.513 53.9569 213.301 53.8171 214.217C53.5107 216.226 51.8342 217.568 50.2127 218.533C48.0665 219.809 45.6012 220.517 43.1391 220.806C41.835 220.959 40.5262 220.989 39.2237 221.166C37.7138 221.371 36.2148 221.675 34.6986 221.835C32.7456 222.041 30.8334 222.009 28.8898 222.351C24.8911 223.054 20.9929 224.197 16.9471 224.605C14.1362 224.888 11.3441 225.153 8.56151 225.654C7.07985 225.92 5.50079 226.27 3.99871 226.341C2.90829 226.394 2.11954 226.359 1.19881 227.048C-1.76293 229.265 1.44235 232.155 3.51478 233.415C4.72932 234.153 6.046 234.797 7.39409 235.241C9.73206 236.009 12.3685 236.128 14.8039 236.311C19.4201 236.658 23.9107 237.187 28.5426 236.885C32.7204 236.612 36.8826 236.099 41.029 235.519C43.7614 235.136 46.4403 234.482 49.16 234.027C51.9301 233.564 54.7315 233.65 57.5142 233.322C61.4343 232.861 65.5038 231.573 66.7293 227.375C67.6045 224.383 66.8095 220.746 64.4008 218.697C63.0433 217.543 61.2285 216.887 59.4546 217.146C58.0311 217.355 56.7254 217.867 55.2721 217.943C53.902 218.015 52.5193 217.989 51.1759 218.323C48.5865 218.966 46.4198 220.7 44.118 221.969C41.7801 223.257 39.5568 224.609 37.4545 226.276C35.9257 227.488 34.576 228.789 32.8901 229.783C31.1335 230.82 29.3031 231.727 27.5025 232.683C24.591 234.227 20.6755 235.996 19.1373 239.149C17.9715 241.536 18.9236 243.635 21.2946 244.617C23.8305 245.667 26.808 245.69 29.5073 245.69C32.1234 245.69 34.7473 245.584 37.3618 245.506C42.2074 245.361 47.0326 244.779 51.8719 244.499C54.1235 244.369 56.386 244.281 58.6407 244.389C61.0557 244.506 63.1407 245.207 65.2492 246.395C67.4631 247.642 69.5292 249.161 71.8358 250.239C74.2994 251.393 76.7961 252.328 79.167 253.693C83.9357 256.436 88.1952 260.067 93.2938 262.199C95.6522 263.185 98.1096 263.888 100.6 264.438C101.862 264.718 103.147 265.033 104.44 265.103C105.634 265.168 106.801 265.175 107.955 265.541C110.217 266.258 112.315 268.085 114.06 269.636C116.205 271.54 118.323 273.458 120.528 275.294C122.767 277.158 125.018 279.009 127.199 280.943C129.428 282.919 131.521 285.042 133.801 286.96C138.281 290.73 142.914 294.237 147.172 298.277C151.523 302.406 155.671 306.742 160.172 310.707C164.594 314.601 169.205 318.266 173.749 322.01C176.098 323.946 178.472 325.83 180.912 327.647C183.264 329.396 185.692 331.082 187.821 333.112C189.787 334.986 191.559 337.055 193.551 338.898C195.779 340.958 198.12 342.897 200.45 344.834C204.812 348.462 209.213 352.051 213.253 356.052C214.132 356.924 215.476 355.566 214.604 354.684C214.39 354.468 214.178 354.253 213.964 354.037C213.092 353.156 211.741 354.524 212.613 355.405C212.827 355.621 213.039 355.836 213.253 356.052C213.704 355.596 214.153 355.139 214.604 354.684C210.519 350.637 206.063 347.01 201.651 343.339C199.468 341.523 197.286 339.698 195.185 337.785C193.174 335.954 191.392 333.893 189.441 332C185.359 328.04 180.406 325.03 176.034 321.41C171.6 317.739 167.087 314.164 162.733 310.394C158.394 306.636 154.371 302.561 150.25 298.565C146.165 294.603 141.852 291.005 137.421 287.449C132.992 283.894 128.984 279.857 124.628 276.212C122.408 274.354 120.139 272.549 117.987 270.611C116.103 268.916 114.287 267.142 112.192 265.708C110.4 264.48 108.678 263.549 106.505 263.284C105.285 263.134 104.077 263.177 102.866 262.938C101.587 262.687 100.311 262.409 99.0491 262.079C96.5478 261.427 94.0998 260.575 91.7933 259.39C89.416 258.168 87.2509 256.586 85.0308 255.105C82.7997 253.618 80.5356 252.174 78.1552 250.942C75.8298 249.738 73.3237 248.95 71.047 247.653C69.0296 246.505 67.13 245.145 65.0528 244.106C62.9977 243.079 60.919 242.565 58.636 242.454C54.0371 242.233 49.4114 242.715 44.8329 243.085C41.2757 243.373 37.7326 243.5 34.1691 243.632C31.4698 243.732 28.761 243.849 26.0632 243.634C24.5831 243.516 21.0118 243.316 20.5294 241.568C20.2733 240.639 21.0746 239.452 21.7125 238.778C22.8862 237.536 24.4025 236.631 25.8637 235.783C29.1271 233.89 32.7582 232.468 35.7859 230.184C37.6808 228.756 39.373 227.116 41.3621 225.797C43.5335 224.356 45.8731 223.144 48.1183 221.819C49.149 221.21 50.208 220.615 51.3613 220.278C52.7644 219.868 54.2225 219.959 55.6633 219.857C57.9682 219.693 60.1884 218.382 62.3881 219.626C64.9444 221.072 65.7285 224.593 64.7574 227.251C63.2302 231.428 57.6147 231.46 53.9522 231.638C48.8756 231.884 43.9813 233.2 38.955 233.866C34.8259 234.413 30.6716 234.894 26.5095 235.059C24.6774 235.132 22.8627 235.115 21.0416 234.895C18.2323 234.558 15.401 234.474 12.5854 234.186C9.14128 233.835 5.78203 233.049 3.05284 230.752C2.4055 230.208 1.3795 229.328 2.31751 228.603C2.77002 228.252 3.14554 228.255 3.67661 228.266C4.25481 228.279 4.80474 228.172 5.37509 228.083C6.93216 227.84 8.48608 227.615 10.0384 227.339C12.8305 226.841 15.6697 226.707 18.4806 226.375C20.2325 226.166 21.9467 225.796 23.6671 225.414C25.5699 224.993 27.4726 224.555 29.3926 224.218C31.4101 223.863 33.4322 223.946 35.4591 223.68C36.6752 223.521 37.8819 223.302 39.0964 223.122C40.4382 222.925 41.7895 222.898 43.1344 222.744C45.5085 222.47 47.8292 221.883 49.9912 220.84C52.8791 219.443 57.0114 216.106 55.4763 212.313C54.7881 210.612 52.8838 209.808 51.1665 210.18C49.3014 210.584 47.7271 211.953 46.236 213.071C44.3003 214.522 42.055 215.499 39.8805 216.525C37.8772 217.469 35.8236 218.263 33.7622 219.066C29.9551 220.549 26.1119 222.119 22.1211 223.019C19.6825 223.569 17.0728 223.537 14.5824 223.588C11.5358 223.65 8.35096 223.679 5.37195 222.939C4.48264 222.718 3.26809 222.416 2.6726 221.637C2.06926 220.846 2.67889 219.831 3.4645 219.263C4.75603 218.331 6.43566 217.958 7.95659 217.622C9.93318 217.185 11.9003 216.706 13.8801 216.283C18.4429 215.309 22.9899 214.629 27.427 213.145C31.154 211.898 34.818 210.469 38.5245 209.163C40.9756 208.3 43.2366 206.981 45.6767 206.1C47.8245 205.324 50.1813 205.407 52.1359 204.09C52.5633 203.802 52.7565 203.237 52.4784 202.766C51.0753 200.382 47.5967 200.831 45.3734 199.809C43.5807 198.987 41.9545 197.837 40.1601 197.015C38.3611 196.191 36.4835 195.588 34.7724 194.573C33.1698 193.622 31.5483 192.763 29.8106 192.091C28.2519 191.486 26.7341 190.921 25.3153 190.012C22.6301 188.292 20.795 185.817 19.6653 182.838C19.2065 181.626 18.6691 180.346 20.1995 179.71C20.8657 179.433 21.6418 179.594 22.3457 179.611C23.202 179.632 24.0474 179.627 24.899 179.738C28.2991 180.182 31.4493 181.69 34.5415 183.104C37.6603 184.529 40.7745 185.821 44.1762 186.342C47.9565 186.923 51.9992 187.54 55.5831 188.938C58.7837 190.185 61.2741 192.77 64.4181 194.15C66.1873 194.928 68.079 195.462 69.9032 196.097C71.9897 196.824 74.0732 197.556 76.166 198.265C78.0656 198.908 79.9605 199.526 81.8098 200.31C83.7298 201.125 85.6247 202.008 87.5981 202.685C90.9197 203.824 93.9725 205.174 96.8055 207.307C102.749 211.783 107.207 218.028 111.303 224.181C113.379 227.299 115.459 231.005 113.605 234.751C112.425 237.132 110.128 238.162 107.623 238.506C105.037 238.861 102.303 238.772 99.6996 238.686C96.3027 238.576 92.9026 237.777 89.8041 236.362C83.8398 233.637 77.9368 228.288 76.4614 221.594C76.1299 220.091 75.8643 218.661 74.9468 217.39C74.1376 216.267 73.0236 215.438 71.8279 214.773C70.3242 213.938 68.7153 213.444 67.0703 212.982C65.3765 212.508 63.5445 212.052 62.2262 210.805C60.9504 209.599 60.0658 208.072 58.68 206.97C57.3633 205.924 55.921 205.101 54.8211 203.794C53.9302 202.736 53.1101 201.453 52.7958 200.085C52.4721 198.674 53.1761 196.794 54.9012 196.983C56.3232 197.139 57.5032 198.513 58.7649 199.102C60.3424 199.838 62.0754 199.972 63.7425 200.395C65.7222 200.899 67.2824 202.214 69.1207 203.045C70.8553 203.827 72.6748 204.373 74.4754 204.971C78.3673 206.264 81.9214 208.292 85.576 210.131C88.9887 211.847 92.5569 213.105 95.7983 215.165C98.8716 217.118 101.731 219.391 104.817 221.323C106.385 222.305 108.036 223.135 109.559 224.193C111.105 225.266 112.543 226.489 113.913 227.784C116.653 230.372 119.123 233.232 121.742 235.942C124.526 238.821 127.422 241.6 129.85 244.805C132.194 247.898 134.857 250.721 137.861 253.166C140.92 255.655 144.27 257.806 147.449 260.139C150.734 262.55 154.06 264.858 157.517 267.01C159.06 267.971 160.567 269.003 162.206 269.794C163.912 270.618 165.725 271.066 167.527 271.62C171.392 272.806 175.078 274.527 178.893 275.87C182.716 277.215 186.658 278.163 190.418 279.692C192.819 280.668 195.089 281.904 197.517 282.82C199.935 283.732 202.389 284.554 204.869 285.279C206.672 285.806 208.616 286.45 210.512 286.475C211.749 286.494 211.749 284.559 210.519 284.541Z" fill="#A8645F"></path>
<path d="M427.893 238.065C427.931 241.587 426.433 244.817 423.687 247C422.186 248.192 420.411 248.881 418.687 249.664C416.81 250.516 414.899 251.38 412.856 251.735C408.532 252.487 405.055 249.968 401.328 248.212C398.942 247.087 396.362 246.405 393.783 245.886C390.321 245.19 386.831 245.008 383.318 244.798C380.656 244.639 378.009 244.305 375.619 243.025C372.088 241.135 369.375 237.87 367.018 234.687C365.032 232.005 363.222 229.193 361.483 226.345C359.412 222.952 357.014 219.523 355.936 215.653C355.3 213.369 354.883 211.031 354.283 208.739C353.688 206.464 353.059 204.198 352.426 201.935C351.232 197.667 350.197 193.237 348.517 189.132C347.371 186.334 346.429 183.246 346.685 180.179C346.82 178.573 347.393 176.802 348.801 175.892C351.999 173.83 355.358 177.534 356.62 180.171C357.987 183.028 358.068 186.29 359.236 189.226C360.029 191.222 361.256 192.967 361.86 195.044C362.339 196.697 363.104 198.155 363.842 199.695C364.597 201.267 364.524 202.706 363.798 204.297C362.35 207.466 358.991 210.169 355.403 209.89C353.722 209.76 352.109 208.83 351.422 207.215C350.522 205.098 352.484 204.091 354.109 203.345C357.325 201.869 360.951 201.146 364.408 202.138C371.981 204.312 375.917 212.776 378.661 219.518C380.229 223.372 382.07 227.22 383.219 231.225C384.403 235.35 384.6 239.534 385.154 243.763C385.415 245.749 386.311 247.531 386.843 249.441C387.434 251.56 387.621 253.834 388.02 255.999C388.889 260.705 389.723 265.41 390.371 270.153C391.669 279.647 391.973 289.089 391.923 298.661C391.871 308.387 391.741 318.111 391.736 327.838C391.735 332.738 391.763 337.637 391.852 342.538C391.922 346.366 392.349 350.142 393.301 353.854C395.187 361.203 398.807 368.009 403.415 373.967C405.775 377.017 408.41 379.85 411.268 382.427C414.071 384.954 417.204 387.736 420.716 389.176C426.473 391.534 431.994 387.337 435.406 382.933C439.055 378.225 441.432 372.586 443.401 366.986C445.47 361.099 447.28 355.001 448.554 348.889C451.959 332.574 450.631 315.982 446.586 299.924C442.494 283.682 436.164 268.138 431.002 252.237C430.327 250.157 429.522 248.053 429.1 245.904C428.655 243.639 428.734 241.301 428.788 239.004C428.9 234.31 428.829 229.61 428.829 224.916C428.829 220.293 428.829 215.68 428.639 211.06C428.455 206.593 428.198 202.003 428.969 197.578C430.448 189.108 437.191 183.029 439.419 174.897C439.947 172.971 440.367 171.014 440.995 169.117C441.661 167.108 442.841 165.546 443.746 163.679C444.873 161.355 444.901 158.433 442.804 156.658C440.964 155.101 438.272 155.147 436.329 156.488C434.922 157.458 433.906 158.983 432.914 160.356C431.662 162.091 430.52 163.925 429.628 165.877C428.256 168.872 427.608 172.161 426.388 175.224C425.087 178.49 422.829 181.37 420.794 184.194C419.826 185.536 418.943 187.166 417.521 188.063C416.125 188.946 414.429 188.954 412.842 188.8C411.17 188.639 409.524 188.278 407.857 188.076C405.767 187.823 403.646 187.917 401.545 187.907C397.437 187.888 393.227 188.199 389.139 187.721C385.819 187.335 382.554 186.366 379.47 185.079C372.762 182.282 366.696 177.835 361.707 172.53C356.94 167.461 352.916 161.329 351.12 154.509C350.566 152.405 350.09 149.849 351.339 147.896C352.489 146.097 354.513 145.647 356.17 147.029C357.476 148.118 358.4 149.702 359.341 151.105C360.32 152.564 361.269 154.043 362.208 155.527C366.254 161.913 370.099 168.471 374.685 174.483C376.951 177.453 379.518 180.004 382.27 182.511C383.195 183.354 384.135 184.165 385.087 184.976C385.748 185.541 387.243 186.511 387.506 187.317C387.898 186.921 388.291 186.524 388.682 186.128C386.276 185.763 383.732 185.448 381.523 184.351C379.049 183.122 377.138 180.962 375.667 178.643C373.754 175.625 372.244 172.457 371.252 169.115C369.351 162.715 367.986 155.945 367.573 149.27C367.431 147.002 367.159 144.027 368.179 141.942C368.509 141.269 368.764 141.024 369.361 141.093C370.069 141.174 370.867 141.732 371.369 142.287C373.903 145.095 375.839 148.624 377.807 151.843C379.727 154.982 381.427 158.25 383.373 161.372C386.785 166.852 390.669 172.069 394.987 176.852C399.003 181.3 403.498 185.565 408.757 188.466C409.857 189.072 410.707 187.511 409.722 186.794C406.482 184.438 403.457 181.72 401.363 178.245C400.103 176.153 399.292 173.823 398.131 171.673C395.425 166.664 392.489 161.787 389.788 156.776C388.811 154.962 387.703 153.101 387.043 151.137C386.345 149.061 385.88 146.09 386.429 143.954C386.565 143.42 386.718 143.138 387.177 142.884C387.051 142.954 387.096 142.841 387.4 142.971C387.671 143.089 388.369 143.609 388.746 143.951C390.302 145.362 391.631 147.046 392.913 148.708C396.239 153.025 399.234 157.606 402.205 162.179C403.327 163.904 404.433 165.641 405.566 167.361C406.834 169.285 408.419 170.927 409.786 172.775C411.061 174.498 412.215 176.223 413.64 177.833C415.029 179.401 416.36 180.992 417.402 182.826C417.95 183.791 418.287 184.85 418.664 185.895C418.799 186.269 419.063 186.746 419.093 187.149C419.053 186.635 418.898 187.292 418.756 187.518C418.543 187.858 418.255 188.154 417.98 188.443C416.836 189.643 415.449 190.645 414.498 192.022C413.249 193.831 412.385 196.077 411.549 198.105C409.84 202.253 408.756 206.56 408.27 211.026C407.472 218.362 407.803 226.187 410.443 233.136C411.708 236.467 413.526 239.594 416.043 242.117C418.404 244.485 420.841 247.23 423.768 248.88C425.139 249.651 426.565 250.045 428.127 249.82C429.34 249.645 428.825 247.779 427.619 247.954C425.88 248.205 424.152 246.958 422.871 245.921C421.459 244.776 420.205 243.451 418.904 242.182C416.194 239.538 414.002 236.825 412.542 233.265C409.635 226.175 409.359 218.077 410.239 210.539C410.804 205.699 412.228 201.018 414.282 196.617C415.176 194.701 416.015 192.985 417.55 191.524C418.689 190.441 420.15 189.341 420.752 187.828C421.184 186.74 420.675 185.841 420.296 184.806C419.881 183.67 419.487 182.576 418.866 181.534C417.804 179.75 416.495 178.162 415.124 176.616C413.614 174.913 412.405 173.049 411.021 171.253C409.459 169.225 408.295 168.038 406.978 166.026C405.78 164.196 404.603 162.351 403.407 160.518C400.364 155.847 397.279 151.177 393.835 146.795C392.566 145.181 391.246 143.522 389.661 142.208C388.537 141.277 387.148 140.445 385.786 141.452C383.607 143.062 384.344 147.072 384.708 149.329C385.021 151.263 385.646 152.884 386.512 154.633C389.108 159.877 392.146 164.895 395.009 169.992C395.931 171.635 397.08 173.588 397.751 175.151C399.327 178.816 401.303 181.994 404.201 184.75C405.624 186.104 407.173 187.317 408.759 188.471C409.081 187.914 409.401 187.357 409.723 186.799C404.71 184.033 400.447 179.999 396.601 175.775C392.443 171.207 388.71 166.233 385.403 161.003C383.263 157.619 381.415 154.061 379.32 150.646C377.289 147.333 375.287 143.663 372.622 140.814C371.279 139.378 368.778 138.392 367.195 140.01C365.544 141.697 365.561 144.812 365.576 147.002C365.621 154.069 367.123 161.306 368.969 168.096C370.013 171.93 371.568 175.525 373.598 178.946C375.191 181.631 377.298 184.217 380.04 185.755C382.535 187.155 385.39 187.578 388.171 188C388.834 188.1 389.601 187.583 389.346 186.81C389.004 185.762 387.975 184.967 387.186 184.267C386.229 183.419 385.227 182.628 384.286 181.762C381.241 178.957 378.332 176.188 375.837 172.858C371.103 166.538 367.14 159.661 362.876 153.019C361.966 151.602 361.044 150.192 360.086 148.81C359.086 147.371 358.034 145.81 356.497 144.91C353.359 143.068 349.857 145.368 348.947 148.624C347.923 152.287 349.529 156.499 350.949 159.85C352.371 163.206 354.253 166.346 356.437 169.249C364.834 180.406 378.508 189.95 392.82 189.859C395.256 189.843 397.691 189.832 400.126 189.843C402.395 189.853 404.705 189.735 406.968 189.926C410.273 190.204 413.864 191.537 417.135 190.378C420.283 189.261 422.072 185.732 423.908 183.126C426.001 180.155 427.747 177.208 428.979 173.769C429.508 172.291 429.915 170.774 430.372 169.274C431.021 167.143 432.041 165.175 433.229 163.303C434.69 160.997 437.146 156.458 440.53 157.568C441.575 157.911 442.361 158.77 442.571 159.869C442.922 161.705 441.781 163.208 440.893 164.676C438.731 168.247 438.268 172.5 436.967 176.405C436.249 178.557 435.078 180.454 433.865 182.349C432.699 184.17 431.617 186.031 430.611 187.949C428.58 191.823 427.123 195.709 426.74 200.102C426.337 204.715 426.677 209.351 426.839 213.967C427.008 218.825 426.914 223.696 426.914 228.556C426.914 233.303 426.68 238.097 426.859 242.84C427.03 247.353 428.767 251.633 430.177 255.868C432.966 264.235 436.002 272.512 438.829 280.866C444.281 296.981 448.905 313.617 448.649 330.799C448.518 339.55 447.052 348.101 444.655 356.495C443.032 362.178 441.313 367.867 438.857 373.248C436.514 378.382 433.361 384.049 428.242 386.793C426.903 387.51 425.332 388.081 423.8 387.992C421.55 387.86 419.492 386.496 417.711 385.209C414.49 382.88 411.499 380.211 408.771 377.309C403.272 371.458 398.775 364.505 396.175 356.841C393.26 348.249 393.656 339.261 393.641 330.298C393.622 320.246 393.757 310.192 393.818 300.14C393.848 295.138 393.928 290.129 393.692 285.13C393.465 280.306 392.984 275.497 392.351 270.711C391.706 265.848 390.885 261.019 389.987 256.198C389.552 253.863 389.332 251.421 388.734 249.126C388.193 247.054 387.192 245.161 386.979 243.001C386.562 238.791 386.193 234.593 384.999 230.517C383.769 226.321 381.844 222.265 380.178 218.23C377.316 211.297 373.348 203.447 365.953 200.626C362.78 199.415 359.283 199.539 356.073 200.533C353.171 201.432 348.57 203.086 349.343 206.986C350.014 210.372 353.564 212.125 356.723 211.802C360.145 211.452 363.214 209.152 364.953 206.207C365.77 204.825 366.427 203.148 366.322 201.51C366.224 200.002 365.469 198.714 364.812 197.397C364.095 195.964 363.762 194.429 363.164 192.956C362.768 191.982 362.241 191.085 361.754 190.158C360.251 187.29 360.068 184.112 359.036 181.094C358.282 178.891 357.093 176.759 355.295 175.259C352.555 172.974 348.481 172.624 346.215 175.77C344.991 177.472 344.652 179.692 344.74 181.752C344.87 184.809 346.047 187.917 346.996 190.465C348.698 195.03 349.86 199.856 351.157 204.548C351.699 206.511 352.256 208.473 352.739 210.454C353.466 213.439 353.894 216.587 355.223 219.383C357.033 223.189 359.46 226.839 361.734 230.378C363.42 233.001 365.192 235.575 367.156 237.992C369.551 240.941 372.341 243.771 375.865 245.282C378.58 246.446 381.509 246.646 384.421 246.799C388.226 247 391.969 247.354 395.674 248.307C397.209 248.701 398.739 249.139 400.183 249.802C401.984 250.631 403.688 251.658 405.498 252.468C409.417 254.219 413.155 254.066 417.103 252.454C420.425 251.097 424.009 249.739 426.484 247.004C428.705 244.55 429.838 241.383 429.802 238.069C429.791 236.822 427.879 236.818 427.893 238.065Z" fill="#A8645F"></path>
<path d="M280.805 53.4296C283.062 54.2487 285.233 53.3946 287.392 52.7218C288.46 52.3893 289.565 52.5563 290.648 52.7297C291.933 52.9349 293.202 53.1433 294.5 52.946C295.719 52.7599 296.868 52.2923 298.06 51.9933C298.579 51.8629 299.101 51.7674 299.636 51.7579C299.943 51.7515 300.246 51.7722 300.549 51.8056C300.584 51.8088 300.741 51.8311 300.6 51.812C300.446 51.7913 300.683 51.8247 300.713 51.8295C301.627 51.979 302.54 52.1412 303.467 52.1873C305.618 52.2939 307.791 52.0331 309.923 51.7802C310.435 51.7197 310.878 51.3793 310.878 50.8131C310.878 50.3375 310.438 49.784 309.923 49.8461C307.951 50.0799 305.957 50.3073 303.968 50.2691C303.443 50.2596 302.919 50.2246 302.397 50.1578C302.615 50.1864 302.384 50.1562 302.301 50.1419C302.213 50.1276 302.124 50.1133 302.036 50.0989C301.841 50.0671 301.646 50.0321 301.451 50.0003C300.637 49.8667 299.831 49.7761 299.005 49.8651C297.831 49.9908 296.731 50.3709 295.605 50.7018C294.384 51.0596 293.267 51.1742 292.003 50.9992C290.811 50.8338 289.611 50.5427 288.399 50.5984C285.951 50.7097 283.816 52.4736 281.31 51.5639C280.153 51.1424 279.654 53.0128 280.805 53.4296Z" fill="#A8645F"></path>
<path d="M306.833 51.3572C305.426 52.4404 304.252 53.8242 302.792 54.8358C301.527 55.7137 300.164 56.0128 298.671 56.2116C297.01 56.4327 295.335 56.5726 293.662 56.6426C292.326 56.6983 290.768 56.7905 289.53 56.5233C288.673 56.3388 287.965 55.5626 287.247 55.0934C286.147 54.3729 285.133 53.5554 284.103 52.7394C283.693 52.4149 283.152 52.3418 282.751 52.7394C282.417 53.0702 282.344 53.7876 282.751 54.1073C283.722 54.8739 284.671 55.6772 285.693 56.377C286.494 56.9257 287.284 57.5858 288.139 58.0455C289.448 58.7501 291.212 58.634 292.652 58.6085C294.435 58.5751 296.22 58.4383 297.991 58.23C299.648 58.0359 301.323 57.8546 302.828 57.0705C304.753 56.0684 306.103 54.3315 307.8 53.0257C308.214 52.7076 308.42 52.1954 308.142 51.7024C307.908 51.292 307.243 51.0407 306.833 51.3572Z" fill="#A8645F"></path>
<path d="M289.931 48.6552C290.363 48.652 290.859 48.5725 291.282 48.6742C291.293 48.6774 291.628 48.8365 291.768 48.8699C292.156 48.9621 292.574 48.9049 292.955 48.8126C293.402 48.7045 293.771 48.6408 294.233 48.6329C295.036 48.6186 295.796 48.4102 296.604 48.415C297.526 48.4229 298.452 48.3911 299.374 48.4245C300.133 48.4516 300.863 48.6027 301.556 48.9287C302.318 49.2866 303.041 49.7192 303.842 49.988C305.057 50.3936 306.557 50.4668 307.481 51.4609C307.621 50.9217 307.763 50.3825 307.902 49.8433C307.846 49.856 307.789 49.8703 307.733 49.8831C306.535 50.1678 307.043 52.0335 308.24 51.7488C308.297 51.7361 308.353 51.7217 308.41 51.709C309.134 51.5372 309.306 50.602 308.833 50.0914C307.778 48.9558 306.267 48.6663 304.845 48.2687C304.048 48.0476 303.36 47.6643 302.62 47.3048C301.775 46.8944 300.931 46.6336 299.998 46.5318C299.078 46.4332 298.144 46.4857 297.221 46.4825C296.748 46.4809 296.268 46.4507 295.796 46.4872C295.381 46.5206 294.984 46.6304 294.572 46.6797C294.093 46.7354 293.622 46.6686 293.141 46.7608C292.91 46.8053 292.362 47.0169 292.244 47.0073C292.341 47.0153 292.052 46.9008 292.022 46.8896C291.832 46.8117 291.642 46.7847 291.438 46.7592C290.935 46.6972 290.434 46.7163 289.928 46.721C288.702 46.7306 288.699 48.6647 289.931 48.6552Z" fill="#A8645F"></path>
<path d="M283.242 53.1822C284.401 52.0433 285.745 51.1288 286.996 50.1013C288.034 49.2472 289.08 48.6682 290.407 48.6555C291.637 48.6443 291.64 46.7086 290.407 46.7198C288.699 46.7357 287.269 47.4323 285.949 48.4837C284.585 49.5716 283.138 50.588 281.891 51.8127C281.004 52.6828 282.357 54.0506 283.242 53.1822Z" fill="#A8645F"></path>
</svg>