<?xml version="1.0"?><svg id="Warstwa_1" xmlns="http://www.w3.org/2000/svg" viewBox="0 0 850.39 425.2"><defs></defs><path class="cls-1" d="M277.66,196.22c-1.87-.89-3.98-1.59-6.34-2.1-2.36-.51-4.78-.97-7.27-1.37-2.49-.4-4.91-.83-7.27-1.3-2.36-.47-4.47-1.12-6.34-1.97-1.87-.84-3.37-1.94-4.5-3.3-1.14-1.36-1.7-3.12-1.7-5.3s.54-3.94,1.63-5.4c1.09-1.47,2.46-2.67,4.1-3.6,1.64-.93,3.44-1.61,5.4-2.03,1.96-.42,3.82-.63,5.6-.63,7.91,0,13.5,3.69,16.74,11.07l3.47-2.73c-1.11-1.73-2.47-3.2-4.07-4.4-1.6-1.2-3.34-2.18-5.2-2.94-1.87-.75-3.8-1.31-5.8-1.67-2-.35-3.98-.53-5.94-.53-2.09,0-4.38.27-6.87.8-2.49.53-4.83,1.37-7,2.5-2.18,1.13-3.99,2.61-5.44,4.44-1.45,1.82-2.17,4-2.17,6.54,0,2.18.57,3.93,1.7,5.24,1.14,1.31,2.64,2.35,4.5,3.1,1.87.76,3.98,1.32,6.33,1.7,2.36.38,4.78.75,7.27,1.1,2.49.36,4.91.77,7.27,1.23,2.36.47,4.47,1.17,6.33,2.1,1.87.93,3.37,2.17,4.5,3.7,1.13,1.54,1.7,3.55,1.7,6.04,0,2.36-.52,4.35-1.57,5.97s-2.39,2.94-4.04,3.94c-1.65,1-3.49,1.72-5.54,2.17-2.05.44-4.07.67-6.07.67-5.11,0-9.34-1.26-12.67-3.77s-5.65-6.26-6.94-11.24l-5.07,2.74c.67,2.31,1.89,4.31,3.67,6,1.78,1.69,3.81,3.09,6.1,4.2,2.29,1.11,4.69,1.94,7.21,2.47,2.51.53,4.86.8,7.04.8,1.47,0,3.06-.12,4.77-.37,1.71-.24,3.43-.63,5.17-1.17,1.73-.53,3.41-1.2,5.04-2s3.06-1.76,4.3-2.87c1.24-1.11,2.24-2.39,3-3.84.75-1.44,1.13-3.06,1.13-4.83,0-2.31-.57-4.19-1.7-5.64-1.13-1.45-2.64-2.61-4.5-3.5Z"></path><polygon class="cls-1" points="367.7 219.23 345.69 167.94 321.88 219.23 323.34 219.23 343.22 176.34 361.97 219.23 367.7 219.23"></polygon><polygon class="cls-1" points="414.12 176.94 457.81 219.83 457.81 169.2 452.41 169.2 452.41 212.16 408.66 168.4 408.66 219.23 414.12 219.23 414.12 176.94"></polygon><polygon class="cls-1" points="496.63 170.34 517.98 170.34 517.98 219.23 523.38 219.23 523.38 170.34 544.66 170.34 544.66 169.2 496.63 169.2 496.63 170.34"></polygon><polygon class="cls-1" points="613.96 169.2 583.48 169.2 583.48 219.23 613.96 219.23 613.96 218.1 588.95 218.1 588.95 170.34 613.96 170.34 613.96 169.2"></polygon><circle class="cls-1" cx="600.77" cy="193.1" r="2.41"></circle><polygon class="cls-1" points="356.76 259.87 347.65 244.17 347.77 262.04 348.26 262.04 348.03 248.15 356.01 262.25 363.87 248.36 363.94 262.04 365.99 262.04 365.82 244.17 356.76 259.87"></polygon><polygon class="cls-1" points="380.27 262.04 391.03 262.04 391.03 261.64 382.2 261.64 382.2 252.53 388.56 252.53 388.56 252.13 382.2 252.13 382.2 244.78 391.03 244.78 391.03 244.38 380.27 244.38 380.27 262.04"></polygon><path class="cls-1" d="M419.77,246.22c-2.4-1.34-5.49-1.84-8.31-1.84h-5.91v17.66h5.91c5.67,0,12.38-2.12,12.38-8.9,0-3.39-1.67-5.58-4.07-6.92ZM411.46,261.64h-3.98v-16.86h3.98c5.37,0,10.45,1.93,10.45,8.12s-4.94,8.73-10.45,8.73Z"></path><rect class="cls-1" x="438.43" y="244.38" width="1.93" height="17.66"></rect><path class="cls-1" d="M465.46,244.57c2.28,0,4.97.73,6.29,2.73l1.25-1.13c-2.14-1.41-4.59-2.05-7.13-2.05-5.42,0-10.92,3.08-10.92,9.09s5.51,9.09,10.92,9.09c2.54,0,4.99-.64,7.13-2.05l-1.25-1.13c-1.34,1.98-4,2.73-6.29,2.73-5.11,0-8.59-3.55-8.59-8.64s3.48-8.64,8.59-8.64Z"></path><polygon class="cls-1" points="486.19 262.04 486.71 262.04 493.72 246.9 500.34 262.04 502.36 262.04 494.6 243.94 486.19 262.04"></polygon><polygon class="cls-1" points="604.68 162.9 597.1 164.33 597.09 165.5 604.68 165.5 604.68 162.9"></polygon></svg>