<?xml version="1.0"?><svg id="Warstwa_1" xmlns="http://www.w3.org/2000/svg" viewBox="0 0 850.39 280.43"><defs></defs><path class="cls-1" d="M114.53,105.73c-3.93-1.87-8.38-3.35-13.34-4.43-4.97-1.07-10.07-2.03-15.31-2.88-5.25-.84-10.35-1.75-15.31-2.73-4.97-.99-9.41-2.37-13.34-4.14-3.93-1.78-7.09-4.09-9.48-6.95-2.39-2.85-3.58-6.58-3.58-11.17s1.15-8.29,3.44-11.38c2.3-3.09,5.18-5.62,8.64-7.59,3.46-1.96,7.25-3.39,11.38-4.28,4.12-.89,8.05-1.33,11.79-1.33,16.67,0,28.42,7.77,35.25,23.31l7.3-5.76c-2.34-3.65-5.2-6.74-8.57-9.27-3.37-2.53-7.02-4.59-10.95-6.18-3.93-1.59-8.01-2.76-12.22-3.51-4.21-.75-8.38-1.12-12.5-1.12-4.4,0-9.22.56-14.46,1.68-5.25,1.13-10.16,2.88-14.75,5.27-4.59,2.39-8.41,5.5-11.45,9.34-3.05,3.84-4.57,8.43-4.57,13.76,0,4.59,1.2,8.27,3.58,11.03,2.39,2.76,5.55,4.94,9.48,6.53,3.93,1.59,8.38,2.79,13.34,3.58,4.97.8,10.07,1.57,15.31,2.32,5.24.75,10.34,1.62,15.31,2.6,4.96.98,9.41,2.46,13.34,4.42,3.93,1.97,7.09,4.57,9.48,7.8,2.39,3.23,3.58,7.47,3.58,12.71,0,4.97-1.1,9.15-3.3,12.57-2.2,3.42-5.04,6.18-8.5,8.29-3.47,2.11-7.35,3.63-11.65,4.56-4.31.94-8.57,1.4-12.78,1.4-10.77,0-19.66-2.64-26.69-7.93-7.02-5.29-11.89-13.18-14.61-23.67l-10.67,5.76c1.4,4.87,3.98,9.08,7.72,12.64,3.75,3.56,8.03,6.51,12.85,8.85,4.82,2.34,9.88,4.07,15.17,5.2,5.29,1.13,10.23,1.69,14.82,1.69,3.09,0,6.44-.26,10.04-.78,3.6-.51,7.23-1.33,10.88-2.46,3.65-1.13,7.19-2.53,10.6-4.21,3.42-1.68,6.43-3.7,9.06-6.04,2.62-2.34,4.73-5.04,6.32-8.08,1.59-3.04,2.39-6.44,2.39-10.18,0-4.87-1.19-8.83-3.58-11.87-2.39-3.04-5.55-5.5-9.48-7.37Z"></path><polygon class="cls-1" points="304.13 154.18 257.78 46.18 207.65 154.18 210.73 154.18 252.59 63.87 292.06 154.18 304.13 154.18"></polygon><polygon class="cls-1" points="401.88 65.13 493.88 155.44 493.88 48.84 482.5 48.84 482.5 139.29 390.37 47.16 390.37 154.18 401.88 154.18 401.88 65.13"></polygon><polygon class="cls-1" points="575.62 51.23 620.56 51.23 620.56 154.18 631.93 154.18 631.93 51.23 676.74 51.23 676.74 48.84 575.62 48.84 575.62 51.23"></polygon><polygon class="cls-1" points="822.66 48.84 758.48 48.84 758.48 154.18 822.66 154.18 822.66 151.79 769.99 151.79 769.99 51.23 822.66 51.23 822.66 48.84"></polygon><circle class="cls-1" cx="794.89" cy="99.16" r="5.08"></circle><polygon class="cls-1" points="281.1 239.76 261.92 206.7 262.16 244.32 263.2 244.32 262.71 215.08 279.51 244.77 296.07 215.52 296.22 244.32 300.53 244.32 300.18 206.7 281.1 239.76"></polygon><polygon class="cls-1" points="330.61 244.32 353.26 244.32 353.26 243.48 334.67 243.48 334.67 224.3 348.06 224.3 348.06 223.45 334.67 223.45 334.67 207.99 353.26 207.99 353.26 207.15 330.61 207.15 330.61 244.32"></polygon><path class="cls-1" d="M413.78,211.01c-5.06-2.83-11.55-3.87-17.5-3.87h-12.44v37.18h12.44c11.94,0,26.07-4.46,26.07-18.74,0-7.14-3.52-11.75-8.57-14.57ZM396.28,243.48h-8.38v-35.49h8.38c11.3,0,22.01,4.07,22.01,17.1s-10.41,18.39-22.01,18.39Z"></path><rect class="cls-1" x="453.07" y="207.15" width="4.07" height="37.18"></rect><path class="cls-1" d="M509.97,207.54c4.81,0,10.46,1.54,13.23,5.75l2.63-2.38c-4.51-2.97-9.67-4.31-15.02-4.31-11.4,0-23,6.49-23,19.13s11.6,19.13,23,19.13c5.35,0,10.51-1.34,15.02-4.31l-2.63-2.38c-2.83,4.16-8.43,5.75-13.23,5.75-10.76,0-18.09-7.48-18.09-18.19s7.34-18.19,18.09-18.19Z"></path><polygon class="cls-1" points="553.63 244.32 554.72 244.32 569.49 212.45 583.42 244.32 587.68 244.32 571.32 206.2 553.63 244.32"></polygon><polygon class="cls-1" points="803.12 35.57 787.15 38.59 787.13 41.04 803.12 41.05 803.12 35.57"></polygon></svg>